<?xml version="1.0" encoding="UTF-8"?>
<svg version="1.1" xmlns="http://www.w3.org/2000/svg" width="256" height="197">
<path d="M0 0 C84.48 0 168.96 0 256 0 C256 65.01 256 130.02 256 197 C171.52 197 87.04 197 0 197 C0 131.99 0 66.98 0 0 Z " fill="#F9F9F9" transform="translate(0,0)"/>
<path d="M0 0 C0.99 0.495 0.99 0.495 2 1 C1.16855469 1.66386719 0.33710938 2.32773437 -0.51953125 3.01171875 C-1.61751433 3.90324347 -2.71515244 4.79519316 -3.8125 5.6875 C-4.35970703 6.12255859 -4.90691406 6.55761719 -5.47070312 7.00585938 C-8.80299798 9.73228244 -10.84994831 12.31327473 -13 16 C-13.99 16.33 -14.98 16.66 -16 17 C-16.3403125 18.11375 -16.3403125 18.11375 -16.6875 19.25 C-18.63063397 23.32132832 -22.01933412 25.05113233 -26 27 C-26.66 27 -27.32 27 -28 27 C-28.3403125 28.0828125 -28.3403125 28.0828125 -28.6875 29.1875 C-30.35590349 32.76265033 -31.81908565 34.63123399 -35 37 C-37.1171875 36.99609375 -37.1171875 36.99609375 -39.4375 36.75 C-41.7842174 36.50785614 -41.7842174 36.50785614 -44 37 C-45.92208078 39.0436175 -47.15669984 41.18047472 -48.546875 43.61328125 C-51.59563031 48.62077989 -55.95173578 51.61461024 -61.1875 54.0625 C-64.8741733 55.8032325 -66.69927712 57.54891568 -69 61 C-69.51820313 61.76570313 -70.03640625 62.53140625 -70.5703125 63.3203125 C-72.06381178 65.53624864 -73.53802928 67.7631848 -75 70 C-77.97 69.67 -80.94 69.34 -84 69 C-84.37125 69.99 -84.7425 70.98 -85.125 72 C-86.203125 73.67578125 -86.203125 73.67578125 -88 75 C-91.56517976 75.32929616 -94.92362947 75.18387642 -98.4921875 74.91796875 C-102.49290202 75.01152666 -104.47480049 76.21212176 -108 78 C-111.34765625 78.2578125 -111.34765625 78.2578125 -115.0625 78.125 C-116.47389271 78.09901522 -117.88536439 78.07709759 -119.296875 78.05859375 C-120.05033203 78.04683105 -120.80378906 78.03506836 -121.58007812 78.02294922 C-138.17731444 77.59888344 -138.17731444 77.59888344 -153.625 82.7890625 C-157.53033415 84.78026906 -161.6942311 85.3742158 -166 86 C-165.67 86.99 -165.34 87.98 -165 89 C-160.05 89 -155.1 89 -150 89 C-149.67 88.34 -149.34 87.68 -149 87 C-148.67 87.66 -148.34 88.32 -148 89 C-142.39 89 -136.78 89 -131 89 C-131 90.32 -131 91.64 -131 93 C-132.98 93 -134.96 93 -137 93 C-137 93.66 -137 94.32 -137 95 C-134.59705813 96.20147094 -133.07799484 96.13774949 -130.39364624 96.15821838 C-129.4232692 96.1680072 -128.45289215 96.17779602 -127.45310974 96.18788147 C-126.38496536 96.19363693 -125.31682098 96.1993924 -124.21630859 96.20532227 C-123.09435593 96.21522186 -121.97240326 96.22512146 -120.81645203 96.23532104 C-117.09380226 96.26700527 -113.37113972 96.29172084 -109.6484375 96.31640625 C-107.07296408 96.3369698 -104.49749408 96.3579661 -101.92202759 96.37937927 C-95.82702858 96.42900595 -89.73201135 96.4742552 -83.63696349 96.51740164 C-76.69868656 96.56676018 -69.76045721 96.62168342 -62.82222629 96.67708123 C-48.54819553 96.79092615 -34.27411835 96.89775972 -20 97 C-20 97.33 -20 97.66 -20 98 C-24.29 98 -28.58 98 -33 98 C-32.01 101.465 -32.01 101.465 -31 105 C-34.08809695 106.76462683 -35.23312136 107 -39 107 C-39.04125 107.61875 -39.0825 108.2375 -39.125 108.875 C-39.41375 109.57625 -39.7025 110.2775 -40 111 C-43.0625 112.25 -43.0625 112.25 -46 113 C-46 112.34 -46 111.68 -46 111 C-46.99 110.67 -47.98 110.34 -49 110 C-48.01 108.02 -48.01 108.02 -47 106 C-47.556875 106.165 -48.11375 106.33 -48.6875 106.5 C-51.18691249 107.04041351 -53.45045662 107.07082065 -56 107 C-56.37125 107.9590625 -56.37125 107.9590625 -56.75 108.9375 C-58 111 -58 111 -60.125 111.75 C-60.74375 111.8325 -61.3625 111.915 -62 112 C-62 111.01 -62 110.02 -62 109 C-62.66 109 -63.32 109 -64 109 C-64 108.34 -64 107.68 -64 107 C-65.65 107 -67.3 107 -69 107 C-69.226875 107.598125 -69.45375 108.19625 -69.6875 108.8125 C-71.37944501 111.63240835 -73.05153881 112.59597086 -76 114 C-77.32 114 -78.64 114 -80 114 C-80.66 112.35 -81.32 110.7 -82 109 C-82.53625 109.28875 -83.0725 109.5775 -83.625 109.875 C-86.35628186 111.16876509 -89.12251806 112.0816547 -92 113 C-93.485 113.495 -93.485 113.495 -95 114 C-95.66 112.35 -96.32 110.7 -97 109 C-96.0925 108.71125 -95.185 108.4225 -94.25 108.125 C-91.67797092 107.23468224 -89.38653234 106.28505587 -87 105 C-86.67 105.33 -86.34 105.66 -86 106 C-85.938125 105.38125 -85.87625 104.7625 -85.8125 104.125 C-85 102 -85 102 -82.4375 100.75 C-81.633125 100.5025 -80.82875 100.255 -80 100 C-79.34 101.65 -78.68 103.3 -78 105 C-78.33 105.33 -78.66 105.66 -79 106 C-76.69 106.33 -74.38 106.66 -72 107 C-71.67 105.02 -71.34 103.04 -71 101 C-69.02 100.34 -67.04 99.68 -65 99 C-75.89 99 -86.78 99 -98 99 C-97.34 99.33 -96.68 99.66 -96 100 C-95.375 102.5625 -95.375 102.5625 -95 105 C-96.0725 105.4125 -97.145 105.825 -98.25 106.25 C-101.5610668 107.64904231 -103.49706039 109.41075213 -106 112 C-108.25 112.75 -108.25 112.75 -110 113 C-111.125 108.25 -111.125 108.25 -110 106 C-112.64 106.33 -115.28 106.66 -118 107 C-118.495 108.485 -118.495 108.485 -119 110 C-119.33 110 -119.66 110 -120 110 C-120.433125 110.474375 -120.86625 110.94875 -121.3125 111.4375 C-123.2908348 113.26929148 -124.29467439 113.91802044 -127 114 C-129.125 112.125 -129.125 112.125 -131 110 C-131.99 109.505 -131.99 109.505 -133 109 C-133.495 110.485 -133.495 110.485 -134 112 C-134.78375 111.979375 -135.5675 111.95875 -136.375 111.9375 C-138.98114961 111.81315937 -138.98114961 111.81315937 -141 113 C-141 112.34 -141 111.68 -141 111 C-141.99 111 -142.98 111 -144 111 C-144 110.01 -144 109.02 -144 108 C-143.34 108 -142.68 108 -142 108 C-142 108.66 -142 109.32 -142 110 C-141.34 110 -140.68 110 -140 110 C-140 109.34 -140 108.68 -140 108 C-139.21625 107.7525 -138.4325 107.505 -137.625 107.25 C-134.67682892 105.84610901 -134.0975223 104.99324263 -133 102 C-132.34 102 -131.68 102 -131 102 C-132.70828921 99.89366282 -133.52148416 99.06198392 -136.26171875 98.70703125 C-137.46248047 98.75923828 -137.46248047 98.75923828 -138.6875 98.8125 C-139.49574219 98.83957031 -140.30398437 98.86664063 -141.13671875 98.89453125 C-142.05904297 98.94673828 -142.05904297 98.94673828 -143 99 C-143.33 100.98 -143.66 102.96 -144 105 C-144.99 104.34 -145.98 103.68 -147 103 C-146.67 104.32 -146.34 105.64 -146 107 C-147.65 107 -149.3 107 -151 107 C-151.226875 107.61875 -151.45375 108.2375 -151.6875 108.875 C-153 111 -153 111 -155.375 112.4375 C-158 113 -158 113 -160.25 111.8125 C-162 110 -162 110 -163 107 C-163.309375 107.598125 -163.61875 108.19625 -163.9375 108.8125 C-167.01178179 112.0731019 -170.76009264 112.8266923 -175 114 C-175.38218767 112.34385343 -175.71395102 110.67542976 -176 109 C-175.505 108.505 -175.505 108.505 -175 108 C-176.98 107.67 -178.96 107.34 -181 107 C-180.64950425 103.75791433 -180.43778819 102.38472296 -177.9375 100.1875 C-176.9784375 99.5996875 -176.9784375 99.5996875 -176 99 C-176.99 98.34 -177.98 97.68 -179 97 C-178.32533691 97.00523682 -177.65067383 97.01047363 -176.95556641 97.01586914 C-173.8453874 97.03688746 -170.73522342 97.04973824 -167.625 97.0625 C-166.03365234 97.07506836 -166.03365234 97.07506836 -164.41015625 97.08789062 C-157.87327796 97.1079424 -151.48825176 96.8058078 -145 96 C-145.33 95.01 -145.66 94.02 -146 93 C-147.27875 93.185625 -148.5575 93.37125 -149.875 93.5625 C-153.75 94.125 -153.75 94.125 -156 93 C-158.2072923 92.92907158 -160.41667452 92.91584975 -162.625 92.9375 C-164.40777344 92.95103516 -164.40777344 92.95103516 -166.2265625 92.96484375 C-167.59941406 92.98224609 -167.59941406 92.98224609 -169 93 C-169 90.69 -169 88.38 -169 86 C-172.465 86.99 -172.465 86.99 -176 88 C-176 87.34 -176 86.68 -176 86 C-171.60101313 84.12635744 -167.97108058 82.87757305 -163.1875 82.625 C-159.1960528 82.34848408 -156.67499493 81.43136586 -153.1875 79.5 C-145.38253088 75.57495773 -136.53200728 76.17769584 -127.98022461 76.12597656 C-125.92386507 76.12423466 -125.92386507 76.12423466 -124 75 C-120.70015955 75.00739875 -117.41379441 75.07597569 -114.1171875 75.21484375 C-109.23885966 75.31458651 -106.3520487 74.399844 -102 72 C-99.875 71.671875 -99.875 71.671875 -98 71.75 C-97.3296875 71.77578125 -96.659375 71.8015625 -95.96875 71.828125 C-93.27874962 72.0629663 -90.64687074 72.47062585 -88 73 C-87.5359375 71.824375 -87.5359375 71.824375 -87.0625 70.625 C-86 68 -86 68 -85 66 C-82.03 66.33 -79.06 66.66 -76 67 C-75.01 65.02 -74.02 63.04 -73 61 C-74.85516235 61.00785522 -74.85516235 61.00785522 -76.74780273 61.01586914 C-81.31924725 61.03391561 -85.89068859 61.04543071 -90.4621582 61.05493164 C-92.44393441 61.05997267 -94.42570689 61.06680538 -96.4074707 61.07543945 C-99.24952109 61.08751515 -102.09152247 61.09323045 -104.93359375 61.09765625 C-106.27108925 61.10539818 -106.27108925 61.10539818 -107.63560486 61.11329651 C-109.75740601 61.11349177 -111.8791078 61.0621003 -114 61 C-114.33 60.67 -114.66 60.34 -115 60 C-119.32706311 59.74324582 -123.66830933 59.9000976 -128 60 C-128.81758789 60.01788574 -129.63517578 60.03577148 -130.47753906 60.05419922 C-133.13179303 60.12186442 -135.78422971 60.21382566 -138.4375 60.3125 C-139.28932861 60.33489746 -140.14115723 60.35729492 -141.01879883 60.38037109 C-146.16478267 60.60452847 -149.38968218 61.57083944 -154 64 C-157.3671875 64.44140625 -157.3671875 64.44140625 -160.875 64.5625 C-166.21274733 64.83391088 -170.89038604 65.46711581 -176 67 C-176 66.34 -176 65.68 -176 65 C-171.82255322 63.04890567 -167.78508422 62.50512934 -163.25 62.0625 C-157.13822768 61.39411211 -151.75657253 60.26151064 -146 58 C-146.515625 57.05125 -147.03125 56.1025 -147.5625 55.125 C-148.036875 54.09375 -148.51125 53.0625 -149 52 C-148.505 51.01 -148.505 51.01 -148 50 C-144.9375 49.375 -144.9375 49.375 -142 49 C-141.67 49.66 -141.34 50.32 -141 51 C-140.34 51 -139.68 51 -139 51 C-138.505 50.01 -138.505 50.01 -138 49 C-137.34 49.66 -136.68 50.32 -136 51 C-134.23525035 50.68636625 -134.23525035 50.68636625 -132 50 C-129.33088444 49.55774888 -126.69711402 49.2652899 -124 49 C-123.67 49.33 -123.34 49.66 -123 50 C-121.00577205 50.36628677 -119.00546689 50.70131344 -117 51 C-117 51.99 -117 52.98 -117 54 C-121.94992497 55.07025405 -126.67407003 55.04617393 -131.70703125 54.9375 C-133.96528543 54.73609288 -133.96528543 54.73609288 -135 56 C-133.06447266 56.09087891 -133.06447266 56.09087891 -131.08984375 56.18359375 C-129.37238745 56.26805881 -127.65493998 56.35270377 -125.9375 56.4375 C-124.66616211 56.49647461 -124.66616211 56.49647461 -123.36914062 56.55664062 C-119.53912324 56.74888088 -115.88750854 57.01891748 -112.09765625 57.65625 C-108.87296991 58.01409666 -108.00454377 57.96007525 -105.5 56.0625 C-101.94747019 53.74493541 -99.26731701 53.4979627 -95 54 C-94.34 54.66 -93.68 55.32 -93 56 C-90.93125966 56.6425235 -90.93125966 56.6425235 -89 57 C-89 56.34 -89 55.68 -89 55 C-87.0625 52.875 -87.0625 52.875 -84 51 C-81.98046875 51.09375 -81.98046875 51.09375 -79.75 51.375 C-77.36900808 51.61773569 -77.36900808 51.61773569 -75 51 C-72.46727499 48.64631245 -70.4143304 46.08119249 -68.24609375 43.390625 C-65.40871273 40.37066468 -63.25170514 39.84124675 -59.33984375 38.90625 C-55.19511902 37.3009476 -52.3185254 34.10790789 -49.1640625 31.05859375 C-47 29 -47 29 -44 27 C-42.845 27.144375 -41.69 27.28875 -40.5 27.4375 C-34.86154213 27.6237243 -31.71435975 23.83181699 -27.7109375 20.2890625 C-25.37825798 18.31939363 -23.40415102 17.01047875 -20.6875 15.6875 C-14.711762 12.63444113 -9.93089526 7.96431184 -4.94140625 3.546875 C-2 1 -2 1 0 0 Z " fill="#EDEDED" transform="translate(216,55)"/>
<path d="M0 0 C0.66 0 1.32 0 2 0 C2 0.66 2 1.32 2 2 C2.99 2.33 3.98 2.66 5 3 C4.625 4.9375 4.625 4.9375 4 7 C3.01 7.495 3.01 7.495 2 8 C1.32624548 10.088639 1 11.80363095 1 14 C1.33 13.34 1.66 12.68 2 12 C4.32156597 11.59270772 6.6568787 11.25561323 9 11 C8.814375 10.071875 8.62875 9.14375 8.4375 8.1875 C8 5 8 5 9 2 C13.29 2 17.58 2 22 2 C22 1.34 22 0.68 22 0 C22.66 0 23.32 0 24 0 C24 1.98 24 3.96 24 6 C24.99 6 25.98 6 27 6 C27 4.35 27 2.7 27 1 C27.66 1 28.32 1 29 1 C29 1.66 29 2.32 29 3 C29.66 3 30.32 3 31 3 C31 2.34 31 1.68 31 1 C32.0725 1.350625 33.145 1.70125 34.25 2.0625 C38.2692582 3.13769028 38.2692582 3.13769028 42 2 C42.33 1.34 42.66 0.68 43 0 C43.66 0 44.32 0 45 0 C45 0.66 45 1.32 45 2 C45.99 1.67 46.98 1.34 48 1 C48.495 1.99 48.495 1.99 49 3 C48.67 3.66 48.34 4.32 48 5 C48.66 5 49.32 5 50 5 C50 3.35 50 1.7 50 0 C50.495 0.99 50.495 0.99 51 2 C54.47702387 2.09849127 54.47702387 2.09849127 57.875 1.46875 C60.34163124 0.92464017 62.25272121 1.10697781 64.75 1.4375 C65.54921875 1.53933594 66.3484375 1.64117187 67.171875 1.74609375 C67.77515625 1.82988281 68.3784375 1.91367188 69 2 C69 2.66 69 3.32 69 4 C69.33 3.34 69.66 2.68 70 2 C70.66 2 71.32 2 72 2 C72 2.99 72 3.98 72 5 C72.66 5 73.32 5 74 5 C74 4.01 74 3.02 74 2 C75.65 2 77.3 2 79 2 C78.67 3.65 78.34 5.3 78 7 C75.69 7.33 73.38 7.66 71 8 C70.67 9.65 70.34 11.3 70 13 C72.64 13 75.28 13 78 13 C78 14.65 78 16.3 78 18 C74.95151454 18.9305172 72.59231921 19.02001966 69.4375 18.625 C68.67308594 18.53476562 67.90867187 18.44453125 67.12109375 18.3515625 C65 18 65 18 62 17 C59.84072054 17.09538134 59.84072054 17.09538134 57.5625 17.4375 C52.50854308 18.11307123 48.02058983 17.91283451 43 17 C42.505 15.02 42.505 15.02 42 13 C40.55245745 14.44754255 40.44266439 16.03962913 40 18 C39.360625 18.103125 38.72125 18.20625 38.0625 18.3125 C37.381875 18.539375 36.70125 18.76625 36 19 C35.505 20.485 35.505 20.485 35 22 C34.01 22.33 33.02 22.66 32 23 C30.5 21.625 30.5 21.625 29 20 C29 19.34 29 18.68 29 18 C26.10765685 17.17361624 24.11257569 17 21 17 C20.67 16.34 20.34 15.68 20 15 C19.34 15 18.68 15 18 15 C18 15.99 18 16.98 18 18 C17.34 18 16.68 18 16 18 C15.67 17.34 15.34 16.68 15 16 C14.401875 16.33 13.80375 16.66 13.1875 17 C8.57744658 19.10745299 2.7121435 17.93149074 -2.25 17.5 C-3.86648438 17.36078125 -3.86648438 17.36078125 -5.515625 17.21875 C-6.33546875 17.1465625 -7.1553125 17.074375 -8 17 C-8.125 14.625 -8.125 14.625 -8 12 C-7.34 11.34 -6.68 10.68 -6 10 C-6.515625 9.62875 -7.03125 9.2575 -7.5625 8.875 C-9 7 -9 7 -8.6875 3.8125 C-8.460625 2.884375 -8.23375 1.95625 -8 1 C-7.34 1 -6.68 1 -6 1 C-6 1.66 -6 2.32 -6 3 C-4.02 2.67 -2.04 2.34 0 2 C0 1.34 0 0.68 0 0 Z " fill="#DBDBDB" transform="translate(19,8)"/>
<path d="M0 0 C0.99 0.495 0.99 0.495 2 1 C1.16855469 1.66386719 0.33710938 2.32773437 -0.51953125 3.01171875 C-1.61751433 3.90324347 -2.71515244 4.79519316 -3.8125 5.6875 C-4.35970703 6.12255859 -4.90691406 6.55761719 -5.47070312 7.00585938 C-8.80299798 9.73228244 -10.84994831 12.31327473 -13 16 C-13.99 16.33 -14.98 16.66 -16 17 C-16.3403125 18.11375 -16.3403125 18.11375 -16.6875 19.25 C-18.63063397 23.32132832 -22.01933412 25.05113233 -26 27 C-26.66 27 -27.32 27 -28 27 C-28.33 27.99 -28.66 28.98 -29 30 C-32.39289073 33.64735753 -32.39289073 33.64735753 -35 35 C-37.1171875 34.96875 -37.1171875 34.96875 -39.375 34.6875 C-41.71174098 34.4325209 -41.71174098 34.4325209 -44 35 C-46.39577711 37.267115 -48.18203896 39.70485454 -50.09765625 42.38671875 C-53.54571114 47.1233691 -57.21525036 50.26148291 -62.625 52.5 C-67.77236863 54.78771939 -69.89791815 58.34687723 -73 63 C-73 62.34 -73 61.68 -73 61 C-74.85516235 61.00785522 -74.85516235 61.00785522 -76.74780273 61.01586914 C-81.31924725 61.03391561 -85.89068859 61.04543071 -90.4621582 61.05493164 C-92.44393441 61.05997267 -94.42570689 61.06680538 -96.4074707 61.07543945 C-99.24952109 61.08751515 -102.09152247 61.09323045 -104.93359375 61.09765625 C-106.27108925 61.10539818 -106.27108925 61.10539818 -107.63560486 61.11329651 C-109.75740601 61.11349177 -111.8791078 61.0621003 -114 61 C-114.33 60.67 -114.66 60.34 -115 60 C-119.32706311 59.74324582 -123.66830933 59.9000976 -128 60 C-128.81758789 60.01788574 -129.63517578 60.03577148 -130.47753906 60.05419922 C-133.13179303 60.12186442 -135.78422971 60.21382566 -138.4375 60.3125 C-139.28932861 60.33489746 -140.14115723 60.35729492 -141.01879883 60.38037109 C-146.16478267 60.60452847 -149.38968218 61.57083944 -154 64 C-157.3671875 64.44140625 -157.3671875 64.44140625 -160.875 64.5625 C-166.21274733 64.83391088 -170.89038604 65.46711581 -176 67 C-176 66.34 -176 65.68 -176 65 C-171.82255322 63.04890567 -167.78508422 62.50512934 -163.25 62.0625 C-157.13822768 61.39411211 -151.75657253 60.26151064 -146 58 C-146.515625 57.05125 -147.03125 56.1025 -147.5625 55.125 C-148.036875 54.09375 -148.51125 53.0625 -149 52 C-148.67 51.34 -148.34 50.68 -148 50 C-144.9375 49.375 -144.9375 49.375 -142 49 C-141.67 49.66 -141.34 50.32 -141 51 C-140.34 51 -139.68 51 -139 51 C-138.505 50.01 -138.505 50.01 -138 49 C-137.34 49.66 -136.68 50.32 -136 51 C-134.23525035 50.68636625 -134.23525035 50.68636625 -132 50 C-129.33088444 49.55774888 -126.69711402 49.2652899 -124 49 C-123.67 49.33 -123.34 49.66 -123 50 C-121.00577205 50.36628677 -119.00546689 50.70131344 -117 51 C-117 51.99 -117 52.98 -117 54 C-121.94992497 55.07025405 -126.67407003 55.04617393 -131.70703125 54.9375 C-133.96528543 54.73609288 -133.96528543 54.73609288 -135 56 C-133.06447266 56.09087891 -133.06447266 56.09087891 -131.08984375 56.18359375 C-129.37238745 56.26805881 -127.65493998 56.35270377 -125.9375 56.4375 C-124.66616211 56.49647461 -124.66616211 56.49647461 -123.36914062 56.55664062 C-119.53912324 56.74888088 -115.88750854 57.01891748 -112.09765625 57.65625 C-108.87296991 58.01409666 -108.00454377 57.96007525 -105.5 56.0625 C-101.94747019 53.74493541 -99.26731701 53.4979627 -95 54 C-94.34 54.66 -93.68 55.32 -93 56 C-90.93125966 56.6425235 -90.93125966 56.6425235 -89 57 C-89 56.34 -89 55.68 -89 55 C-87.0625 52.875 -87.0625 52.875 -84 51 C-81.98046875 51.09375 -81.98046875 51.09375 -79.75 51.375 C-77.36900808 51.61773569 -77.36900808 51.61773569 -75 51 C-72.46727499 48.64631245 -70.4143304 46.08119249 -68.24609375 43.390625 C-65.40871273 40.37066468 -63.25170514 39.84124675 -59.33984375 38.90625 C-55.19511902 37.3009476 -52.3185254 34.10790789 -49.1640625 31.05859375 C-47 29 -47 29 -44 27 C-42.845 27.144375 -41.69 27.28875 -40.5 27.4375 C-34.86154213 27.6237243 -31.71435975 23.83181699 -27.7109375 20.2890625 C-25.37825798 18.31939363 -23.40415102 17.01047875 -20.6875 15.6875 C-14.711762 12.63444113 -9.93089526 7.96431184 -4.94140625 3.546875 C-2 1 -2 1 0 0 Z " fill="#F4F6F7" transform="translate(216,55)"/>
<path d="M0 0 C0.99 0.495 0.99 0.495 2 1 C-5.9438068 8.13883438 -13.55535558 14.89526752 -23 20 C-26.51704837 22.16433746 -29.15159246 24.14681628 -31.8125 27.25 C-33.328125 28.84765625 -33.328125 28.84765625 -35 30 C-36.921875 29.99609375 -36.921875 29.99609375 -39.0625 29.6875 C-42.859881 29.37424803 -43.95646459 29.96808495 -47.1171875 32.28515625 C-48.8111989 33.76060174 -50.46358935 35.27410558 -52.11352539 36.79858398 C-56.14520718 40.46702988 -59.70335502 42.33440472 -64.91015625 44.0390625 C-68.56598016 45.72005817 -69.94170245 48.63187673 -72 52 C-75.25509844 54.17006563 -75.77471473 54.15912837 -79.4375 53.875 C-83.21573667 53.68913936 -83.21573667 53.68913936 -86.1875 56 C-86.785625 56.66 -87.38375 57.32 -88 58 C-91.1875 58.3125 -91.1875 58.3125 -94 58 C-94.33 57.67 -94.66 57.34 -95 57 C-99.02977493 56.69096341 -99.02977493 56.69096341 -103 57 C-103.55042969 57.49757812 -104.10085937 57.99515625 -104.66796875 58.5078125 C-108.39565987 60.89303529 -112.17945076 60.26470076 -116.5 60.125 C-118.38666496 60.09645167 -120.27339255 60.07181487 -122.16015625 60.05078125 C-123.12453613 60.03869629 -124.08891602 60.02661133 -125.08251953 60.01416016 C-129.70687435 59.99171559 -134.31754263 60.12144263 -138.9375 60.3125 C-139.75863281 60.33521973 -140.57976562 60.35793945 -141.42578125 60.38134766 C-146.4098668 60.60799108 -149.52530843 61.6680325 -154 64 C-157.3671875 64.44140625 -157.3671875 64.44140625 -160.875 64.5625 C-166.21274733 64.83391088 -170.89038604 65.46711581 -176 67 C-176 66.34 -176 65.68 -176 65 C-171.82255322 63.04890567 -167.78508422 62.50512934 -163.25 62.0625 C-157.13822768 61.39411211 -151.75657253 60.26151064 -146 58 C-146.515625 57.05125 -147.03125 56.1025 -147.5625 55.125 C-148.036875 54.09375 -148.51125 53.0625 -149 52 C-148.67 51.34 -148.34 50.68 -148 50 C-144.9375 49.375 -144.9375 49.375 -142 49 C-141.67 49.66 -141.34 50.32 -141 51 C-140.34 51 -139.68 51 -139 51 C-138.505 50.01 -138.505 50.01 -138 49 C-137.34 49.66 -136.68 50.32 -136 51 C-134.23525035 50.68636625 -134.23525035 50.68636625 -132 50 C-129.33088444 49.55774888 -126.69711402 49.2652899 -124 49 C-123.67 49.33 -123.34 49.66 -123 50 C-121.00577205 50.36628677 -119.00546689 50.70131344 -117 51 C-117 51.99 -117 52.98 -117 54 C-121.94992497 55.07025405 -126.67407003 55.04617393 -131.70703125 54.9375 C-133.96528543 54.73609288 -133.96528543 54.73609288 -135 56 C-133.06447266 56.09087891 -133.06447266 56.09087891 -131.08984375 56.18359375 C-129.37238745 56.26805881 -127.65493998 56.35270377 -125.9375 56.4375 C-124.66616211 56.49647461 -124.66616211 56.49647461 -123.36914062 56.55664062 C-119.53912324 56.74888088 -115.88750854 57.01891748 -112.09765625 57.65625 C-108.87296991 58.01409666 -108.00454377 57.96007525 -105.5 56.0625 C-101.94747019 53.74493541 -99.26731701 53.4979627 -95 54 C-94.34 54.66 -93.68 55.32 -93 56 C-90.93125966 56.6425235 -90.93125966 56.6425235 -89 57 C-89 56.34 -89 55.68 -89 55 C-87.0625 52.875 -87.0625 52.875 -84 51 C-81.98046875 51.09375 -81.98046875 51.09375 -79.75 51.375 C-77.36900808 51.61773569 -77.36900808 51.61773569 -75 51 C-72.46727499 48.64631245 -70.4143304 46.08119249 -68.24609375 43.390625 C-65.40871273 40.37066468 -63.25170514 39.84124675 -59.33984375 38.90625 C-55.19511902 37.3009476 -52.3185254 34.10790789 -49.1640625 31.05859375 C-47 29 -47 29 -44 27 C-42.845 27.144375 -41.69 27.28875 -40.5 27.4375 C-34.86154213 27.6237243 -31.71435975 23.83181699 -27.7109375 20.2890625 C-25.37825798 18.31939363 -23.40415102 17.01047875 -20.6875 15.6875 C-14.711762 12.63444113 -9.93089526 7.96431184 -4.94140625 3.546875 C-2 1 -2 1 0 0 Z " fill="#CDCED2" transform="translate(216,55)"/>
<path d="M0 0 C0.66 0 1.32 0 2 0 C2 1.32 2 2.64 2 4 C2.66 4 3.32 4 4 4 C4 3.34 4 2.68 4 2 C7.18824568 0.40587716 10.62896662 0.89825265 14.125 0.9375 C14.87910156 0.94201172 15.63320312 0.94652344 16.41015625 0.95117188 C18.27347127 0.96296501 20.13674555 0.98090058 22 1 C22 2.32 22 3.64 22 5 C19.06279492 6.52299523 16.0831351 7.80100302 13 9 C13 9.66 13 10.32 13 11 C13.99 11 14.98 11 16 11 C16.25 13.25 16.25 13.25 16 16 C14 18.3125 14 18.3125 12 20 C11.071875 19.319375 10.14375 18.63875 9.1875 17.9375 C8.135625 17.298125 7.08375 16.65875 6 16 C5.01 16.33 4.02 16.66 3 17 C-0.68382769 17.13156527 -3.49053585 17.16982138 -7 16 C-11.47878512 15.83098924 -15.60355264 16.14215661 -20 17 C-20.33 16.01 -20.66 15.02 -21 14 C-20.34 13.01 -19.68 12.02 -19 11 C-19 12.32 -19 13.64 -19 15 C-18.34 15 -17.68 15 -17 15 C-17 12.36 -17 9.72 -17 7 C-18.65 6.67 -20.3 6.34 -22 6 C-22 4.35 -22 2.7 -22 1 C-19.02077407 0.97316013 -16.04178705 0.95323963 -13.0625 0.9375 C-11.78729492 0.92493164 -11.78729492 0.92493164 -10.48632812 0.91210938 C-9.67744141 0.90888672 -8.86855469 0.90566406 -8.03515625 0.90234375 C-7.2862915 0.89710693 -6.53742676 0.89187012 -5.76586914 0.88647461 C-4 1 -4 1 -3 2 C-2.95834237 3.99956611 -2.95834237 6.00043389 -3 8 C-3 8.33 -3 8.66 -3 9 C-0.1668838 10.62507196 -0.1668838 10.62507196 3 12 C6.0745356 11.2236068 6.0745356 11.2236068 8 9 C8 8.01 8 7.02 8 6 C7.13375 6.2784375 7.13375 6.2784375 6.25 6.5625 C3.79307475 7.04023546 2.35602466 6.75729364 0 6 C0 4.02 0 2.04 0 0 Z " fill="#F0F0F0" transform="translate(121,9)"/>
<path d="M0 0 C0 3 0 3 -1.4375 5.1875 C-4.41370529 7.29262082 -4.92628347 7.05970549 -8.375 6.6875 C-10.75283981 6.47121526 -10.75283981 6.47121526 -13 7 C-14.92290942 9.04421445 -16.15619495 11.17959117 -17.546875 13.61328125 C-20.59563031 18.62077989 -24.95173578 21.61461024 -30.1875 24.0625 C-33.8741733 25.8032325 -35.69927712 27.54891568 -38 31 C-38.51820313 31.76570313 -39.03640625 32.53140625 -39.5703125 33.3203125 C-41.06381178 35.53624864 -42.53802928 37.7631848 -44 40 C-46.97 39.67 -49.94 39.34 -53 39 C-53.556875 40.485 -53.556875 40.485 -54.125 42 C-55.203125 43.67578125 -55.203125 43.67578125 -57 45 C-60.56517976 45.32929616 -63.92362947 45.18387642 -67.4921875 44.91796875 C-71.49290202 45.01152666 -73.47480049 46.21212176 -77 48 C-80.34765625 48.2578125 -80.34765625 48.2578125 -84.0625 48.125 C-85.47389271 48.09901522 -86.88536439 48.07709759 -88.296875 48.05859375 C-89.05033203 48.04683105 -89.80378906 48.03506836 -90.58007812 48.02294922 C-107.17731444 47.59888344 -107.17731444 47.59888344 -122.625 52.7890625 C-126.53033415 54.78026906 -130.6942311 55.3742158 -135 56 C-134.67 56.99 -134.34 57.98 -134 59 C-129.05 59 -124.1 59 -119 59 C-118.67 58.34 -118.34 57.68 -118 57 C-117.67 57.66 -117.34 58.32 -117 59 C-111.39 59 -105.78 59 -100 59 C-100.33 59.99 -100.66 60.98 -101 62 C-103.35499617 62 -105.71190524 61.95641396 -108.0625 61.8125 C-111.01630415 61.71902982 -111.01630415 61.71902982 -112.875 63.5 C-113.431875 64.2425 -113.431875 64.2425 -114 65 C-114.33 64.34 -114.66 63.68 -115 63 C-116.27875 63.185625 -117.5575 63.37125 -118.875 63.5625 C-122.75 64.125 -122.75 64.125 -125 63 C-127.2072923 62.92907158 -129.41667452 62.91584975 -131.625 62.9375 C-133.40777344 62.95103516 -133.40777344 62.95103516 -135.2265625 62.96484375 C-136.14179688 62.97644531 -137.05703125 62.98804688 -138 63 C-138 60.69 -138 58.38 -138 56 C-140.31 56.66 -142.62 57.32 -145 58 C-145 57.34 -145 56.68 -145 56 C-140.60101313 54.12635744 -136.97108058 52.87757305 -132.1875 52.625 C-128.1960528 52.34848408 -125.67499493 51.43136586 -122.1875 49.5 C-114.38253088 45.57495773 -105.53200728 46.17769584 -96.98022461 46.12597656 C-94.92386507 46.12423466 -94.92386507 46.12423466 -93 45 C-89.70015955 45.00739875 -86.41379441 45.07597569 -83.1171875 45.21484375 C-78.23885966 45.31458651 -75.3520487 44.399844 -71 42 C-68.875 41.671875 -68.875 41.671875 -67 41.75 C-65.99453125 41.78867188 -65.99453125 41.78867188 -64.96875 41.828125 C-62.27874962 42.0629663 -59.64687074 42.47062585 -57 43 C-56.690625 42.21625 -56.38125 41.4325 -56.0625 40.625 C-55 38 -55 38 -54 36 C-51.03 36.33 -48.06 36.66 -45 37 C-44.34 35.68 -43.68 34.36 -43 33 C-42.34 33 -41.68 33 -41 33 C-40.8865625 32.4121875 -40.773125 31.824375 -40.65625 31.21875 C-39.5057488 27.32896023 -37.00673269 24.65447949 -34 22 C-31.8828125 20.9765625 -31.8828125 20.9765625 -29.625 20.125 C-22.93694 17.51970176 -18.81395274 11.86721562 -15.0625 5.9375 C-13 4 -13 4 -10.90234375 3.84375 C-9.31029657 3.90587867 -7.7188868 3.98768684 -6.12890625 4.08984375 C-3.73867235 4.19566009 -3.73867235 4.19566009 -1.4375 2 C-0.963125 1.34 -0.48875 0.68 0 0 Z " fill="#ABABAD" transform="translate(185,85)"/>
<path d="M0 0 C1.59134766 0.00676758 1.59134766 0.00676758 3.21484375 0.01367188 C5.80995598 0.02536157 8.40494709 0.04174724 11 0.0625 C11 0.7225 11 1.3825 11 2.0625 C9.02 2.0625 7.04 2.0625 5 2.0625 C6.98 2.3925 8.96 2.7225 11 3.0625 C11.495 6.0325 11.495 6.0325 12 9.0625 C11.34 9.0625 10.68 9.0625 10 9.0625 C10 7.7425 10 6.4225 10 5.0625 C9.34 5.0625 8.68 5.0625 8 5.0625 C8 6.3825 8 7.7025 8 9.0625 C7.34 9.0625 6.68 9.0625 6 9.0625 C6 7.7425 6 6.4225 6 5.0625 C5.34 5.0625 4.68 5.0625 4 5.0625 C4.33 6.3825 4.66 7.7025 5 9.0625 C-3.66666667 9.0625 -12.33333333 9.0625 -21 9.0625 C-21.33 7.7425 -21.66 6.4225 -22 5.0625 C-22.99 5.0625 -23.98 5.0625 -25 5.0625 C-24.67 6.3825 -24.34 7.7025 -24 9.0625 C-24.66 9.0625 -25.32 9.0625 -26 9.0625 C-26.33 7.0825 -26.66 5.1025 -27 3.0625 C-24.03 3.5575 -24.03 3.5575 -21 4.0625 C-20.67 3.0725 -20.34 2.0825 -20 1.0625 C-13.30139078 0.03999595 -6.7684802 -0.05506273 0 0 Z " fill="#ABABAB" transform="translate(236,181.9375)"/>
<path d="M0 0 C7.59 0 15.18 0 23 0 C23 0.33 23 0.66 23 1 C18.545 1.495 18.545 1.495 14 2 C15.65 2.99 17.3 3.98 19 5 C18.67 5.99 18.34 6.98 18 8 C17.67 7.67 17.34 7.34 17 7 C16.67 7.99 16.34 8.98 16 10 C14.67696283 10.3721042 13.34262065 10.70630173 12 11 C11.67 11.66 11.34 12.32 11 13 C6.5 16 6.5 16 4 16 C3.67 15.01 3.34 14.02 3 13 C1.09821215 12.39938767 1.09821215 12.39938767 -1 12 C-1.99 11.34 -2.98 10.68 -4 10 C-3.67 10.99 -3.34 11.98 -3 13 C-3.78375 13.28875 -4.5675 13.5775 -5.375 13.875 C-8.09671632 14.84912254 -8.09671632 14.84912254 -10 17 C-10.99 17 -11.98 17 -13 17 C-13.33 15.35 -13.66 13.7 -14 12 C-12.73160474 11.49384702 -11.46016898 10.99530901 -10.1875 10.5 C-9.47980469 10.2215625 -8.77210938 9.943125 -8.04296875 9.65625 C-6 9 -6 9 -3 9 C-3 7.68 -3 6.36 -3 5 C-1 6 -1 6 0 7 C0 5.68 0 4.36 0 3 C0.66 3 1.32 3 2 3 C2 2.34 2 1.68 2 1 C1.34 0.67 0.68 0.34 0 0 Z " fill="#F3F3F3" transform="translate(197,152)"/>
<path d="M0 0 C0.99 0.495 0.99 0.495 2 1 C-5.9438068 8.13883438 -13.55535558 14.89526752 -23 20 C-26.51704837 22.16433746 -29.15159246 24.14681628 -31.8125 27.25 C-33.328125 28.84765625 -33.328125 28.84765625 -35 30 C-36.921875 29.99609375 -36.921875 29.99609375 -39.0625 29.6875 C-42.859881 29.37424803 -43.95646459 29.96808495 -47.1171875 32.28515625 C-48.8111989 33.76060174 -50.46358935 35.27410558 -52.11352539 36.79858398 C-56.14520718 40.46702988 -59.70335502 42.33440472 -64.91015625 44.0390625 C-68.56598016 45.72005817 -69.94170245 48.63187673 -72 52 C-75.25509844 54.17006563 -75.77471473 54.15912837 -79.4375 53.875 C-83.21573667 53.68913936 -83.21573667 53.68913936 -86.1875 56 C-86.785625 56.66 -87.38375 57.32 -88 58 C-91.1875 58.3125 -91.1875 58.3125 -94 58 C-94.495 57.505 -94.495 57.505 -95 57 C-100.36170653 56.42009099 -100.36170653 56.42009099 -105 58.5 C-108.10125463 60.82594098 -111.31443971 60.40435104 -115 60 C-117.72331004 59.45811688 -120.32566767 58.76409495 -123 58 C-123 57.67 -123 57.34 -123 57 C-119.3329925 56.92516311 -116.0983681 56.97892112 -112.5 57.75 C-108.34399178 58.04685773 -107.11395498 57.11539614 -103.76953125 54.93359375 C-100.83306134 53.38433038 -98.21812676 53.62139685 -95 54 C-94.34 54.66 -93.68 55.32 -93 56 C-90.93125966 56.6425235 -90.93125966 56.6425235 -89 57 C-89 56.34 -89 55.68 -89 55 C-87.0625 52.875 -87.0625 52.875 -84 51 C-81.98046875 51.09375 -81.98046875 51.09375 -79.75 51.375 C-77.36900808 51.61773569 -77.36900808 51.61773569 -75 51 C-72.46727499 48.64631245 -70.4143304 46.08119249 -68.24609375 43.390625 C-65.40871273 40.37066468 -63.25170514 39.84124675 -59.33984375 38.90625 C-55.19511902 37.3009476 -52.3185254 34.10790789 -49.1640625 31.05859375 C-47 29 -47 29 -44 27 C-42.845 27.144375 -41.69 27.28875 -40.5 27.4375 C-34.86154213 27.6237243 -31.71435975 23.83181699 -27.7109375 20.2890625 C-25.37825798 18.31939363 -23.40415102 17.01047875 -20.6875 15.6875 C-14.711762 12.63444113 -9.93089526 7.96431184 -4.94140625 3.546875 C-2 1 -2 1 0 0 Z " fill="#43444C" transform="translate(216,55)"/>
<path d="M0 0 C0.99 1.98 0.99 1.98 2 4 C1.32582031 4.53109375 0.65164062 5.0621875 -0.04296875 5.609375 C-3.52458766 8.42410522 -6.91993368 11.32910871 -10.3125 14.25 C-11.28026367 15.08144531 -11.28026367 15.08144531 -12.26757812 15.9296875 C-13.84570065 17.2857039 -15.42294063 18.64274728 -17 20 C-17.99 18.515 -17.99 18.515 -19 17 C-18.01 16.505 -18.01 16.505 -17 16 C-16.34 15.01 -15.68 14.02 -15 13 C-14.01 13.495 -14.01 13.495 -13 14 C-12.67 13.01 -12.34 12.02 -12 11 C-67.11 10.67 -122.22 10.34 -179 10 C-179 9.67 -179 9.34 -179 9 C-124.88 9 -70.76 9 -15 9 C-14.67 8.34 -14.34 7.68 -14 7 C-14 7.66 -14 8.32 -14 9 C-8.49793426 9.09408231 -8.49793426 9.09408231 -4.1328125 6.15234375 C-2.65544969 4.14836118 -1.28279197 2.13312756 0 0 Z " fill="#E2E2E2" transform="translate(216,50)"/>
<path d="M0 0 C4.46839215 -0.21278058 7.82262526 0.40861915 12 2 C12 2.66 12 3.32 12 4 C12.99 4 13.98 4 15 4 C15.33 6.64 15.66 9.28 16 12 C9 12 2 12 -5 12 C-5.33 11.34 -5.66 10.68 -6 10 C-6.33 10.66 -6.66 11.32 -7 12 C-7.66 12 -8.32 12 -9 12 C-9.99 9.36 -10.98 6.72 -12 4 C-11.01 4 -10.02 4 -9 4 C-8.67 4.99 -8.34 5.98 -8 7 C-7.67 6.01 -7.34 5.02 -7 4 C-3.535 3.505 -3.535 3.505 0 3 C0 2.01 0 1.02 0 0 Z " fill="#CFCFCF" transform="translate(193,179)"/>
<path d="M0 0 C0 0.99 0 1.98 0 3 C-0.61875 3.226875 -1.2375 3.45375 -1.875 3.6875 C-4.21630346 4.81694822 -4.21630346 4.81694822 -4.75 7.3125 C-6.63170737 11.35817086 -10.0676232 13.07477386 -14 15 C-14.66 15 -15.32 15 -16 15 C-16.33 15.99 -16.66 16.98 -17 18 C-19.05007172 20.2038271 -20.39025174 21.64075612 -23 23 C-25.1875 23.0390625 -25.1875 23.0390625 -27.5 22.8125 C-29.82076162 22.54958806 -29.82076162 22.54958806 -32 23 C-33.67754684 24.78924817 -33.67754684 24.78924817 -35 27.0625 C-36.3828125 29.28515625 -36.3828125 29.28515625 -38 31 C-41.19450457 31.41644532 -43.92077392 30.87586875 -47 30 C-34.51395007 17.31021499 -34.51395007 17.31021499 -29.5625 16.69921875 C-28.07367098 16.85688988 -26.58536366 17.01957535 -25.09765625 17.1875 C-21.37880426 16.85508865 -19.66945981 13.91554833 -17.3203125 11.23828125 C-13.6497534 7.69748939 -9.27562881 5.69897957 -4.7578125 3.4453125 C-1.94940171 2.148117 -1.94940171 2.148117 0 0 Z " fill="#EEEFF2" transform="translate(204,67)"/>
<path d="M0 0 C0.66 0 1.32 0 2 0 C2 0.66 2 1.32 2 2 C2.99 2.33 3.98 2.66 5 3 C4.625 4.9375 4.625 4.9375 4 7 C3.01 7.495 3.01 7.495 2 8 C1.32624548 10.088639 1 11.80363095 1 14 C1.33 13.34 1.66 12.68 2 12 C5.96 12 9.92 12 14 12 C14 13.65 14 15.3 14 17 C8.75746847 18.74751051 3.19978605 17.97389444 -2.25 17.5 C-3.86648438 17.36078125 -3.86648438 17.36078125 -5.515625 17.21875 C-6.33546875 17.1465625 -7.1553125 17.074375 -8 17 C-8.125 14.625 -8.125 14.625 -8 12 C-7.34 11.34 -6.68 10.68 -6 10 C-6.515625 9.62875 -7.03125 9.2575 -7.5625 8.875 C-9 7 -9 7 -8.6875 3.8125 C-8.460625 2.884375 -8.23375 1.95625 -8 1 C-7.34 1 -6.68 1 -6 1 C-6 1.66 -6 2.32 -6 3 C-4.02 2.67 -2.04 2.34 0 2 C0 1.34 0 0.68 0 0 Z " fill="#B4B4B4" transform="translate(19,8)"/>
<path d="M0 0 C0.99 0.33 1.98 0.66 3 1 C3.75 3 3.75 3 4 5 C3.67 5.33 3.34 5.66 3 6 C5.31 6.33 7.62 6.66 10 7 C10.33 5.02 10.66 3.04 11 1 C14.05263664 0.01879536 15.94736336 0.01879536 19 1 C19.495 2.98 19.495 2.98 20 5 C17 7 17 7 13 7 C12.773125 7.598125 12.54625 8.19625 12.3125 8.8125 C10.62055499 11.63240835 8.94846119 12.59597086 6 14 C4.68 14 3.36 14 2 14 C1.34 12.35 0.68 10.7 0 9 C-0.804375 9.433125 -0.804375 9.433125 -1.625 9.875 C-4.35628186 11.16876509 -7.12251806 12.0816547 -10 13 C-10.99 13.33 -11.98 13.66 -13 14 C-13.66 12.35 -14.32 10.7 -15 9 C-14.0925 8.71125 -13.185 8.4225 -12.25 8.125 C-9.67797092 7.23468224 -7.38653234 6.28505587 -5 5 C-4.67 5.33 -4.34 5.66 -4 6 C-3.896875 5.38125 -3.79375 4.7625 -3.6875 4.125 C-3 2 -3 2 0 0 Z " fill="#EDEDED" transform="translate(134,155)"/>
<path d="M0 0 C0.99 0.33 1.98 0.66 3 1 C3 1.66 3 2.32 3 3 C4.65 2.34 6.3 1.68 8 1 C8 2.65 8 4.3 8 6 C7.01 6.33 6.02 6.66 5 7 C4.26676204 9.01508358 4.26676204 9.01508358 4 11 C4.99 11.33 5.98 11.66 7 12 C6.34 13.65 5.68 15.3 5 17 C4.01 17 3.02 17 2 17 C2 16.01 2 15.02 2 14 C1.67 14.66 1.34 15.32 1 16 C-0.32 16 -1.64 16 -3 16 C-4.75162469 16.1486227 -6.50174037 16.31597267 -8.25 16.5 C-9.14203125 16.5928125 -10.0340625 16.685625 -10.953125 16.78125 C-11.62859375 16.8534375 -12.3040625 16.925625 -13 17 C-13 15.35 -13 13.7 -13 12 C-9.67465243 10.89155081 -7.37817425 11.15545644 -4 12 C-4.93502923 9.92553911 -4.93502923 9.92553911 -6.5625 8.1875 C-8.27835451 5.57641706 -8.25524262 4.0629114 -8 1 C-7.236875 1.20625 -6.47375 1.4125 -5.6875 1.625 C-2.78114056 2.33391203 -2.78114056 2.33391203 0 0 Z " fill="#CDCDCD" transform="translate(153,9)"/>
<path d="M0 0 C1.32 0.33 2.64 0.66 4 1 C4.33 4.63 4.66 8.26 5 12 C11.435 11.505 11.435 11.505 18 11 C18.33 12.32 18.66 13.64 19 15 C19.66 15 20.32 15 21 15 C21 14.34 21 13.68 21 13 C21.66 13 22.32 13 23 13 C23 14.65 23 16.3 23 18 C21.02 18 19.04 18 17 18 C16.67 16.68 16.34 15.36 16 14 C15.01 15.32 14.02 16.64 13 18 C13.33 16.35 13.66 14.7 14 13 C13.34 13 12.68 13 12 13 C12 14.32 12 15.64 12 17 C10.02 17.33 8.04 17.66 6 18 C6 19.65 6 21.3 6 23 C4.02 23.33 2.04 23.66 0 24 C0 22.68 0 21.36 0 20 C-0.66 19.67 -1.32 19.34 -2 19 C-1.125 12.125 -1.125 12.125 0 11 C0.07226502 9.14712498 0.0838122 7.29166122 0.0625 5.4375 C0.05347656 4.42558594 0.04445313 3.41367188 0.03515625 2.37109375 C0.02355469 1.58863281 0.01195312 0.80617188 0 0 Z " fill="#F6F6F6" transform="translate(12,81)"/>
<path d="M0 0 C7.92 0 15.84 0 24 0 C23.67 2.31 23.34 4.62 23 7 C22.01 6.34 21.02 5.68 20 5 C20.33 6.32 20.66 7.64 21 9 C19.35 9 17.7 9 16 9 C15.773125 9.61875 15.54625 10.2375 15.3125 10.875 C14 13 14 13 11.625 14.4375 C9 15 9 15 6.6875 13.625 C6.130625 13.08875 5.57375 12.5525 5 12 C5.66 10.68 6.32 9.36 7 8 C7.66 8 8.32 8 9 8 C8.67 6.02 8.34 4.04 8 2 C6.8553125 2.5259375 6.8553125 2.5259375 5.6875 3.0625 C3 4 3 4 0 3 C0 2.01 0 1.02 0 0 Z " fill="#F2F2F2" transform="translate(49,153)"/>
<path d="M0 0 C0.98484375 0.00902344 1.9696875 0.01804687 2.984375 0.02734375 C4.10585937 0.04474609 4.10585937 0.04474609 5.25 0.0625 C2.15094782 6.91533369 -3.10134836 9.28215477 -9.75 12.0625 C-12.59600677 14.12037515 -12.59600677 14.12037515 -14.75 16.0625 C-16.1875 13.625 -16.1875 13.625 -16.75 10.0625 C-14.67094935 6.23300245 -12.03471372 1.98207357 -7.8671875 0.3046875 C-5.22731889 0.00270991 -2.65691728 -0.03162997 0 0 Z " fill="#F6F8FA" transform="translate(159.75,96.9375)"/>
<path d="M0 0 C3.96 0 7.92 0 12 0 C12.33 1.32 12.66 2.64 13 4 C12.01 4.495 12.01 4.495 11 5 C10.938125 5.928125 10.87625 6.85625 10.8125 7.8125 C10 11 10 11 8.3828125 12.28515625 C6.62963788 13.26735649 4.81678907 14.14115426 3 15 C1 12 1 12 1.375 9.8125 C1.58125 9.214375 1.7875 8.61625 2 8 C1.34 7.67 0.68 7.34 0 7 C0 4.69 0 2.38 0 0 Z " fill="#FAFAFA" transform="translate(104,153)"/>
<path d="M0 0 C-0.33 1.65 -0.66 3.3 -1 5 C-1.99 4.67 -2.98 4.34 -4 4 C-4.0825 5.093125 -4.165 6.18625 -4.25 7.3125 C-5 11 -5 11 -6.9375 12.9375 C-9 14 -9 14 -11 14 C-11 13.01 -11 12.02 -11 11 C-11.66 11 -12.32 11 -13 11 C-13.33 9.68 -13.66 8.36 -14 7 C-13.34 7 -12.68 7 -12 7 C-12.7763932 3.9254644 -12.7763932 3.9254644 -15 2 C-14.67 1.34 -14.34 0.68 -14 0 C-8.98537403 -0.93493027 -5.02721527 -1.13112344 0 0 Z " fill="#F4F4F4" transform="translate(165,153)"/>
<path d="M0 0 C37.29 0 74.58 0 113 0 C112.01 0.99 111.02 1.98 110 3 C109.505 2.505 109.505 2.505 109 2 C107.58366281 1.8924055 106.1620562 1.85319678 104.74168396 1.84178162 C103.8231665 1.8319928 102.90464905 1.82220398 101.95829773 1.81211853 C100.43484489 1.80348534 100.43484489 1.80348534 98.88061523 1.79467773 C97.28568741 1.77982834 97.28568741 1.77982834 95.65853882 1.76467896 C92.12524686 1.73295665 88.59194142 1.70826427 85.05859375 1.68359375 C82.61621236 1.66303348 80.1738346 1.64203727 77.73146057 1.62062073 C71.28869561 1.5653043 64.84589804 1.51593737 58.40307617 1.46777344 C51.83444297 1.41762811 45.2658574 1.36190576 38.69726562 1.30664062 C25.79821801 1.19894206 12.89912977 1.09733403 0 1 C0 0.67 0 0.34 0 0 Z " fill="#DCDBDD" transform="translate(37,96)"/>
<path d="M0 0 C0.66 0 1.32 0 2 0 C2 1.32 2 2.64 2 4 C2.66 4 3.32 4 4 4 C4 3.34 4 2.68 4 2 C7.18824568 0.40587716 10.62896662 0.89825265 14.125 0.9375 C14.87910156 0.94201172 15.63320312 0.94652344 16.41015625 0.95117188 C18.27347127 0.96296501 20.13674555 0.98090058 22 1 C22 2.32 22 3.64 22 5 C21.401875 5.28875 20.80375 5.5775 20.1875 5.875 C17.80672208 7.04742026 17.80672208 7.04742026 15 9 C14.01 9 13.02 9 12 9 C12 8.34 12 7.68 12 7 C9.72600578 6.26907328 8.34648094 5.91337977 6 6.5 C3.65351906 7.08662023 2.27399422 6.73092672 0 6 C0 4.02 0 2.04 0 0 Z " fill="#919191" transform="translate(121,9)"/>
<path d="M0 0 C0 0.99 0 1.98 0 3 C-0.61875 3.226875 -1.2375 3.45375 -1.875 3.6875 C-4.21630346 4.81694822 -4.21630346 4.81694822 -4.75 7.3125 C-6.63170737 11.35817086 -10.0676232 13.07477386 -14 15 C-14.66 15 -15.32 15 -16 15 C-16.33 15.99 -16.66 16.98 -17 18 C-18.95597184 19.39712274 -20.95436401 20.73779907 -23 22 C-23 16.66714448 -21.13801752 15.12962499 -17.63671875 11.3203125 C-13.73578888 7.88749422 -9.40255838 5.6894225 -4.7578125 3.41015625 C-1.94531813 2.15042085 -1.94531813 2.15042085 0 0 Z " fill="#F0EFF3" transform="translate(204,67)"/>
<path d="M0 0 C3.63 0 7.26 0 11 0 C12.125 5.625 12.125 5.625 11 9 C7.66666667 9.66666667 4.33333333 10.33333333 1 11 C-0.79132273 6.46900722 -1.0036454 5.01822701 0 0 Z " fill="#EEEEEE" transform="translate(28,10)"/>
<path d="M0 0 C2.40983474 0.53098054 4.65317402 1.21772467 7 2 C7 2.66 7 3.32 7 4 C12.28 4 17.56 4 23 4 C22.67 4.99 22.34 5.98 22 7 C22 6.34 22 5.68 22 5 C8.47 5 -5.06 5 -19 5 C-19 4.67 -19 4.34 -19 4 C-17.9275 3.896875 -16.855 3.79375 -15.75 3.6875 C-12.08657753 3.3240772 -12.08657753 3.3240772 -10.0625 1.4375 C-6.89909581 -0.76729686 -3.68236193 -0.41674226 0 0 Z " fill="#E0DFE2" transform="translate(121,111)"/>
<path d="M0 0 C18.81 0 37.62 0 57 0 C53.11506838 2.58995441 49.89432764 2.25225542 45.39453125 2.1953125 C44.55532639 2.1924826 43.71612152 2.18965271 42.85148621 2.18673706 C40.17167897 2.17554385 37.49220619 2.15044101 34.8125 2.125 C32.99544754 2.11496908 31.17838983 2.10584343 29.36132812 2.09765625 C24.90742325 2.07560734 20.45376833 2.04108351 16 2 C16.66 2.33 17.32 2.66 18 3 C18.625 5.5625 18.625 5.5625 19 8 C15.77208445 10.1519437 14.71599191 10.20086443 11 10 C11.66 8.35 12.32 6.7 13 5 C13.66 5 14.32 5 15 5 C14.67 3.68 14.34 2.36 14 1 C9.38 1 4.76 1 0 1 C0 0.67 0 0.34 0 0 Z " fill="#DBDBDB" transform="translate(102,152)"/>
<path d="M0 0 C0.69077637 -0.00821777 1.38155273 -0.01643555 2.09326172 -0.02490234 C4.19946438 0.09317817 6.03262856 0.55523292 8.0703125 1.0859375 C10.65687923 1.30882251 13.22984028 1.49908135 15.8203125 1.6484375 C16.51769531 1.69162109 17.21507812 1.73480469 17.93359375 1.77929688 C19.64563172 1.88483346 21.35794811 1.9858366 23.0703125 2.0859375 C23.0703125 2.4159375 23.0703125 2.7459375 23.0703125 3.0859375 C5.9103125 3.0859375 -11.2496875 3.0859375 -28.9296875 3.0859375 C-25.81888769 1.01207096 -24.92432491 0.81071367 -21.359375 0.671875 C-20.4621875 0.63320312 -19.565 0.59453125 -18.640625 0.5546875 C-17.70476562 0.52375 -16.76890625 0.4928125 -15.8046875 0.4609375 C-14.43570313 0.40292969 -14.43570313 0.40292969 -13.0390625 0.34375 C-8.69402789 0.17044378 -4.34821819 0.05165847 0 0 Z " fill="#E7E6EA" transform="translate(96.9296875,131.9140625)"/>
<path d="M0 0 C0.33 0 0.66 0 1 0 C1.268125 1.093125 1.53625 2.18625 1.8125 3.3125 C2.87663739 6.61692663 3.34654664 7.94960422 6 10 C5.67 10.99 5.34 11.98 5 13 C2.36 12.67 -0.28 12.34 -3 12 C-3.99 13.98 -4.98 15.96 -6 18 C-6.66 17.34 -7.32 16.68 -8 16 C-7.625 13.375 -7.625 13.375 -7 11 C-7.99 11 -8.98 11 -10 11 C-10 10.34 -10 9.68 -10 9 C-6.66666667 7.33333333 -3.33333333 5.66666667 0 4 C-0.33 3.01 -0.66 2.02 -1 1 C-0.67 0.67 -0.34 0.34 0 0 Z " fill="#F0F0F0" transform="translate(144,9)"/>
<path d="M0 0 C1.11310547 0.01353516 2.22621094 0.02707031 3.37304688 0.04101562 C6.10337212 0.07617003 8.83267744 0.12537894 11.5625 0.1875 C8.59211614 1.88576814 6.41776024 2.44211879 3.0078125 2.49609375 C1.71423828 2.53379883 1.71423828 2.53379883 0.39453125 2.57226562 C-1.40227457 2.60726834 -3.1991569 2.63855152 -4.99609375 2.66601562 C-10.34772589 2.82951556 -13.65482212 3.6224884 -18.4375 6.1875 C-21.8046875 6.62890625 -21.8046875 6.62890625 -25.3125 6.75 C-30.65024733 7.02141088 -35.32788604 7.65461581 -40.4375 9.1875 C-40.4375 8.5275 -40.4375 7.8675 -40.4375 7.1875 C-35.600917 4.91976361 -30.73615877 4.53496936 -25.49609375 4.06445312 C-21.93056317 3.68752561 -19.4941109 3.21474442 -16.20703125 1.6328125 C-11.09740984 -0.75405248 -5.51523072 -0.12765222 0 0 Z " fill="#464850" transform="translate(80.4375,112.8125)"/>
<path d="M0 0 C2.33746522 0.30300475 4.67085177 0.63858045 7 1 C7.99 1 8.98 1 10 1 C10 2.65 10 4.3 10 6 C6.95151454 6.9305172 4.59231921 7.02001966 1.4375 6.625 C0.67308594 6.53476562 -0.09132813 6.44453125 -0.87890625 6.3515625 C-3 6 -3 6 -6 5 C-8.63804589 5.39397335 -8.63804589 5.39397335 -11 6 C-11.33 4.68 -11.66 3.36 -12 2 C-8.25715154 1.11932977 -4.83333136 1 -1 1 C-0.67 0.67 -0.34 0.34 0 0 Z " fill="#7F7F7F" transform="translate(87,20)"/>
<path d="M0 0 C0.66 1.32 1.32 2.64 2 4 C2.763125 3.649375 3.52625 3.29875 4.3125 2.9375 C7 2 7 2 10 3 C10.33 4.98 10.66 6.96 11 9 C10.01 9 9.02 9 8 9 C7.67 8.34 7.34 7.68 7 7 C6.34 7.66 5.68 8.32 5 9 C2.31160615 9.26991906 -0.29141936 9.08737357 -3 9 C-3.33 6.36 -3.66 3.72 -4 1 C-2.68 0.67 -1.36 0.34 0 0 Z " fill="#D1D1D1" transform="translate(225,90)"/>
<path d="M0 0 C0.66 0 1.32 0 2 0 C2.33 0.99 2.66 1.98 3 3 C3.66 2.01 4.32 1.02 5 0 C7.8203125 -0.29296875 7.8203125 -0.29296875 11.125 -0.1875 C12.76855469 -0.14689453 12.76855469 -0.14689453 14.4453125 -0.10546875 C15.28835937 -0.07066406 16.13140625 -0.03585938 17 0 C17 1.65 17 3.3 17 5 C11.49592261 6.83469246 5.63980312 6.04440798 0 5 C-0.66 4.34 -1.32 3.68 -2 3 C-1.34 2.01 -0.68 1.02 0 0 Z " fill="#808080" transform="translate(16,20)"/>
<path d="M0 0 C5.94 0 11.88 0 18 0 C18 1.32 18 2.64 18 4 C14.24600202 5.2039337 10.66782588 5.09877617 6.75 5.0625 C5.48671875 5.05347656 4.2234375 5.04445313 2.921875 5.03515625 C1.95765625 5.02355469 0.9934375 5.01195312 0 5 C0 3.35 0 1.7 0 0 Z " fill="#676767" transform="translate(99,10)"/>
<path d="M0 0 C1.98 0 3.96 0 6 0 C6.20086443 3.71599191 6.1519437 4.77208445 4 8 C1.75341797 8.2487793 1.75341797 8.2487793 -1.0078125 8.07421875 C-1.99394531 8.01943359 -2.98007813 7.96464844 -3.99609375 7.90820312 C-5.02863281 7.83537109 -6.06117187 7.76253906 -7.125 7.6875 C-8.16527344 7.62626953 -9.20554687 7.56503906 -10.27734375 7.50195312 C-12.85273 7.34837505 -15.42638232 7.18048829 -18 7 C-17.34 6.01 -16.68 5.02 -16 4 C-13.04935852 3.7791436 -10.31631769 3.71939011 -7.375 3.8125 C-6.57320312 3.82603516 -5.77140625 3.83957031 -4.9453125 3.85351562 C-2.96325622 3.88890949 -0.98154449 3.94271766 1 4 C0.67 2.68 0.34 1.36 0 0 Z " fill="#D3D3D5" transform="translate(98,105)"/>
<path d="M0 0 C0.99 0.33 1.98 0.66 3 1 C3 1.66 3 2.32 3 3 C5.31 3 7.62 3 10 3 C10.33 4.98 10.66 6.96 11 9 C10.01 9 9.02 9 8 9 C7.67 8.34 7.34 7.68 7 7 C6.67 7.66 6.34 8.32 6 9 C3.36 9 0.72 9 -2 9 C-2.125 5.625 -2.125 5.625 -2 2 C-1.34 1.34 -0.68 0.68 0 0 Z " fill="#D4D4D4" transform="translate(225,34)"/>
<path d="M0 0 C8.91 0 17.82 0 27 0 C26 2 26 2 23.86328125 3.0859375 C20.58357656 4.13293736 17.62101716 4.41690805 14.1875 4.625 C12.44533203 4.73714844 12.44533203 4.73714844 10.66796875 4.8515625 C9.34732422 4.92503906 9.34732422 4.92503906 8 5 C7.67 4.01 7.34 3.02 7 2 C4.69 1.67 2.38 1.34 0 1 C0 0.67 0 0.34 0 0 Z " fill="#EEEEEE" transform="translate(37,134)"/>
<path d="M0 0 C0 0.33 0 0.66 0 1 C-1.60875 1.12375 -1.60875 1.12375 -3.25 1.25 C-7.02600157 1.64464519 -7.02600157 1.64464519 -9.0625 4.0625 C-11 6 -11 6 -14.1875 6.3125 C-17 6 -17 6 -18 5 C-23.36170653 4.42009099 -23.36170653 4.42009099 -28 6.5 C-31.10125463 8.82594098 -34.31443971 8.40435104 -38 8 C-40.72331004 7.45811688 -43.32566767 6.76409495 -46 6 C-46 5.67 -46 5.34 -46 5 C-42.3329925 4.92516311 -39.0983681 4.97892112 -35.5 5.75 C-31.34399178 6.04685773 -30.11395498 5.11539614 -26.76953125 2.93359375 C-23.83306134 1.38433038 -21.21812676 1.62139685 -18 2 C-17.34 2.66 -16.68 3.32 -16 4 C-13.93125966 4.6425235 -13.93125966 4.6425235 -12 5 C-12 4.34 -12 3.68 -12 3 C-7.99202044 -1.25088741 -5.56953279 -1.3104783 0 0 Z " fill="#393B42" transform="translate(139,107)"/>
<path d="M0 0 C1.98 0 3.96 0 6 0 C6.89130413 2.6739124 7.47731534 5.23723823 8 8 C5 8 2 8 -1 8 C-1.33 6.68 -1.66 5.36 -2 4 C-2.99 4 -3.98 4 -5 4 C-4.67 5.32 -4.34 6.64 -4 8 C-4.66 8 -5.32 8 -6 8 C-6.33 6.02 -6.66 4.04 -7 2 C-4.03 2.495 -4.03 2.495 -1 3 C-0.67 2.01 -0.34 1.02 0 0 Z " fill="#323232" transform="translate(216,183)"/>
<path d="M0 0 C0.33 0.66 0.66 1.32 1 2 C3.02463255 2.65213292 3.02463255 2.65213292 5 3 C4.67 4.32 4.34 5.64 4 7 C3.360625 7.103125 2.72125 7.20625 2.0625 7.3125 C1.381875 7.539375 0.70125 7.76625 0 8 C-0.33 8.99 -0.66 9.98 -1 11 C-1.99 11.33 -2.98 11.66 -4 12 C-4.99 10.68 -5.98 9.36 -7 8 C-6.34 6.68 -5.68 5.36 -5 4 C-4.34 4.33 -3.68 4.66 -3 5 C-3 4.34 -3 3.68 -3 3 C-3.66 2.67 -4.32 2.34 -5 2 C-4.360625 1.855625 -3.72125 1.71125 -3.0625 1.5625 C-1.02454854 1.18992819 -1.02454854 1.18992819 0 0 Z " fill="#A9A9A9" transform="translate(55,19)"/>
<path d="M0 0 C0.99 0.33 1.98 0.66 3 1 C3.6875 3.0625 3.6875 3.0625 4 5 C0.77208445 7.1519437 -0.28400809 7.20086443 -4 7 C-3.67 7.99 -3.34 8.98 -3 10 C-3.78375 10.28875 -4.5675 10.5775 -5.375 10.875 C-8.09671632 11.84912254 -8.09671632 11.84912254 -10 14 C-10.99 14 -11.98 14 -13 14 C-13.33 12.35 -13.66 10.7 -14 9 C-12.73160474 8.49384702 -11.46016898 7.99530901 -10.1875 7.5 C-9.12595703 7.08234375 -9.12595703 7.08234375 -8.04296875 6.65625 C-6 6 -6 6 -3 6 C-3 4.68 -3 3.36 -3 2 C-1 3 -1 3 0 4 C0 2.68 0 1.36 0 0 Z " fill="#A9A9A9" transform="translate(197,155)"/>
<path d="M0 0 C1.22589844 0.29197266 1.22589844 0.29197266 2.4765625 0.58984375 C3.41628906 0.82380859 3.41628906 0.82380859 4.375 1.0625 C4.375 2.0525 4.375 3.0425 4.375 4.0625 C-1.32016196 5.17375111 -7.00512747 5.86085921 -12.625 4.0625 C-12.955 2.7425 -13.285 1.4225 -13.625 0.0625 C-12.51125 0.083125 -11.3975 0.10375 -10.25 0.125 C-0.19886364 -0.04829545 -0.19886364 -0.04829545 0 0 Z " fill="#C1C1C1" transform="translate(94.625,104.9375)"/>
<path d="M0 0 C0.33 0.66 0.66 1.32 1 2 C4.96 2 8.92 2 13 2 C13 3.98 13 5.96 13 8 C11.35 8.33 9.7 8.66 8 9 C8 8.34 8 7.68 8 7 C5.36 7 2.72 7 0 7 C0 4.69 0 2.38 0 0 Z " fill="#808080" transform="translate(192,8)"/>
<path d="M0 0 C3 0 6 0 9 0 C9 0.66 9 1.32 9 2 C9.66 2 10.32 2 11 2 C11 1.34 11 0.68 11 0 C11.66 0 12.32 0 13 0 C13 1.65 13 3.3 13 5 C4.57142857 7.42857143 4.57142857 7.42857143 0 6 C-1.125 2.25 -1.125 2.25 0 0 Z " fill="#E5E5E5" transform="translate(22,56)"/>
<path d="M0 0 C1.65 0 3.3 0 5 0 C5 0.66 5 1.32 5 2 C5.66 2.33 6.32 2.66 7 3 C7 2.34 7 1.68 7 1 C8.32 1.33 9.64 1.66 11 2 C11 1.34 11 0.68 11 0 C11.66 0 12.32 0 13 0 C13 1.98 13 3.96 13 6 C10.06610398 7.50886081 8.66876409 8.19573583 5.4375 7.25 C4.633125 6.8375 3.82875 6.425 3 6 C2.236875 5.62875 1.47375 5.2575 0.6875 4.875 C-0.1478125 4.441875 -0.1478125 4.441875 -1 4 C-0.67 2.68 -0.34 1.36 0 0 Z " fill="#C2C2C2" transform="translate(22,112)"/>
<path d="M0 0 C1.65 0 3.3 0 5 0 C5.02686553 1.97909398 5.04633375 3.95828971 5.0625 5.9375 C5.07410156 7.03964844 5.08570313 8.14179687 5.09765625 9.27734375 C5 12 5 12 4 13 C2.33382885 13.04063832 0.66611905 13.042721 -1 13 C-1 11.68 -1 10.36 -1 9 C-0.34 9 0.32 9 1 9 C1 7.68 1 6.36 1 5 C0.34 5 -0.32 5 -1 5 C-0.67 3.35 -0.34 1.7 0 0 Z " fill="#A1A1A1" transform="translate(11,115)"/>
<path d="M0 0 C4 0 4 0 7 2 C6.34 2.66 5.68 3.32 5 4 C5.28604898 5.67542976 5.61781233 7.34385343 6 9 C5 10 5 10 1.4375 10.0625 C0.303125 10.041875 -0.83125 10.02125 -2 10 C-2.66 11.32 -3.32 12.64 -4 14 C-4 10.72724974 -3.70074844 8.153368 -3 5 C-2.01 4.67 -1.02 4.34 0 4 C0 2.68 0 1.36 0 0 Z " fill="#F2F2F2" transform="translate(23,10)"/>
<path d="M0 0 C0.33 1.32 0.66 2.64 1 4 C1.66 4 2.32 4 3 4 C3.33 2.68 3.66 1.36 4 0 C4.33 0.66 4.66 1.32 5 2 C6.32 2 7.64 2 9 2 C9.33 1.34 9.66 0.68 10 0 C11.3921875 0.495 11.3921875 0.495 12.8125 1 C15.92029291 2.14967004 15.92029291 2.14967004 19 2 C18.67 3.32 18.34 4.64 18 6 C17.319375 5.835 16.63875 5.67 15.9375 5.5 C10.4844037 4.5718134 5.40606892 4.94515728 0 6 C-1 3 -1 3 0 0 Z " fill="#777777" transform="translate(101,20)"/>
<path d="M0 0 C5.77807024 -0.2358396 10.51324804 0.13216954 16 2 C16 2.99 16 3.98 16 5 C13 6 13 6 10 5 C9.01 5.33 8.02 5.66 7 6 C4.66666667 6 2.33333333 6 0 6 C0 4.02 0 2.04 0 0 Z " fill="#B0B0B0" transform="translate(47,104)"/>
<path d="M0 0 C8.58 0 17.16 0 26 0 C23.12891775 2.87108225 19.92960614 2.74875181 16.0625 3.1875 C15.33353516 3.28224609 14.60457031 3.37699219 13.85351562 3.47460938 C10.51379744 3.87562045 8.22924275 4.07641425 5 3 C5 2.67 5 2.34 5 2 C3.35 1.67 1.7 1.34 0 1 C0 0.67 0 0.34 0 0 Z " fill="#E5E6E8" transform="translate(37,115)"/>
<path d="M0 0 C3.3 0.66 6.6 1.32 10 2 C10.33 3.98 10.66 5.96 11 8 C10.01 7.67 9.02 7.34 8 7 C7.67 6.34 7.34 5.68 7 5 C6.67 5.66 6.34 6.32 6 7 C3.69 7 1.38 7 -1 7 C-1.33 6.01 -1.66 5.02 -2 4 C-1.34 2.68 -0.68 1.36 0 0 Z " fill="#AEAEAE" transform="translate(225,148)"/>
<path d="M0 0 C0.99 0 1.98 0 3 0 C3 0.66 3 1.32 3 2 C3.556875 1.67 4.11375 1.34 4.6875 1 C7.30284522 -0.1309601 9.1806646 -0.15662974 12 0 C12.33 1.98 12.66 3.96 13 6 C12.195625 5.814375 11.39125 5.62875 10.5625 5.4375 C9.716875 5.293125 8.87125 5.14875 8 5 C7.67 5.33 7.34 5.66 7 6 C4.66702567 6.04092937 2.33294775 6.04241723 0 6 C0 4.02 0 2.04 0 0 Z " fill="#B1B1B1" transform="translate(223,65)"/>
<path d="M0 0 C1.32 0.33 2.64 0.66 4 1 C4 2.32 4 3.64 4 5 C2.35 5 0.7 5 -1 5 C-1.33 5.99 -1.66 6.98 -2 8 C-2.33 8 -2.66 8 -3 8 C-3.433125 8.474375 -3.86625 8.94875 -4.3125 9.4375 C-6.20679307 11.19147507 -7.49153305 11.5675057 -10 12 C-10.33 10.35 -10.66 8.7 -11 7 C-9.73160474 6.49384702 -8.46016898 5.99530901 -7.1875 5.5 C-6.12595703 5.08234375 -6.12595703 5.08234375 -5.04296875 4.65625 C-3 4 -3 4 0 4 C0 2.68 0 1.36 0 0 Z " fill="#A1A1A1" transform="translate(99,157)"/>
<path d="M0 0 C1.98 0.495 1.98 0.495 4 1 C4 5.62 4 10.24 4 15 C2.35 14.67 0.7 14.34 -1 14 C-0.835 12.80375 -0.67 11.6075 -0.5 10.375 C-0.06029433 6.89451285 0.08780713 3.51228512 0 0 Z " fill="#A1A1A1" transform="translate(12,81)"/>
<path d="M0 0 C0.66 0.66 1.32 1.32 2 2 C4.9093558 2.14517744 7.719946 2.18630796 10.625 2.125 C11.82769531 2.11146484 11.82769531 2.11146484 13.0546875 2.09765625 C15.03658523 2.07406223 17.01832981 2.03819065 19 2 C18.67 2.99 18.34 3.98 18 5 C15.64500383 5 13.28809476 4.95641396 10.9375 4.8125 C7.98369585 4.71902982 7.98369585 4.71902982 6.125 6.5 C5.75375 6.995 5.3825 7.49 5 8 C4.67 7.34 4.34 6.68 4 6 C1.97536745 5.34786708 1.97536745 5.34786708 0 5 C0 3.35 0 1.7 0 0 Z " fill="#A9A9A9" transform="translate(66,142)"/>
<path d="M0 0 C0 0.99 0 1.98 0 3 C0.66 3 1.32 3 2 3 C2 2.34 2 1.68 2 1 C2.66 1 3.32 1 4 1 C4 2.65 4 4.3 4 6 C2.02 6 0.04 6 -2 6 C-2.33 4.68 -2.66 3.36 -3 2 C-3.99 3.32 -4.98 4.64 -6 6 C-5.67 4.35 -5.34 2.7 -5 1 C-5.66 1 -6.32 1 -7 1 C-7 2.32 -7 3.64 -7 5 C-7.99 5 -8.98 5 -10 5 C-9.67 3.35 -9.34 1.7 -9 0 C-2.25 -1.125 -2.25 -1.125 0 0 Z " fill="#B1B1B1" transform="translate(31,93)"/>
<path d="M0 0 C2.97 0 5.94 0 9 0 C9.33 1.65 9.66 3.3 10 5 C7.09399739 6.25664978 5.20395416 7 2 7 C1.34 4.69 0.68 2.38 0 0 Z " fill="#D3D3D3" transform="translate(221,79)"/>
<path d="M0 0 C0 0.66 0 1.32 0 2 C1.98 1.34 3.96 0.68 6 0 C6.33 0.99 6.66 1.98 7 3 C5.02 3 3.04 3 1 3 C1 3.66 1 4.32 1 5 C1.66 5.33 2.32 5.66 3 6 C-0.47325181 7.1577506 -3.36067448 7.06866652 -7 7 C-6.39816251 4.97954558 -5.72693904 2.97888961 -5 1 C-3 0 -3 0 0 0 Z " fill="#EBEBEB" transform="translate(78,145)"/>
<path d="M0 0 C1.65 0 3.3 0 5 0 C5.33 0.99 5.66 1.98 6 3 C6.33 2.01 6.66 1.02 7 0 C7.66 0 8.32 0 9 0 C9.33 0.66 9.66 1.32 10 2 C10.66 1.34 11.32 0.68 12 0 C12 1.32 12 2.64 12 4 C10.58800422 4.39222105 9.17007236 4.76311059 7.75 5.125 C6.96109375 5.33382812 6.1721875 5.54265625 5.359375 5.7578125 C2.5796929 6.04314411 1.34112451 5.44977894 -1 4 C-0.67 2.68 -0.34 1.36 0 0 Z " fill="#B2B2B2" transform="translate(22,75)"/>
<path d="M0 0 C2.31 0.33 4.62 0.66 7 1 C7.33 2.32 7.66 3.64 8 5 C4.81237635 7.12508244 2.73487777 7.5020163 -1 8 C-1.625 5.6875 -1.625 5.6875 -2 3 C-1.34 2.01 -0.68 1.02 0 0 Z " fill="#E6E6E6" transform="translate(146,155)"/>
<path d="M0 0 C4.77367206 3.30484988 4.77367206 3.30484988 5.875 6.6875 C5.936875 7.8321875 5.936875 7.8321875 6 9 C5 10 5 10 1.4375 10.0625 C0.303125 10.041875 -0.83125 10.02125 -2 10 C-2 6.3040893 -1.16512384 3.49537151 0 0 Z " fill="#D2D2D2" transform="translate(225,103)"/>
<path d="M0 0 C0.5775 0.226875 1.155 0.45375 1.75 0.6875 C1.36912394 2.89658114 0.82400952 4.56124847 -0.3125 6.5 C-3.56554229 8.49380011 -6.58858411 7.34775532 -10.25 6.6875 C-3.34459459 -0.46452703 -3.34459459 -0.46452703 0 0 Z " fill="#EBEBEF" transform="translate(167.25,90.3125)"/>
<path d="M0 0 C1.65 0 3.3 0 5 0 C8 5.75 8 5.75 8 8 C5.64561267 9.42944945 4.51967567 10.08661261 1.75 9.625 C1.1725 9.41875 0.595 9.2125 0 9 C0.66 8.67 1.32 8.34 2 8 C1.34 5.36 0.68 2.72 0 0 Z " fill="#E2E3E4" transform="translate(62,105)"/>
<path d="M0 0 C1.9375 0.3125 1.9375 0.3125 4 1 C5.03159626 4.09478879 4.97482862 5.52631393 4.5625 8.6875 C4.46066406 9.49574219 4.35882813 10.30398437 4.25390625 11.13671875 C4.17011719 11.75160156 4.08632812 12.36648437 4 13 C2.35 13 0.7 13 -1 13 C-0.835 12.401875 -0.67 11.80375 -0.5 11.1875 C0.1114124 8.88655664 0.1114124 8.88655664 0 6 C0 4 0 2 0 0 Z " fill="#8E8E8E" transform="translate(242,67)"/>
<path d="M0 0 C0.66 0 1.32 0 2 0 C2.33 2.64 2.66 5.28 3 8 C-0.63 8 -4.26 8 -8 8 C-8 6.02 -8 4.04 -8 2 C-5.6875 1.75 -5.6875 1.75 -3 2 C-1.1875 4 -1.1875 4 0 6 C0 4.02 0 2.04 0 0 Z " fill="#464646" transform="translate(206,183)"/>
<path d="M0 0 C0 0.99 0 1.98 0 3 C-0.61875 3.226875 -1.2375 3.45375 -1.875 3.6875 C-4.21630346 4.81694822 -4.21630346 4.81694822 -4.75 7.3125 C-6.63170737 11.35817086 -10.0676232 13.07477386 -14 15 C-14.66 15 -15.32 15 -16 15 C-16.33 15.99 -16.66 16.98 -17 18 C-17.33 17.34 -17.66 16.68 -18 16 C-14.82679218 12.46413986 -12.83256305 10.41421969 -8 10 C-8.33 8.68 -8.66 7.36 -9 6 C-6.03 4.02 -3.06 2.04 0 0 Z " fill="#B4B5BB" transform="translate(204,67)"/>
<path d="M0 0 C0.99 0 1.98 0 3 0 C3.33 0.99 3.66 1.98 4 3 C4.33 2.01 4.66 1.02 5 0 C5.66 0 6.32 0 7 0 C7 1.32 7 2.64 7 4 C7.66 4 8.32 4 9 4 C9 2.68 9 1.36 9 0 C9.66 0 10.32 0 11 0 C10.34 2.64 9.68 5.28 9 8 C8.34 8 7.68 8 7 8 C6.67 7.34 6.34 6.68 6 6 C5.67 6.66 5.34 7.32 5 8 C4.34 8 3.68 8 3 8 C2.01 5.36 1.02 2.72 0 0 Z " fill="#272727" transform="translate(181,183)"/>
<path d="M0 0 C0.33 2.31 0.66 4.62 1 7 C0.360625 7.12375 -0.27875 7.2475 -0.9375 7.375 C-1.9584375 7.684375 -1.9584375 7.684375 -3 8 C-3.33 8.66 -3.66 9.32 -4 10 C-4.33 9.01 -4.66 8.02 -5 7 C-5.99 7.495 -5.99 7.495 -7 8 C-7 6.02 -7 4.04 -7 2 C-1.125 0 -1.125 0 0 0 Z " fill="#CECECF" transform="translate(230,49)"/>
<path d="M0 0 C2.00011163 0.22581905 4.00041475 0.45578001 5.9921875 0.74609375 C8.15874881 1.06272998 8.15874881 1.06272998 11 1 C10.67 1.99 10.34 2.98 10 4 C6.54203826 5.32998529 2.6559139 5.50785774 -1 6 C-1.042721 4.33388095 -1.04063832 2.66617115 -1 1 C-0.67 0.67 -0.34 0.34 0 0 Z " fill="#838383" transform="translate(141,20)"/>
<path d="M0 0 C0.66 0.66 1.32 1.32 2 2 C1 5 1 5 -1.3125 6.6875 C-4 8 -4 8 -8 8 C-8.33 6.68 -8.66 5.36 -9 4 C-8.34 4 -7.68 4 -7 4 C-6.34 3.34 -5.68 2.68 -5 2 C-3.35008418 1.29289322 -1.68437744 0.62056011 0 0 Z " fill="#A1A1A1" transform="translate(144,161)"/>
<path d="M0 0 C0.66 0.33 1.32 0.66 2 1 C2.99 0.67 3.98 0.34 5 0 C5 0.99 5 1.98 5 3 C5.66 3 6.32 3 7 3 C7 2.01 7 1.02 7 0 C8.65 0 10.3 0 12 0 C11.67 1.65 11.34 3.3 11 5 C7.37 5 3.74 5 0 5 C-0.33 3.68 -0.66 2.36 -1 1 C-0.67 0.67 -0.34 0.34 0 0 Z " fill="#5F5F5F" transform="translate(86,10)"/>
<path d="M0 0 C0.66 1.32 1.32 2.64 2 4 C-0.64 5.65 -3.28 7.3 -6 9 C-6.99 8.01 -7.98 7.02 -9 6 C-9 5.34 -9 4.68 -9 4 C-7.6078125 3.566875 -7.6078125 3.566875 -6.1875 3.125 C-2.90208333 2.1125 -2.90208333 2.1125 0 0 Z " fill="#A2A2A2" transform="translate(128,160)"/>
<path d="M0 0 C2.97 0 5.94 0 9 0 C9.33 1.98 9.66 3.96 10 6 C9.34 6 8.68 6 8 6 C8 4.68 8 3.36 8 2 C7.34 2 6.68 2 6 2 C6 3.32 6 4.64 6 6 C5.34 6 4.68 6 4 6 C4 4.68 4 3.36 4 2 C3.34 2 2.68 2 2 2 C2.33 3.32 2.66 4.64 3 6 C2.01 6 1.02 6 0 6 C0 4.02 0 2.04 0 0 Z " fill="#313131" transform="translate(238,185)"/>
<path d="M0 0 C1.953125 0.13020833 3.90625 0.26041667 5.859375 0.390625 C6.189375 1.050625 6.519375 1.710625 6.859375 2.390625 C6.529375 3.050625 6.199375 3.710625 5.859375 4.390625 C1.899375 4.390625 -2.060625 4.390625 -6.140625 4.390625 C-2.140625 0.390625 -2.140625 0.390625 0 0 Z " fill="#EEEFEF" transform="translate(115.140625,110.609375)"/>
<path d="M0 0 C0 3 0 3 -1.4375 5.1875 C-4.79030605 7.55899696 -6.89323558 7.08470587 -10.87109375 6.875 C-13.26064521 6.81307049 -13.26064521 6.81307049 -15.5625 9 C-16.036875 9.66 -16.51125 10.32 -17 11 C-15.92598892 8.08482708 -15.22189824 6.22189824 -13 4 C-10.9765625 3.9453125 -10.9765625 3.9453125 -8.625 4.125 C-4.71443455 4.2493953 -4.71443455 4.2493953 -1.4375 2 C-0.963125 1.34 -0.48875 0.68 0 0 Z " fill="#A7A7AB" transform="translate(185,85)"/>
<path d="M0 0 C0.66 0 1.32 0 2 0 C2.33 0.99 2.66 1.98 3 3 C2.34 3 1.68 3 1 3 C1 3.66 1 4.32 1 5 C-2.465 6.485 -2.465 6.485 -6 8 C-6.66 6.35 -7.32 4.7 -8 3 C-7.34 3 -6.68 3 -6 3 C-5.34 2.34 -4.68 1.68 -4 1 C-3.34 1.33 -2.68 1.66 -2 2 C-1.34 1.34 -0.68 0.68 0 0 Z " fill="#9F9F9F" transform="translate(32,161)"/>
<path d="M0 0 C2.4609375 -0.36328125 2.4609375 -0.36328125 5.375 -0.3125 C6.33148438 -0.30863281 7.28796875 -0.30476563 8.2734375 -0.30078125 C10.99092807 -0.00100077 12.67011179 0.61421341 15 2 C11.43954823 3.18681726 8.56191663 3.09689832 4.8125 3.0625 C3.54019531 3.05347656 2.26789063 3.04445313 0.95703125 3.03515625 C-0.50669922 3.01775391 -0.50669922 3.01775391 -2 3 C-1.34 2.01 -0.68 1.02 0 0 Z " fill="#F9F9FA" transform="translate(82,109)"/>
<path d="M0 0 C-0.99 0.495 -0.99 0.495 -2 1 C-1.67 1.99 -1.34 2.98 -1 4 C-1.9375 6.1875 -1.9375 6.1875 -3 8 C-4.32 7.67 -5.64 7.34 -7 7 C-6.74438677 4.6568787 -6.40729228 2.32156597 -6 0 C-3.50907189 -1.24546405 -2.58919267 -0.7767578 0 0 Z " fill="#A7A7A7" transform="translate(248,99)"/>
<path d="M0 0 C0.66 0 1.32 0 2 0 C2 1.32 2 2.64 2 4 C2.66 4 3.32 4 4 4 C4 3.34 4 2.68 4 2 C5.32 1.67 6.64 1.34 8 1 C8.33 2.32 8.66 3.64 9 5 C4.56923077 7.09230769 4.56923077 7.09230769 1.6875 6.625 C1.130625 6.41875 0.57375 6.2125 0 6 C0 4.02 0 2.04 0 0 Z " fill="#727272" transform="translate(121,9)"/>
<path d="M0 0 C2.31 0 4.62 0 7 0 C7.33 1.98 7.66 3.96 8 6 C7.01 6 6.02 6 5 6 C4.67 5.34 4.34 4.68 4 4 C3.67 4.66 3.34 5.32 3 6 C2.01 5.67 1.02 5.34 0 5 C0 3.35 0 1.7 0 0 Z " fill="#B3B3B3" transform="translate(228,37)"/>
<path d="M0 0 C0.33 1.32 0.66 2.64 1 4 C0.34 3.67 -0.32 3.34 -1 3 C-1.33 3.99 -1.66 4.98 -2 6 C-3.65 6 -5.3 6 -7 6 C-6.625 3.0625 -6.625 3.0625 -6 0 C-3.50907189 -1.24546405 -2.58919267 -0.7767578 0 0 Z " fill="#B0B0B0" transform="translate(215,156)"/>
<path d="M0 0 C2.9375 0.1875 2.9375 0.1875 6 1 C7.375 3.0625 7.375 3.0625 8 5 C6.35 5.33 4.7 5.66 3 6 C3 5.34 3 4.68 3 4 C2.67 4.66 2.34 5.32 2 6 C1.01 6 0.02 6 -1 6 C-1.042721 4.33388095 -1.04063832 2.66617115 -1 1 C-0.67 0.67 -0.34 0.34 0 0 Z " fill="#AFAFAF" transform="translate(229,121)"/>
<path d="M0 0 C3.3 0 6.6 0 10 0 C10 0.66 10 1.32 10 2 C8.35 2.66 6.7 3.32 5 4 C5 4.33 5 4.66 5 5 C2.69 5 0.38 5 -2 5 C-1.34 3.35 -0.68 1.7 0 0 Z " fill="#F3F4F5" transform="translate(172,91)"/>
<path d="M0 0 C0.8353125 0.556875 0.8353125 0.556875 1.6875 1.125 C0.29628255 3.9074349 -1.61414212 4.67710065 -4.3125 6.125 C-4.9725 6.125 -5.6325 6.125 -6.3125 6.125 C-6.6425 4.475 -6.9725 2.825 -7.3125 1.125 C-2.88173077 -1.09038462 -2.88173077 -1.09038462 0 0 Z " fill="#AEAEAE" transform="translate(207.3125,161.875)"/>
<path d="M0 0 C1.98 0 3.96 0 6 0 C6.33 1.65 6.66 3.3 7 5 C2.25 6.125 2.25 6.125 0 5 C0 3.35 0 1.7 0 0 Z " fill="#B8B8B8" transform="translate(21,37)"/>
<path d="M0 0 C0.99 0 1.98 0 3 0 C3 1.65 3 3.3 3 5 C-0.81756824 6.37432457 -4.07255329 5.67975039 -8 5 C-7.360625 4.896875 -6.72125 4.79375 -6.0625 4.6875 C-5.381875 4.460625 -4.70125 4.23375 -4 4 C-3.67 3.01 -3.34 2.02 -3 1 C-2.34 1 -1.68 1 -1 1 C-0.67 0.67 -0.34 0.34 0 0 Z " fill="#A3A3A3" transform="translate(94,21)"/>
<path d="M0 0 C2.64 0 5.28 0 8 0 C8.33 1.32 8.66 2.64 9 4 C8.67 3.34 8.34 2.68 8 2 C7.34 2 6.68 2 6 2 C6 2.99 6 3.98 6 5 C4.02 5 2.04 5 0 5 C0 3.33333333 0 1.66666667 0 0 Z " fill="#575757" transform="translate(28,10)"/>
<path d="M0 0 C0.33 0.66 0.66 1.32 1 2 C3.02463255 2.65213292 3.02463255 2.65213292 5 3 C5 4.32 5 5.64 5 7 C2.36 7 -0.28 7 -3 7 C-3.33 5.35 -3.66 3.7 -4 2 C-3.01 2 -2.02 2 -1 2 C-1.33 2.99 -1.66 3.98 -2 5 C-1.34 5 -0.68 5 0 5 C0 3.35 0 1.7 0 0 Z " fill="#5A5A5A" transform="translate(69,8)"/>
<path d="M0 0 C2 2 2 2 2 6 C-0.64 6 -3.28 6 -6 6 C-5.67 4.35 -5.34 2.7 -5 1 C-2.625 0.375 -2.625 0.375 0 0 Z " fill="#676767" transform="translate(189,9)"/>
<path d="M0 0 C0.99 0.33 1.98 0.66 3 1 C3.6875 3.0625 3.6875 3.0625 4 5 C1 7 1 7 -1.1875 6.625 C-1.785625 6.41875 -2.38375 6.2125 -3 6 C-3 4.68 -3 3.36 -3 2 C-2.01 1.34 -1.02 0.68 0 0 Z " fill="#AAAAAA" transform="translate(134,155)"/>
<path d="M0 0 C1.2065625 0.0309375 1.2065625 0.0309375 2.4375 0.0625 C2.7675 1.0525 3.0975 2.0425 3.4375 3.0625 C2.7775 3.0625 2.1175 3.0625 1.4375 3.0625 C1.4375 4.3825 1.4375 5.7025 1.4375 7.0625 C0.1175 6.7325 -1.2025 6.4025 -2.5625 6.0625 C-2.94468767 4.40635343 -3.27645102 2.73792976 -3.5625 1.0625 C-2.5625 0.0625 -2.5625 0.0625 0 0 Z " fill="#C5C5C5" transform="translate(33.5625,128.9375)"/>
<path d="M0 0 C2.475 0.495 2.475 0.495 5 1 C5.33 2.32 5.66 3.64 6 5 C6.33 4.34 6.66 3.68 7 3 C7 3.99 7 4.98 7 6 C5.02 6.99 5.02 6.99 3 8 C1.58622659 5.36095629 0.62759865 2.92879371 0 0 Z M-1 6 C-0.34 6.33 0.32 6.66 1 7 C1 7.66 1 8.32 1 9 C0.01 8.67 -0.98 8.34 -2 8 C-1.67 7.34 -1.34 6.68 -1 6 Z " fill="#E9E9E9" transform="translate(58,20)"/>
<path d="M0 0 C0.66 0 1.32 0 2 0 C2 2.31 2 4.62 2 7 C0.02 7 -1.96 7 -4 7 C-4.33 6.34 -4.66 5.68 -5 5 C-4.67 4.01 -4.34 3.02 -4 2 C-3.01 2 -2.02 2 -1 2 C-0.67 1.34 -0.34 0.68 0 0 Z " fill="#6E6E6E" transform="translate(62,8)"/>
<path d="M0 0 C0.99 0.33 1.98 0.66 3 1 C3.6875 3.0625 3.6875 3.0625 4 5 C3.01 5 2.02 5 1 5 C1 5.66 1 6.32 1 7 C-0.65 7 -2.3 7 -4 7 C-3.67 5.35 -3.34 3.7 -3 2 C-2.34 2 -1.68 2 -1 2 C-0.67 1.34 -0.34 0.68 0 0 Z " fill="#A6A6A6" transform="translate(164,155)"/>
<path d="M0 0 C0.33 1.98 0.66 3.96 1 6 C-1.31 6.33 -3.62 6.66 -6 7 C-5.6875 4.625 -5.6875 4.625 -5 2 C-2 0 -2 0 0 0 Z " fill="#B5B5B5" transform="translate(88,155)"/>
<path d="M0 0 C0.99 0.33 1.98 0.66 3 1 C3.6875 3.0625 3.6875 3.0625 4 5 C1.64561267 6.42944945 0.51967567 7.08661261 -2.25 6.625 C-2.8275 6.41875 -3.405 6.2125 -4 6 C-3.67 4.68 -3.34 3.36 -3 2 C-2.34 2 -1.68 2 -1 2 C-0.67 1.34 -0.34 0.68 0 0 Z " fill="#A7A7A7" transform="translate(181,155)"/>
<path d="M0 0 C1.65 0 3.3 0 5 0 C4.67 2.97 4.34 5.94 4 9 C2.68 8.67 1.36 8.34 0 8 C0 5.36 0 2.72 0 0 Z " fill="#989898" transform="translate(242,82)"/>
<path d="M0 0 C1.32 0 2.64 0 4 0 C4 0.99 4 1.98 4 3 C3.01 3 2.02 3 1 3 C1 3.66 1 4.32 1 5 C1.99 4.67 2.98 4.34 4 4 C4 5.32 4 6.64 4 8 C2.02 8 0.04 8 -2 8 C-1.34 5.36 -0.68 2.72 0 0 Z " fill="#9A9A9A" transform="translate(12,72)"/>
<path d="M0 0 C0.99 0.33 1.98 0.66 3 1 C2.875 2.875 2.875 2.875 2 5 C-1.0625 6.25 -1.0625 6.25 -4 7 C-4 6.34 -4 5.68 -4 5 C-4.99 4.67 -5.98 4.34 -7 4 C-6.34 3.34 -5.68 2.68 -5 2 C-5 2.66 -5 3.32 -5 4 C-4.34 4 -3.68 4 -3 4 C-3 3.34 -3 2.68 -3 2 C-2.01 1.34 -1.02 0.68 0 0 Z " fill="#9C9C9C" transform="translate(174,161)"/>
<path d="M0 0 C0.99 0.33 1.98 0.66 3 1 C1.9024777 3.99324263 1.32317108 4.84610901 -1.625 6.25 C-2.40875 6.4975 -3.1925 6.745 -4 7 C-4 6.34 -4 5.68 -4 5 C-4.99 5 -5.98 5 -7 5 C-7 4.01 -7 3.02 -7 2 C-6.34 2 -5.68 2 -5 2 C-5 2.66 -5 3.32 -5 4 C-4.34 4 -3.68 4 -3 4 C-3 3.34 -3 2.68 -3 2 C-2.01 1.34 -1.02 0.68 0 0 Z " fill="#9D9D9D" transform="translate(79,161)"/>
<path d="M0 0 C0.33 1.98 0.66 3.96 1 6 C-1.31 6.33 -3.62 6.66 -6 7 C-5.6875 4.625 -5.6875 4.625 -5 2 C-2 0 -2 0 0 0 Z " fill="#B3B3B3" transform="translate(41,155)"/>
<path d="M0 0 C0.33 1.98 0.66 3.96 1 6 C-0.65 6.33 -2.3 6.66 -4 7 C-4.33 5.35 -4.66 3.7 -5 2 C-2 0 -2 0 0 0 Z " fill="#B6B6B6" transform="translate(57,155)"/>
<path d="M0 0 C1.32 0 2.64 0 4 0 C4 2.64 4 5.28 4 8 C2.35 8 0.7 8 -1 8 C-0.67 5.36 -0.34 2.72 0 0 Z " fill="#9A9A9A" transform="translate(12,106)"/>
<path d="M0 0 C0.66 0.33 1.32 0.66 2 1 C2 1.99 2 2.98 2 4 C2.66 4 3.32 4 4 4 C4 3.01 4 2.02 4 1 C4.66 1 5.32 1 6 1 C6 2.98 6 4.96 6 7 C4.02 7 2.04 7 0 7 C-0.38133299 5.0085944 -0.71325582 3.00720923 -1 1 C-0.67 0.67 -0.34 0.34 0 0 Z " fill="#B8B8B8" transform="translate(29,36)"/>
<path d="M0 0 C2.64 0 5.28 0 8 0 C7.67 0.99 7.34 1.98 7 3 C0.84210526 5.28070175 0.84210526 5.28070175 -3 4 C-2.67 3.01 -2.34 2.02 -2 1 C-1.67 1.33 -1.34 1.66 -1 2 C-0.67 1.34 -0.34 0.68 0 0 Z " fill="#686868" transform="translate(124,21)"/>
<path d="M0 0 C2.475 0.99 2.475 0.99 5 2 C4.67 2.99 4.34 3.98 4 5 C3.34 5 2.68 5 2 5 C2 5.99 2 6.98 2 8 C1.34 8 0.68 8 0 8 C-0.66 7.34 -1.32 6.68 -2 6 C-1.44444444 1.44444444 -1.44444444 1.44444444 0 0 Z " fill="#B0B0B0" transform="translate(35,18)"/>
<path d="M0 0 C4.46839215 -0.21278058 7.82262526 0.40861915 12 2 C11.67 2.99 11.34 3.98 11 5 C8.0625 4.625 8.0625 4.625 5 4 C4.67 3.34 4.34 2.68 4 2 C3.34 2.66 2.68 3.32 2 4 C1.34 2.68 0.68 1.36 0 0 Z " fill="#616161" transform="translate(193,179)"/>
<path d="M0 0 C0.8353125 0.556875 0.8353125 0.556875 1.6875 1.125 C-0.84038007 3.92372437 -2.51661134 5.58273019 -6.3125 6.125 C-6.6425 4.475 -6.9725 2.825 -7.3125 1.125 C-2.88173077 -1.09038462 -2.88173077 -1.09038462 0 0 Z " fill="#A6A6A6" transform="translate(112.3125,161.875)"/>
<path d="M0 0 C0.33 1.32 0.66 2.64 1 4 C-2.22791555 6.1519437 -3.28400809 6.20086443 -7 6 C-4.84615385 0 -4.84615385 0 0 0 Z " fill="#A4A4A4" transform="translate(120,156)"/>
<path d="M0 0 C0.66 0 1.32 0 2 0 C2 1.98 2 3.96 2 6 C0.02 6.33 -1.96 6.66 -4 7 C-4.33 5.68 -4.66 4.36 -5 3 C-4.360625 2.87625 -3.72125 2.7525 -3.0625 2.625 C-2.0415625 2.315625 -2.0415625 2.315625 -1 2 C-0.67 1.34 -0.34 0.68 0 0 Z " fill="#5B5B5B" transform="translate(171,8)"/>
<path d="M0 0 C0.33 0 0.66 0 1 0 C0.67 2.31 0.34 4.62 0 7 C-0.66 5.68 -1.32 4.36 -2 3 C-2.99 3 -3.98 3 -5 3 C-4.67 4.32 -4.34 5.64 -4 7 C-4.66 7 -5.32 7 -6 7 C-6.33 5.02 -6.66 3.04 -7 1 C-4.03 1.495 -4.03 1.495 -1 2 C-0.67 1.34 -0.34 0.68 0 0 Z " fill="#909090" transform="translate(216,184)"/>
<path d="M0 0 C3.875 0.875 3.875 0.875 5 2 C5.04063832 3.66617115 5.042721 5.33388095 5 7 C3.68 7.33 2.36 7.66 1 8 C0.67 5.36 0.34 2.72 0 0 Z " fill="#C6C6C6" transform="translate(46,140)"/>
<path d="M0 0 C0.99 0.33 1.98 0.66 3 1 C1.33333333 2.66666667 -0.33333333 4.33333333 -2 6 C-2.845625 6.9075 -3.69125 7.815 -4.5625 8.75 C-6.98553865 10.98665106 -7.91281075 11.3995319 -11 12 C-7.49102731 7.81576108 -3.91939465 3.80411834 0 0 Z " fill="#3E4148" transform="translate(149,97)"/>
<path d="M0 0 C0.78375 0.185625 1.5675 0.37125 2.375 0.5625 C4.97089775 1.25962266 4.97089775 1.25962266 7 0 C5.75023244 3.65316671 5.32901247 4.78065836 2 7 C1.01 6.34 0.02 5.68 -1 5 C-0.67 3.35 -0.34 1.7 0 0 Z " fill="#777777" transform="translate(169,21)"/>
<path d="M0 0 C1.65 0 3.3 0 5 0 C5.33 0.66 5.66 1.32 6 2 C6.66 2 7.32 2 8 2 C7.67 2.99 7.34 3.98 7 5 C4.69 5 2.38 5 0 5 C0 3.35 0 1.7 0 0 Z " fill="#818181" transform="translate(99,10)"/>
<path d="M0 0 C0.33 0.66 0.66 1.32 1 2 C2.98 2 4.96 2 7 2 C6.67 3.32 6.34 4.64 6 6 C6 5.34 6 4.68 6 4 C5.34 4 4.68 4 4 4 C3.67 4.99 3.34 5.98 3 7 C2.01 7 1.02 7 0 7 C0 4.69 0 2.38 0 0 Z " fill="#646464" transform="translate(192,8)"/>
<path d="M0 0 C0.93423645 3.01031744 1.04449911 3.86650268 0 7 C-1.65 7 -3.3 7 -5 7 C-5 5.68 -5 4.36 -5 3 C-3.35 2.67 -1.7 2.34 0 2 C0 1.34 0 0.68 0 0 Z " fill="#AAAAAA" transform="translate(15,121)"/>
<path d="M0 0 C0.66 1.32 1.32 2.64 2 4 C-0.89675481 6.41396234 -3.59787701 8.38617243 -7 10 C-6.02223933 8.51990357 -5.0427506 7.04094856 -4.0625 5.5625 C-3.51722656 4.73878906 -2.97195312 3.91507813 -2.41015625 3.06640625 C-1 1 -1 1 0 0 Z " fill="#A8ABB3" transform="translate(216,50)"/>
<path d="M0 0 C2.31 0 4.62 0 7 0 C7 1.65 7 3.3 7 5 C4 6 4 6 1 5 C1.33 3.68 1.66 2.36 2 1 C1.34 0.67 0.68 0.34 0 0 Z " fill="#767676" transform="translate(26,20)"/>
<path d="M0 0 C3 0 6 0 9 0 C8.01 0.495 8.01 0.495 7 1 C6.67 1.99 6.34 2.98 6 4 C4.02 4.33 2.04 4.66 0 5 C-0.5625 3.0625 -0.5625 3.0625 -1 1 C-0.67 0.67 -0.34 0.34 0 0 Z " fill="#6B6B6B" transform="translate(76,21)"/>
<path d="M0 0 C1.65 0 3.3 0 5 0 C5 1.98 5 3.96 5 6 C3.02 5.34 1.04 4.68 -1 4 C-0.67 2.68 -0.34 1.36 0 0 Z " fill="#A9A9A9" transform="translate(22,112)"/>
<path d="M0 0 C2.97 0.495 2.97 0.495 6 1 C6 1.66 6 2.32 6 3 C5.34 3.66 4.68 4.32 4 5 C4 5.99 4 6.98 4 8 C2.68 8 1.36 8 0 8 C0 5.36 0 2.72 0 0 Z " fill="#858585" transform="translate(242,107)"/>
<path d="M0 0 C1.98 0 3.96 0 6 0 C5.814375 0.78375 5.62875 1.5675 5.4375 2.375 C4.74037734 4.97089775 4.74037734 4.97089775 6 7 C4.68 7 3.36 7 2 7 C2 5.68 2 4.36 2 3 C1.34 2.67 0.68 2.34 0 2 C0 1.34 0 0.68 0 0 Z " fill="#909090" transform="translate(10,98)"/>
<path d="M0 0 C1.32 0.33 2.64 0.66 4 1 C4 2.32 4 3.64 4 5 C1.69 4.67 -0.62 4.34 -3 4 C-2.01 2.68 -1.02 1.36 0 0 Z " fill="#FAF9FC" transform="translate(177,85)"/>
<path d="M0 0 C2.99332739 0.9977758 3.94766315 1.7522025 6 4 C5.67 4.99 5.34 5.98 5 7 C3.35 6.67 1.7 6.34 0 6 C0 4.02 0 2.04 0 0 Z " fill="#F9F9F9" transform="translate(144,15)"/>
<path d="M0 0 C0.66 0 1.32 0 2 0 C2 2.31 2 4.62 2 7 C0.35 6.67 -1.3 6.34 -3 6 C-2.67 4.68 -2.34 3.36 -2 2 C-1.34 2 -0.68 2 0 2 C0 1.34 0 0.68 0 0 Z " fill="#616161" transform="translate(41,8)"/>
<path d="M0 0 C1.98 0.495 1.98 0.495 4 1 C3.67 2.65 3.34 4.3 3 6 C1.68 5.67 0.36 5.34 -1 5 C-0.67 3.35 -0.34 1.7 0 0 Z " fill="#4B4B4B" transform="translate(193,185)"/>
<path d="M0 0 C0.66 0 1.32 0 2 0 C2 0.66 2 1.32 2 2 C2.66 2 3.32 2 4 2 C4 1.34 4 0.68 4 0 C4.66 0 5.32 0 6 0 C6 1.65 6 3.3 6 5 C4.02 5 2.04 5 0 5 C0 3.35 0 1.7 0 0 Z " fill="#A6A6A6" transform="translate(29,150)"/>
<path d="M0 0 C0.99 0.66 1.98 1.32 3 2 C3.1875 4.625 3.1875 4.625 3 7 C1.35 6.67 -0.3 6.34 -2 6 C-1.34 4.02 -0.68 2.04 0 0 Z " fill="#CCCCCC" transform="translate(225,148)"/>
<path d="M0 0 C2.97 0.495 2.97 0.495 6 1 C6 1.99 6 2.98 6 4 C4.02 4.33 2.04 4.66 0 5 C0 3.35 0 1.7 0 0 Z " fill="#BABABA" transform="translate(93,105)"/>
<path d="M0 0 C1.65 0 3.3 0 5 0 C5.33 1.98 5.66 3.96 6 6 C4.68 6.33 3.36 6.66 2 7 C1.34 4.69 0.68 2.38 0 0 Z " fill="#C4C4C4" transform="translate(221,79)"/>
<path d="M0 0 C1.65 0 3.3 0 5 0 C5.33 1.32 5.66 2.64 6 4 C2.98968256 4.93423645 2.13349732 5.04449911 -1 4 C-0.67 2.68 -0.34 1.36 0 0 Z " fill="#A3A3A3" transform="translate(22,56)"/>
<path d="M0 0 C1.32 1.32 2.64 2.64 4 4 C-2.625 7.125 -2.625 7.125 -6 6 C-5.34 5.67 -4.68 5.34 -4 5 C-4.33 4.34 -4.66 3.68 -5 3 C-4.34 3 -3.68 3 -3 3 C-2.67 2.34 -2.34 1.68 -2 1 C-2 1.66 -2 2.32 -2 3 C-1.34 3 -0.68 3 0 3 C0 2.01 0 1.02 0 0 Z " fill="#DDDDDD" transform="translate(150,22)"/>
<path d="M0 0 C1.98 0 3.96 0 6 0 C6 1.65 6 3.3 6 5 C2 5 2 5 -1 4 C-0.67 2.68 -0.34 1.36 0 0 Z " fill="#7D7D7D" transform="translate(68,21)"/>
<path d="M0 0 C1.134375 0.020625 2.26875 0.04125 3.4375 0.0625 C3.1075 1.3825 2.7775 2.7025 2.4375 4.0625 C2.1075 4.0625 1.7775 4.0625 1.4375 4.0625 C-0.23071323 4.38800502 -1.89749557 4.72096063 -3.5625 5.0625 C-4.125 3.125 -4.125 3.125 -4.5625 1.0625 C-3.5625 0.0625 -3.5625 0.0625 0 0 Z " fill="#676767" transform="translate(44.5625,20.9375)"/>
<path d="M0 0 C0.99 0.99 1.98 1.98 3 3 C2.25 4.9375 2.25 4.9375 1 7 C-1.125 7.75 -1.125 7.75 -3 8 C-3.33 6.35 -3.66 4.7 -4 3 C-2.68 3 -1.36 3 0 3 C0 2.01 0 1.02 0 0 Z " fill="#A5A5A5" transform="translate(157,159)"/>
<path d="M0 0 C0.99 0.99 1.98 1.98 3 3 C2.25 4.9375 2.25 4.9375 1 7 C-1.125 7.75 -1.125 7.75 -3 8 C-3.33 6.35 -3.66 4.7 -4 3 C-2.68 3 -1.36 3 0 3 C0 2.01 0 1.02 0 0 Z " fill="#A3A3A3" transform="translate(62,159)"/>
<path d="M0 0 C3.96 0 7.92 0 12 0 C11.67 0.99 11.34 1.98 11 3 C7.66666667 3 4.33333333 3 1 3 C0.67 2.01 0.34 1.02 0 0 Z " fill="#959595" transform="translate(73,144)"/>
<path d="M0 0 C0.99 0 1.98 0 3 0 C3 0.66 3 1.32 3 2 C3.99 2 4.98 2 6 2 C6 3.32 6 4.64 6 6 C3.03 5.505 3.03 5.505 0 5 C0 3.35 0 1.7 0 0 Z " fill="#A1A1A1" transform="translate(90,142)"/>
<path d="M0 0 C0 1.65 0 3.3 0 5 C-1.98 5.33 -3.96 5.66 -6 6 C-6.33 5.01 -6.66 4.02 -7 3 C-6.67 2.34 -6.34 1.68 -6 1 C-2 0 -2 0 0 0 Z " fill="#ABABAB" transform="translate(74,104)"/>
<path d="M0 0 C1.04059132 3.12177395 1.32284898 4.07083439 0 7 C-2.5625 8.25 -2.5625 8.25 -5 9 C-4.42647107 5.12867972 -2.51295648 2.91827204 0 0 Z " fill="#E8EAEE" transform="translate(149,99)"/>
<path d="M0 0 C2.31 0 4.62 0 7 0 C6.34 1.65 5.68 3.3 5 5 C4.01 5 3.02 5 2 5 C2 4.01 2 3.02 2 2 C1.67 2.66 1.34 3.32 1 4 C0.34 3.67 -0.32 3.34 -1 3 C-0.67 2.01 -0.34 1.02 0 0 Z " fill="#737373" transform="translate(153,21)"/>
<path d="M0 0 C0.33 0.99 0.66 1.98 1 3 C1.99 3 2.98 3 4 3 C4.33 2.01 4.66 1.02 5 0 C5 0.66 5 1.32 5 2 C5.66 2 6.32 2 7 2 C6.67 2.99 6.34 3.98 6 5 C4.125 5.8125 4.125 5.8125 2 6 C1.01 5.34 0.02 4.68 -1 4 C-0.67 2.68 -0.34 1.36 0 0 Z " fill="#A8A8A8" transform="translate(224,136)"/>
<path d="M0 0 C0.99 0.33 1.98 0.66 3 1 C3.33 2.65 3.66 4.3 4 6 C2.02 6 0.04 6 -2 6 C-1.34 4.02 -0.68 2.04 0 0 Z " fill="#535353" transform="translate(153,9)"/>
<path d="M0 0 C0.99 0 1.98 0 3 0 C3.33 1.32 3.66 2.64 4 4 C1 6 1 6 -1.1875 5.625 C-1.785625 5.41875 -2.38375 5.2125 -3 5 C-3 3.68 -3 2.36 -3 1 C-1 2 -1 2 0 3 C0 2.01 0 1.02 0 0 Z " fill="#929292" transform="translate(150,156)"/>
<path d="M0 0 C0.33 0.99 0.66 1.98 1 3 C1.66 3 2.32 3 3 3 C3.33 4.98 3.66 6.96 4 9 C2.35 8.67 0.7 8.34 -1 8 C-0.67 5.36 -0.34 2.72 0 0 Z " fill="#848484" transform="translate(12,87)"/>
<path d="M0 0 C0.66 0.66 1.32 1.32 2 2 C0.79296875 3.55078125 0.79296875 3.55078125 -1 5 C-3.26171875 4.85546875 -3.26171875 4.85546875 -5.6875 4.1875 C-6.89986328 3.86845703 -6.89986328 3.86845703 -8.13671875 3.54296875 C-9.05904297 3.27419922 -9.05904297 3.27419922 -10 3 C-10 2.67 -10 2.34 -10 2 C-8.72125 2.04125 -7.4425 2.0825 -6.125 2.125 C-3.98128508 2.24212873 -3.98128508 2.24212873 -2 2 C-1.34 1.34 -0.68 0.68 0 0 Z " fill="#58575F" transform="translate(182,80)"/>
<path d="M0 0 C0.556875 0.226875 1.11375 0.45375 1.6875 0.6875 C-0.44714912 3.14234649 -2.01970291 4.36884222 -5.3125 4.6875 C-5.9725 4.0275 -6.6325 3.3675 -7.3125 2.6875 C-2.88173077 -0.38942308 -2.88173077 -0.38942308 0 0 Z " fill="#DEDEE6" transform="translate(195.3125,74.3125)"/>
<path d="M0 0 C0.99 0 1.98 0 3 0 C3 0.66 3 1.32 3 2 C3.66 2 4.32 2 5 2 C5 3.32 5 4.64 5 6 C3.35 6 1.7 6 0 6 C0 4.02 0 2.04 0 0 Z " fill="#D1D1D1" transform="translate(223,65)"/>
<path d="M0 0 C1.66666667 0 3.33333333 0 5 0 C5 1.65 5 3.3 5 5 C3.35 5 1.7 5 0 5 C-0.33 4.01 -0.66 3.02 -1 2 C-0.67 1.34 -0.34 0.68 0 0 Z " fill="#969696" transform="translate(22,150)"/>
<path d="M0 0 C1.65 0 3.3 0 5 0 C5 1.65 5 3.3 5 5 C4.67 4.34 4.34 3.68 4 3 C3.34 3 2.68 3 2 3 C2 3.66 2 4.32 2 5 C1.01 4.67 0.02 4.34 -1 4 C-0.67 2.68 -0.34 1.36 0 0 Z " fill="#A2A2A2" transform="translate(22,131)"/>
<path d="M0 0 C2.475 0.495 2.475 0.495 5 1 C4.67 2.65 4.34 4.3 4 6 C2.68 6 1.36 6 0 6 C0 4.02 0 2.04 0 0 Z " fill="#989898" transform="translate(242,116)"/>
<path d="M0 0 C6.93 0.495 6.93 0.495 14 1 C14 1.33 14 1.66 14 2 C9.38 2.33 4.76 2.66 0 3 C0 2.01 0 1.02 0 0 Z " fill="#DADBDD" transform="translate(43,116)"/>
<path d="M0 0 C0.99 0.33 1.98 0.66 3 1 C4.1875 3.5625 4.1875 3.5625 5 6 C3.35 6 1.7 6 0 6 C-0.38218767 4.34385343 -0.71395102 2.67542976 -1 1 C-0.67 0.67 -0.34 0.34 0 0 Z " fill="#B4B4B4" transform="translate(232,107)"/>
<path d="M0 0 C1.65 0 3.3 0 5 0 C5.33 1.65 5.66 3.3 6 5 C5.01 5 4.02 5 3 5 C2.67 4.34 2.34 3.68 2 3 C1.01 3.495 1.01 3.495 0 4 C0 2.68 0 1.36 0 0 Z " fill="#ABABAB" transform="translate(230,94)"/>
<path d="M0 0 C1.65 0 3.3 0 5 0 C5.33 1.32 5.66 2.64 6 4 C3.66666667 4 1.33333333 4 -1 4 C-0.67 2.68 -0.34 1.36 0 0 Z " fill="#9A9A9A" transform="translate(22,75)"/>
<path d="M0 0 C0.33 1.32 0.66 2.64 1 4 C-0.98 5.32 -2.96 6.64 -5 8 C-5.33 7.01 -5.66 6.02 -6 5 C-5.34 4.67 -4.68 4.34 -4 4 C-3.34 3.01 -2.68 2.02 -2 1 C-1.34 1.33 -0.68 1.66 0 2 C0 1.34 0 0.68 0 0 Z " fill="#EAEAF0" transform="translate(203,62)"/>
<path d="M0 0 C0.66 0.33 1.32 0.66 2 1 C-0.97 3.64 -3.94 6.28 -7 9 C-7.66 8.34 -8.32 7.68 -9 7 C-6.03 4.69 -3.06 2.38 0 0 Z " fill="#454853" transform="translate(216,55)"/>
<path d="M0 0 C1.32 0 2.64 0 4 0 C3.67 1.65 3.34 3.3 3 5 C1.68 5 0.36 5 -1 5 C-0.67 3.35 -0.34 1.7 0 0 Z " fill="#7F7F7F" transform="translate(163,20)"/>
<path d="M0 0 C1.4540625 0.0309375 1.4540625 0.0309375 2.9375 0.0625 C1.9475 0.5575 1.9475 0.5575 0.9375 1.0625 C0.9375 1.7225 0.9375 2.3825 0.9375 3.0625 C-0.4375 4.6875 -0.4375 4.6875 -2.0625 6.0625 C-2.7225 6.0625 -3.3825 6.0625 -4.0625 6.0625 C-4.105221 4.39638095 -4.10313832 2.72867115 -4.0625 1.0625 C-3.0625 0.0625 -3.0625 0.0625 0 0 Z " fill="#FBFBFB" transform="translate(93.0625,14.9375)"/>
<path d="M0 0 C2.64 0 5.28 0 8 0 C6.515 1.98 6.515 1.98 5 4 C3.35 3.67 1.7 3.34 0 3 C0 2.01 0 1.02 0 0 Z " fill="#FCFCFC" transform="translate(49,153)"/>
<path d="M0 0 C5.75 -0.125 5.75 -0.125 8 1 C7.67 1.66 7.34 2.32 7 3 C3.9375 3.625 3.9375 3.625 1 4 C0.67 2.68 0.34 1.36 0 0 Z " fill="#A6A6A6" transform="translate(81,105)"/>
<path d="M0 0 C0.99 0.33 1.98 0.66 3 1 C3 1.66 3 2.32 3 3 C3.66 3 4.32 3 5 3 C4.67 3.99 4.34 4.98 4 6 C2.68 5.67 1.36 5.34 0 5 C-0.5625 3.0625 -0.5625 3.0625 -1 1 C-0.67 0.67 -0.34 0.34 0 0 Z " fill="#B5B5B5" transform="translate(232,79)"/>
<path d="M0 0 C0.33 0.66 0.66 1.32 1 2 C-1.9826906 3.52448631 -4.818202 4.93940067 -8 6 C-8.33 6.99 -8.66 7.98 -9 9 C-9.33 8.34 -9.66 7.68 -10 7 C-6.87378374 3.60582235 -4.43458973 1.3937282 0 0 Z " fill="#A1A1A7" transform="translate(196,76)"/>
<path d="M0 0 C1.9375 0.3125 1.9375 0.3125 4 1 C4.33 1.99 4.66 2.98 5 4 C4.67 4.66 4.34 5.32 4 6 C2.68 5.67 1.36 5.34 0 5 C0 3.35 0 1.7 0 0 Z " fill="#9A9A9A" transform="translate(242,67)"/>
<path d="M0 0 C0.66 0 1.32 0 2 0 C2 0.66 2 1.32 2 2 C2.99 2.33 3.98 2.66 5 3 C4.67 4.32 4.34 5.64 4 7 C2.68 6.67 1.36 6.34 0 6 C0 4.02 0 2.04 0 0 Z " fill="#444444" transform="translate(19,8)"/>
<path d="M0 0 C2.64 0.33 5.28 0.66 8 1 C5.82575883 3.50037734 4.26954202 4.43628586 1 5 C0.67 3.35 0.34 1.7 0 0 Z " fill="#B0B0B0" transform="translate(88,164)"/>
<path d="M0 0 C-0.66 1.32 -1.32 2.64 -2 4 C-3.32 4 -4.64 4 -6 4 C-6 2.68 -6 1.36 -6 0 C-3 -1 -3 -1 0 0 Z " fill="#979797" transform="translate(52,162)"/>
<path d="M0 0 C0.99 0.33 1.98 0.66 3 1 C3.6875 3.0625 3.6875 3.0625 4 5 C2.35 5.66 0.7 6.32 -1 7 C-0.67 4.69 -0.34 2.38 0 0 Z " fill="#9E9E9E" transform="translate(197,155)"/>
<path d="M0 0 C1.66666667 1.66666667 3.33333333 3.33333333 5 5 C-0.75 6.125 -0.75 6.125 -3 5 C-2.67 3.68 -2.34 2.36 -2 1 C-1.67 1.33 -1.34 1.66 -1 2 C-0.67 1.34 -0.34 0.68 0 0 Z " fill="#D3D3D3" transform="translate(89,143)"/>
<path d="M0 0 C0.33 1.32 0.66 2.64 1 4 C-0.98 4.99 -0.98 4.99 -3 6 C-3.33 4.35 -3.66 2.7 -4 1 C-2 0 -2 0 0 0 Z " fill="#F0F0F0" transform="translate(159,89)"/>
<path d="M0 0 C0.33 0.66 0.66 1.32 1 2 C1.66 2 2.32 2 3 2 C3 1.34 3 0.68 3 0 C3.66 0 4.32 0 5 0 C5 1.65 5 3.3 5 5 C3.35 4.67 1.7 4.34 0 4 C0 2.68 0 1.36 0 0 Z " fill="#9E9E9E" transform="translate(30,56)"/>
<path d="M0 0 C0.66 0 1.32 0 2 0 C2 0.99 2 1.98 2 3 C2.66 3 3.32 3 4 3 C4.33 2.01 4.66 1.02 5 0 C5 1.32 5 2.64 5 4 C3.68 4.33 2.36 4.66 1 5 C0.67 3.35 0.34 1.7 0 0 Z " fill="#2D2D2D" transform="translate(231,186)"/>
<path d="M0 0 C0.66 0 1.32 0 2 0 C2.66 1.65 3.32 3.3 4 5 C3.01 5.99 2.02 6.98 1 8 C0.34 7.67 -0.32 7.34 -1 7 C-0.67 4.69 -0.34 2.38 0 0 Z " fill="#EFEFEF" transform="translate(120,157)"/>
<path d="M0 0 C2.475 0.495 2.475 0.495 5 1 C4.67 2.32 4.34 3.64 4 5 C2.68 5 1.36 5 0 5 C0 3.35 0 1.7 0 0 Z " fill="#A8A8A8" transform="translate(97,143)"/>
<path d="M0 0 C0.66 0 1.32 0 2 0 C2.66 1.98 3.32 3.96 4 6 C2.68 6.33 1.36 6.66 0 7 C0 6.34 0 5.68 0 5 C-0.99 4.34 -1.98 3.68 -3 3 C-2.34 3 -1.68 3 -1 3 C-0.67 2.01 -0.34 1.02 0 0 Z " fill="#C0C0C0" transform="translate(223,121)"/>
<path d="M0 0 C2.0625 0.4375 2.0625 0.4375 4 1 C3.01 1.495 3.01 1.495 2 2 C2.33 2.99 2.66 3.98 3 5 C1.68 5.33 0.36 5.66 -1 6 C-1.042721 4.33388095 -1.04063832 2.66617115 -1 1 C-0.67 0.67 -0.34 0.34 0 0 Z " fill="#8A8A8A" transform="translate(244,98)"/>
<path d="M0 0 C-7.42857143 4.28571429 -7.42857143 4.28571429 -11 6 C-4.94863014 -1.48458904 -4.94863014 -1.48458904 0 0 Z " fill="#393940" transform="translate(175,84)"/>
<path d="M0 0 C0.33 0 0.66 0 1 0 C1.33 1.98 1.66 3.96 2 6 C1.34 6 0.68 6 0 6 C-0.33 6.66 -0.66 7.32 -1 8 C-1.66 7.01 -2.32 6.02 -3 5 C-2.67 4.01 -2.34 3.02 -2 2 C-1.34 2 -0.68 2 0 2 C0 1.34 0 0.68 0 0 Z " fill="#EFEFEF" transform="translate(11,87)"/>
<path d="M0 0 C0 1.65 0 3.3 0 5 C-1.32 5.33 -2.64 5.66 -4 6 C-3.625 3.5625 -3.625 3.5625 -3 1 C-1 0 -1 0 0 0 Z " fill="#707070" transform="translate(137,20)"/>
<path d="M0 0 C0.66 0 1.32 0 2 0 C2 0.66 2 1.32 2 2 C2.66 2 3.32 2 4 2 C4.33 1.34 4.66 0.68 5 0 C5 1.65 5 3.3 5 5 C4.67 4.34 4.34 3.68 4 3 C3.34 3 2.68 3 2 3 C2 3.99 2 4.98 2 6 C1.34 6 0.68 6 0 6 C0 4.02 0 2.04 0 0 Z " fill="#424242" transform="translate(46,9)"/>
<path d="M0 0 C1.98 0 3.96 0 6 0 C6 1.32 6 2.64 6 4 C4.02 4 2.04 4 0 4 C0 2.68 0 1.36 0 0 Z " fill="#989898" transform="translate(51,144)"/>
<path d="M0 0 C1.32 0 2.64 0 4 0 C4.33 1.65 4.66 3.3 5 5 C3.68 4.67 2.36 4.34 1 4 C0.67 2.68 0.34 1.36 0 0 Z " fill="#AEAEAE" transform="translate(231,136)"/>
<path d="M0 0 C0.99 0 1.98 0 3 0 C3.33 1.98 3.66 3.96 4 6 C2.35 5.01 0.7 4.02 -1 3 C-0.67 2.01 -0.34 1.02 0 0 Z " fill="#AFAFAF" transform="translate(232,51)"/>
<path d="M0 0 C0.99 0 1.98 0 3 0 C3 1.32 3 2.64 3 4 C3.66 4.33 4.32 4.66 5 5 C4.34 5.66 3.68 6.32 3 7 C1.68 5.68 0.36 4.36 -1 3 C-0.67 2.01 -0.34 1.02 0 0 Z " fill="#D4D4D4" transform="translate(130,22)"/>
<path d="M0 0 C2.64 0.33 5.28 0.66 8 1 C7.67 1.66 7.34 2.32 7 3 C4.4375 3.625 4.4375 3.625 2 4 C1.34 2.68 0.68 1.36 0 0 Z " fill="#F2F2F2" transform="translate(115,25)"/>
<path d="M0 0 C1.9375 0.375 1.9375 0.375 4 1 C4.33 1.66 4.66 2.32 5 3 C4.01 3 3.02 3 2 3 C1.67 3.66 1.34 4.32 1 5 C0.01 4.67 -0.98 4.34 -2 4 C-1.34 2.68 -0.68 1.36 0 0 Z " fill="#EFEFEF" transform="translate(161,17)"/>
<path d="M0 0 C0.33 0.66 0.66 1.32 1 2 C1.99 2.33 2.98 2.66 4 3 C4.33 3.99 4.66 4.98 5 6 C2 6 2 6 0 5 C0 3.35 0 1.7 0 0 Z " fill="#F0F0F0" transform="translate(9,13)"/>
<path d="M0 0 C0.33 0.99 0.66 1.98 1 3 C1.66 3 2.32 3 3 3 C3 2.01 3 1.02 3 0 C3.66 0 4.32 0 5 0 C4.67 1.65 4.34 3.3 4 5 C2.68 4.67 1.36 4.34 0 4 C0 2.68 0 1.36 0 0 Z " fill="#2A2A2A" transform="translate(225,186)"/>
<path d="M0 0 C0.99 0.33 1.98 0.66 3 1 C3.6875 3.0625 3.6875 3.0625 4 5 C2.35 5 0.7 5 -1 5 C-0.67 3.35 -0.34 1.7 0 0 Z " fill="#A6A6A6" transform="translate(66,157)"/>
<path d="M0 0 C1.65 0 3.3 0 5 0 C4.67 0.99 4.34 1.98 4 3 C1.9375 3.6875 1.9375 3.6875 0 4 C-0.33 3.34 -0.66 2.68 -1 2 C-0.67 1.34 -0.34 0.68 0 0 Z " fill="#AEAEAE" transform="translate(57,144)"/>
<path d="M0 0 C1.32 0.33 2.64 0.66 4 1 C4 2.32 4 3.64 4 5 C2.68 5.33 1.36 5.66 0 6 C0 4.02 0 2.04 0 0 Z " fill="#898989" transform="translate(242,92)"/>
<path d="M0 0 C-0.33 1.32 -0.66 2.64 -1 4 C-2.9375 3.6875 -2.9375 3.6875 -5 3 C-5.33 2.01 -5.66 1.02 -6 0 C-2.25 -1.125 -2.25 -1.125 0 0 Z " fill="#808080" transform="translate(120,22)"/>
</svg>
