<?xml version="1.0" standalone="no"?>
<!DOCTYPE svg PUBLIC "-//W3C//DTD SVG 20010904//EN"
 "http://www.w3.org/TR/2001/REC-SVG-20010904/DTD/svg10.dtd">
<svg version="1.0" xmlns="http://www.w3.org/2000/svg"
 width="630.000000pt" height="355.000000pt" viewBox="0 0 630.000000 355.000000"
 preserveAspectRatio="xMidYMid meet">

<g transform="translate(0.000000,355.000000) scale(0.100000,-0.100000)"
fill="#000000" stroke="none">
<path d="M0 3255 l0 -295 33 -1 c17 -1 39 -3 47 -3 30 -3 389 -16 580 -21 325
-9 596 -22 609 -29 3 -2 209 -7 456 -11 248 -3 530 -10 627 -15 97 -4 206 -5
242 -3 57 5 65 8 69 29 2 13 -1 25 -7 27 -6 2 -7 8 -3 13 4 4 16 3 25 -3 17
-11 19 -26 8 -53 -5 -13 29 -15 271 -18 153 -1 286 -5 296 -8 25 -8 21 9 -9
36 -17 17 -23 31 -19 47 3 12 1 24 -5 28 -5 3 -7 12 -4 19 3 8 -7 25 -22 39
-28 26 -25 52 6 42 15 -5 17 -1 10 35 -4 22 -4 40 1 40 5 0 4 12 -1 26 -14 37
-12 64 5 64 11 0 13 7 9 29 -5 23 -2 29 16 34 18 5 21 12 19 40 -2 19 2 41 9
49 9 11 8 19 -4 36 -8 12 -22 22 -30 22 -8 0 -14 5 -14 10 0 6 -9 19 -20 30
-36 36 -26 41 93 38 80 -2 111 -6 110 -15 -2 -6 6 -14 15 -17 10 -4 28 -20 40
-36 13 -17 31 -30 41 -30 10 0 22 -7 25 -16 8 -22 8 -26 -4 -19 -5 3 -10 -1
-10 -9 0 -10 6 -13 17 -9 11 4 14 3 9 -5 -5 -8 2 -12 21 -12 22 0 25 -2 13
-10 -12 -8 -9 -10 13 -10 17 0 27 -5 27 -15 0 -8 11 -17 25 -21 14 -3 25 -12
25 -20 0 -17 17 -19 22 -2 2 6 10 -3 17 -21 15 -36 6 -55 -13 -28 -12 16 -36
24 -36 12 0 -3 12 -17 28 -30 15 -13 21 -25 15 -25 -7 0 -13 -4 -13 -10 0 -5
8 -7 18 -4 13 4 12 1 -5 -14 -28 -25 -29 -42 -3 -42 11 0 20 -4 20 -10 0 -5
10 -15 22 -21 17 -9 24 -9 33 4 13 18 39 26 43 13 2 -5 -9 -16 -25 -25 -15 -9
-31 -20 -34 -24 -3 -4 -16 -3 -30 2 -13 5 -20 10 -15 10 5 1 3 8 -4 16 -11 13
-15 13 -21 3 -7 -10 -9 -9 -9 5 0 9 -5 17 -12 17 -7 0 -29 12 -49 26 -34 23
-37 28 -26 47 7 12 17 25 22 29 6 5 3 8 -7 8 -9 0 -20 -9 -23 -21 -4 -13 -11
-17 -18 -11 -7 5 -31 14 -55 21 -26 7 -42 17 -39 24 2 7 -2 18 -10 26 -12 11
-14 10 -11 -5 2 -13 -3 -19 -14 -18 -21 2 -13 -23 12 -36 22 -12 15 -54 -7
-46 -8 3 -11 1 -8 -4 3 -6 1 -10 -4 -10 -6 0 -11 14 -11 30 0 26 -3 29 -17 21
-10 -5 -27 -12 -38 -16 -15 -5 -16 -8 -6 -14 19 -12 9 -44 -17 -56 -27 -12
-29 -29 -2 -20 11 4 20 2 20 -4 0 -7 8 -7 26 -1 33 13 34 13 34 -4 0 -18 39
-28 78 -20 41 8 49 -10 18 -41 -32 -32 -32 -34 -3 -28 21 4 20 3 -5 -21 -31
-28 -35 -38 -13 -30 10 4 15 0 15 -11 0 -9 -6 -15 -12 -12 -7 2 -18 -3 -24
-11 -10 -13 -15 -12 -43 8 -23 16 -36 19 -43 12 -8 -8 -6 -16 6 -27 9 -9 16
-20 16 -25 0 -5 18 -7 40 -4 22 3 46 1 53 -3 7 -4 106 -8 221 -10 156 -2 212
-6 218 -15 5 -9 8 -3 8 15 0 15 4 27 10 27 5 0 9 -5 7 -12 -1 -7 4 -13 11 -14
6 -1 15 -3 20 -4 4 -2 68 -4 142 -5 252 -3 325 -6 393 -13 38 -5 70 -4 73 0 3
5 11 5 17 1 15 -9 45 -14 84 -14 20 1 36 -5 42 -17 9 -16 10 -16 16 1 7 17 35
24 35 8 0 -16 90 12 91 28 0 11 2 12 6 4 2 -7 14 -13 26 -14 12 0 -14 -12 -58
-26 -99 -30 -135 -45 -135 -57 0 -4 -7 -5 -16 -2 -9 4 -22 2 -28 -2 -21 -17
-76 -23 -82 -8 -4 10 -31 12 -122 9 -64 -3 -301 0 -527 5 -225 5 -581 12 -790
16 -470 7 -728 13 -1145 27 -178 5 -520 14 -760 20 -508 11 -966 25 -1132 35
l-118 7 0 -351 0 -351 133 -3 132 -3 1 -100 c1 -55 -1 -90 -3 -77 -5 25 -23
31 -23 7 0 -12 -16 -15 -80 -15 -64 0 -80 3 -80 15 0 11 -11 15 -40 15 l-40 0
0 -740 0 -740 23 -4 c65 -14 151 -17 572 -22 271 -3 565 -1 715 6 447 19 965
39 1300 50 179 6 435 17 570 25 135 8 361 20 503 27 142 6 251 15 244 20 -27
15 -319 29 -584 28 -150 0 -273 1 -273 2 0 2 11 25 25 52 14 27 25 55 25 62 0
8 6 11 16 7 24 -9 156 18 179 37 11 9 38 22 61 28 22 7 51 21 64 32 15 13 27
17 33 11 15 -15 36 -133 31 -171 -5 -32 -4 -35 19 -35 24 0 25 2 22 54 -2 30
-8 57 -13 60 -6 3 -13 27 -17 54 -8 50 3 61 34 33 9 -7 66 -25 128 -39 62 -13
119 -32 128 -41 9 -8 35 -21 58 -27 23 -6 54 -16 70 -21 25 -10 26 -12 10 -24
-11 -8 -46 -13 -91 -14 -77 0 -162 -16 -162 -31 0 -5 4 -9 9 -9 4 0 48 -7 97
-16 73 -12 177 -15 577 -15 268 1 498 3 510 6 12 2 236 9 497 15 261 5 575 13
698 16 l222 7 0 208 0 209 -68 0 c-72 0 -92 10 -92 44 0 16 -3 17 -9 8 -5 -9
-11 21 -15 77 -4 50 -5 95 -2 100 9 14 -9 17 -70 11 l-55 -5 -5 -100 c-4 -87
-19 -203 -26 -211 -2 -1 -30 -4 -63 -5 -33 -2 -63 -8 -67 -13 -4 -6 -12 -5
-21 2 -7 7 -17 9 -20 6 -3 -4 -75 -8 -159 -9 -84 -2 -207 -5 -273 -9 -66 -3
-213 -8 -327 -11 -239 -7 -213 -21 -224 123 -6 80 -9 92 -25 92 -17 0 -49 34
-49 52 0 16 19 7 25 -12 3 -11 15 -20 26 -20 15 0 19 7 19 31 l0 30 -172 -5
c-240 -7 -430 -16 -518 -23 -59 -4 -70 -7 -51 -14 17 -7 21 -14 15 -27 -4 -9
-9 -36 -12 -59 -4 -41 -25 -63 -38 -41 -4 6 -10 39 -13 71 -8 84 -31 89 -31 8
0 -45 -4 -61 -14 -61 -8 0 -16 -7 -20 -15 -9 -24 -26 -17 -26 10 0 18 5 25 20
25 17 0 20 7 20 50 l0 50 -211 0 -212 0 6 -55 c7 -69 12 -78 39 -64 18 10 20
9 14 -7 -4 -11 -10 -33 -13 -51 -9 -52 -58 -51 -58 2 0 15 -6 19 -25 17 l-25
-2 3 80 4 80 -34 2 c-18 1 -46 3 -63 4 -16 1 -148 6 -292 10 l-263 7 0 -34 c0
-44 -6 -52 -60 -79 -101 -51 -175 -140 -200 -243 -14 -53 -26 -57 -87 -32 -45
19 -143 19 -365 0 -95 -8 -208 -17 -252 -20 -202 -13 -360 -33 -404 -51 -31
-12 -33 -12 -41 9 -9 23 -40 310 -43 388 0 25 2 51 6 57 4 7 30 12 57 12 46 0
50 2 44 20 -9 30 14 25 25 -6 13 -33 13 -75 1 -55 -7 11 -10 11 -15 0 -5 -11
-7 -11 -12 -1 -9 19 -52 14 -64 -7 -13 -25 2 -35 38 -25 15 4 65 8 112 9 47 1
106 3 133 4 40 1 47 4 47 21 0 16 -7 20 -30 20 -20 0 -30 -5 -30 -15 0 -19
-19 -19 -26 0 -8 19 -34 19 -34 0 0 -21 -13 -19 -28 6 -9 14 -19 18 -34 13
-15 -4 -19 -2 -16 7 6 17 61 24 293 38 734 45 861 54 873 63 25 21 10 48 -79
142 l-91 96 -236 -1 c-131 0 -312 -4 -404 -8 l-167 -8 -68 -44 c-108 -69 -250
-176 -256 -192 -3 -8 -20 -17 -37 -19 -28 -4 -31 -2 -26 16 3 13 -2 29 -15 42
l-20 21 48 31 c26 16 90 52 140 79 68 36 90 52 82 60 -9 9 -1 14 27 22 102 26
179 41 219 41 27 0 50 6 60 16 18 19 191 43 305 44 37 0 70 4 76 10 5 5 42 10
82 11 67 1 77 -1 131 -35 47 -28 69 -36 108 -36 27 0 54 5 60 11 8 8 13 8 17
0 4 -6 37 -11 74 -12 80 0 359 -33 369 -42 3 -4 -3 -7 -14 -7 -11 0 -26 -7
-33 -15 -11 -13 -41 -16 -177 -14 -91 0 -167 -1 -169 -4 -3 -3 34 -32 83 -64
164 -110 186 -128 166 -130 -10 -1 -48 -5 -86 -8 l-68 -7 3 -34 2 -34 329 0
c296 0 329 2 323 16 -3 9 -6 18 -6 20 0 12 -19 1 -23 -13 -3 -10 -5 2 -6 27
-1 43 0 44 15 22 17 -25 39 -30 30 -7 -4 11 2 15 27 15 18 0 27 -4 21 -8 -15
-10 3 -72 21 -72 10 0 13 11 12 40 -2 34 0 40 18 40 14 0 16 -3 7 -8 -8 -6
-10 -19 -6 -40 5 -25 12 -32 30 -32 25 0 27 6 24 53 -1 18 3 27 14 27 8 0 25
14 37 32 l23 31 -117 -6 c-64 -4 -117 -3 -117 1 0 5 39 9 88 11 114 3 238 16
337 36 90 17 107 19 295 30 154 9 151 8 305 120 55 40 121 84 147 100 27 15
48 30 48 34 0 19 92 43 212 56 l57 6 7 50 c8 61 22 64 26 4 2 -25 8 -44 13
-43 6 2 9 6 8 10 -5 14 15 8 20 -6 7 -17 64 -28 86 -16 10 5 106 11 213 13
108 3 201 7 207 11 6 4 11 34 11 67 0 38 4 58 10 54 6 -3 10 -22 10 -41 0 -33
1 -34 40 -34 40 0 40 0 40 39 0 21 6 43 13 48 20 16 150 31 193 23 38 -8 38
-8 -16 -9 -68 -2 -77 -7 -81 -51 -4 -33 -2 -35 28 -38 30 -3 32 -1 35 34 2 21
9 39 16 42 9 3 12 -15 12 -67 0 -56 3 -71 15 -71 8 0 15 7 15 15 0 8 -4 15
-10 15 -5 0 -7 7 -3 16 5 15 19 16 102 11 l96 -6 2 26 c0 14 7 29 15 34 10 7
10 9 -2 10 -34 2 -55 8 -58 18 -2 6 -25 11 -51 11 l-48 0 2 35 c0 19 -4 35
-10 36 -5 0 -34 0 -63 -1 -63 -2 -82 11 -82 55 0 46 41 79 89 71 33 -5 33 -5
27 28 -8 40 -23 35 224 66 96 12 177 24 179 26 13 12 -21 10 -189 -13 -194
-26 -218 -28 -228 -18 -11 11 19 22 77 29 31 3 120 16 199 28 l142 22 0 148
c0 125 -2 148 -15 148 -8 0 -15 4 -15 9 0 5 7 11 15 15 18 7 20 32 3 39 -10 4
-9 8 2 16 13 9 12 11 -4 11 -17 0 -17 2 -2 24 12 18 12 26 3 29 -9 4 -9 6 1 6
9 1 12 83 12 376 l0 375 -3150 0 -3150 0 0 -295z m715 254 c-3 -4 0 -17 7 -28
17 -28 5 -35 -30 -17 -17 9 -37 13 -45 11 -7 -3 -26 -1 -40 4 -22 9 -27 8 -27
-4 0 -8 -4 -15 -10 -15 -5 0 -10 7 -10 16 0 10 -5 14 -15 10 -8 -3 -21 -9 -29
-12 -8 -3 -16 3 -19 15 -7 26 -37 17 -37 -11 0 -10 -4 -16 -10 -13 -5 3 -10
15 -10 25 0 10 -8 21 -17 23 -10 3 15 4 55 4 39 -1 72 -4 72 -8 0 -3 28 -1 63
5 64 12 111 10 102 -5z m1410 7 c19 -8 35 -11 35 -5 0 5 7 9 15 9 8 0 15 -7
15 -15 0 -13 -12 -19 -32 -16 -4 0 -5 -6 -2 -14 4 -8 10 -15 15 -15 5 0 9 -8
9 -19 0 -14 -7 -18 -30 -17 -25 1 -30 5 -26 20 5 20 -13 56 -28 56 -5 0 -6 -3
-3 -7 4 -3 -1 -12 -11 -19 -16 -12 -15 -13 5 -14 28 0 20 -36 -10 -44 -26 -6
-50 12 -42 32 3 9 1 19 -6 22 -16 11 18 60 42 60 11 0 35 -7 54 -14z m488 8
c14 -5 16 -14 11 -39 -3 -20 -1 -35 6 -40 7 -4 -1 -14 -22 -25 -18 -10 -32
-23 -30 -30 1 -6 -4 -18 -13 -26 -8 -9 -15 -27 -15 -40 0 -21 4 -24 23 -19
l22 6 -22 -19 c-12 -11 -18 -24 -14 -31 14 -21 0 -61 -20 -61 -11 0 -19 7 -19
15 0 8 -5 15 -11 15 -7 0 -9 12 -5 34 4 20 2 37 -4 41 -5 3 -10 0 -10 -7 0 -9
-13 -13 -41 -13 -24 0 -44 -6 -49 -15 -9 -14 -11 -10 -10 15 1 3 -6 13 -15 21
-20 21 -19 44 3 45 52 4 96 -1 103 -13 5 -7 9 -8 9 -3 0 6 -7 20 -15 32 -9 13
-11 23 -4 25 14 5 0 38 -17 38 -8 0 -14 4 -14 9 0 5 -9 7 -20 4 -15 -4 -20 0
-20 16 0 31 -15 26 -40 -14 -12 -20 -26 -32 -33 -28 -7 4 -8 0 -4 -11 6 -14 3
-16 -16 -10 -37 11 -46 44 -11 44 16 0 19 16 3 25 -19 13 25 43 54 38 20 -4
27 -1 27 10 0 12 19 15 108 16 60 1 116 -1 125 -5z m294 -2 c6 -4 11 -22 11
-40 -1 -19 -4 -28 -8 -21 -4 6 -13 8 -20 4 -7 -4 -13 1 -17 14 -3 12 -9 21
-14 21 -5 0 -9 7 -9 15 0 16 36 20 57 7z m647 -1 c6 -2 34 -3 63 -2 33 2 53
-2 53 -8 0 -6 -4 -11 -10 -11 -5 0 -10 -4 -10 -10 0 -5 6 -10 14 -10 20 0 15
-54 -6 -58 -10 -2 -18 1 -18 7 0 6 -6 11 -14 11 -8 0 -17 7 -20 16 -3 8 -9 13
-14 10 -4 -2 -19 4 -32 14 -25 19 -25 18 -48 -3 l-24 -22 4 25 c3 22 0 25 -24
22 -16 -1 -28 2 -28 7 0 15 91 25 114 12z m2506 -1 c12 -8 12 -12 2 -18 -8 -6
-2 -9 19 -9 29 0 30 2 13 14 -16 12 -16 13 8 13 15 0 30 -5 33 -10 5 -8 11 -7
21 1 8 6 17 9 20 6 9 -9 -6 -27 -22 -27 -10 0 -12 -5 -7 -12 12 -20 14 -48 3
-48 -5 0 -14 15 -20 33 l-10 32 5 -35 c3 -19 10 -36 15 -38 6 -2 10 -8 10 -13
0 -6 -15 -7 -36 -3 -34 6 -36 5 -29 -16 5 -15 4 -20 -4 -16 -7 4 -11 -1 -11
-13 0 -14 5 -19 15 -15 20 8 19 -5 -2 -28 -16 -18 -16 -18 0 -12 20 7 46 -45
27 -56 -12 -7 -3 -40 10 -40 5 0 11 6 13 13 3 7 6 5 6 -5 1 -11 -6 -18 -16
-19 -15 0 -15 -2 2 -9 19 -9 19 -9 -3 -16 -16 -5 -21 -12 -17 -25 5 -13 1 -19
-10 -19 -11 0 -15 5 -11 15 6 16 -3 19 -28 9 -10 -4 -14 -14 -10 -28 4 -16 0
-22 -13 -23 -10 0 -34 -3 -53 -7 l-35 -6 39 18 c76 35 20 30 -99 -9 -74 -25
-129 -38 -143 -34 -13 3 -30 1 -38 -5 -7 -7 -18 -9 -23 -5 -7 4 -8 -1 -4 -12
5 -15 3 -16 -8 -5 -18 17 -32 15 -25 -4 5 -13 1 -15 -19 -12 -15 3 -22 1 -18
-5 4 -6 0 -8 -11 -4 -10 4 -24 1 -32 -8 -17 -17 -49 -21 -39 -5 6 10 1 9 -50
-11 -16 -7 -35 -13 -42 -15 -42 -8 -170 -49 -180 -57 -7 -5 -16 -6 -21 -3 -5
3 -34 -8 -65 -24 -34 -18 -64 -27 -79 -23 -16 3 -19 2 -10 -5 10 -7 4 -11 -23
-16 -25 -5 -42 -3 -49 4 -8 9 -5 11 13 5 15 -4 21 -3 17 3 -8 13 40 25 66 16
14 -4 18 -2 14 5 -4 6 -2 11 5 11 20 0 39 33 27 47 -15 19 17 17 36 -2 19 -19
26 -19 26 0 0 12 4 13 19 6 13 -8 23 -6 37 5 18 15 18 15 -8 10 -23 -5 -26 -3
-21 11 5 12 2 15 -10 10 -9 -3 -17 -2 -17 3 0 6 -6 10 -14 10 -24 0 -30 21 -7
27 12 3 21 9 21 14 0 5 10 9 23 9 12 0 29 5 37 11 11 8 8 9 -15 4 -29 -6 -29
-6 -10 9 11 8 26 16 33 16 6 0 12 5 12 10 0 15 -31 12 -49 -4 -9 -7 -30 -18
-47 -23 -25 -9 -32 -8 -42 7 -8 13 -7 21 1 30 10 10 6 11 -18 5 -16 -4 -46
-11 -65 -14 -24 -4 -36 -12 -39 -26 -6 -32 -41 -49 -41 -20 0 8 7 15 15 15 13
0 13 4 -1 38 -9 20 -18 43 -21 51 -5 10 0 12 18 6 32 -10 36 -15 20 -24 -17
-11 -4 -17 34 -18 21 0 23 1 7 4 -12 2 -20 8 -17 13 3 4 14 6 25 3 15 -4 20 0
20 16 0 11 -5 21 -11 21 -6 0 -7 5 -2 13 15 24 11 37 -15 43 -43 9 -49 12 -25
13 15 1 27 12 38 36 9 19 23 39 31 46 23 19 16 31 -15 24 -16 -3 -43 -7 -60
-7 -36 -1 -38 -5 -13 -25 15 -12 13 -13 -18 -7 -19 3 -37 8 -39 10 -8 7 -5 69
4 89 8 17 7 18 -7 7 -14 -11 -18 -10 -26 4 -8 14 -12 13 -34 -11 -19 -20 -31
-25 -47 -20 -17 5 -19 10 -11 26 6 10 19 19 30 19 26 0 16 24 -16 38 -13 7
-24 19 -24 29 0 14 -3 14 -20 -5 -25 -27 -25 -27 -68 0 -20 12 -32 16 -28 10
9 -15 -16 -16 -31 -1 -9 9 -11 7 -6 -9 4 -17 1 -20 -16 -15 -12 3 -24 9 -27
14 -9 15 -26 10 -20 -6 3 -8 4 -15 2 -15 -3 0 -12 -3 -22 -7 -11 -4 -15 -3
-11 4 4 6 0 18 -8 26 -8 9 -15 18 -15 21 0 9 117 11 810 14 450 2 680 -1 690
-8z m-5763 -25 c-12 -25 -27 -34 -27 -16 0 5 -3 16 -6 25 -5 12 0 16 19 16 23
0 24 -2 14 -25z m78 -12 c-1 -21 -3 -40 -4 -42 -1 -2 -7 2 -15 9 -8 6 -12 19
-9 27 4 9 -1 21 -12 29 -17 13 -16 14 13 14 30 0 31 -1 27 -37z m515 33 c0 -3
-4 -8 -10 -11 -5 -3 -10 -1 -10 4 0 6 5 11 10 11 6 0 10 -2 10 -4z m190 -6 c0
-5 -17 -10 -37 -10 -28 0 -34 3 -23 10 20 13 60 13 60 0z m90 1 c0 -5 16 -12
35 -15 54 -10 51 -25 -4 -21 -27 1 -54 6 -60 10 -18 11 -12 35 9 35 11 0 20
-4 20 -9z m490 0 c-8 -6 -18 -7 -22 -5 -4 3 -8 0 -8 -5 0 -6 4 -11 9 -11 10 0
25 -50 17 -57 -3 -3 -13 -2 -23 1 -14 6 -15 9 -4 15 7 5 12 14 9 21 -3 9 -9 8
-21 -4 -9 -10 -17 -13 -17 -7 0 18 5 26 13 24 4 -2 7 6 7 17 0 15 7 20 28 20
20 0 23 -3 12 -9z m310 -2 c0 -5 -4 -8 -9 -5 -13 9 -21 -20 -9 -32 6 -6 17 -8
24 -5 19 7 18 -12 -2 -28 -9 -8 -18 -9 -22 -3 -4 5 -20 16 -37 23 l-30 14 25
8 c14 4 18 8 10 8 -10 1 -6 7 10 16 30 17 40 18 40 4z m723 -9 c-3 -11 -7 -20
-8 -20 -1 0 -5 9 -8 20 -3 12 0 20 8 20 8 0 11 -8 8 -20z m1059 8 c-9 -9 -15
-9 -24 0 -9 9 -7 12 12 12 19 0 21 -3 12 -12z m75 6 c-3 -3 -12 -4 -19 -1 -8
3 -5 6 6 6 11 1 17 -2 13 -5z m153 -6 c0 -4 -8 -12 -19 -17 -13 -7 -17 -18
-14 -36 3 -15 1 -25 -6 -25 -6 0 -11 7 -11 15 0 8 -9 20 -19 27 -10 6 -17 17
-14 24 2 7 -4 14 -14 17 -10 3 8 4 40 4 31 -1 57 -5 57 -9z m377 6 c-3 -3 -12
-4 -19 -1 -8 3 -5 6 6 6 11 1 17 -2 13 -5z m113 -13 c0 -18 -30 -52 -30 -35 0
5 -7 0 -15 -10 -18 -24 -29 -16 -20 14 5 15 12 19 26 15 23 -8 24 -2 3 19 -14
15 -13 16 10 16 19 0 26 -5 26 -19z m71 -8 c-8 -31 -31 -43 -31 -16 0 19 18
43 31 43 4 0 4 -12 0 -27z m-4328 -23 c-21 -3 -44 -9 -50 -13 -8 -5 -13 -3
-13 3 0 6 13 13 29 16 17 4 33 14 36 23 6 14 8 14 21 -4 14 -19 13 -20 -23
-25z m6012 30 c-3 -5 -11 -10 -16 -10 -6 0 -7 5 -4 10 3 6 11 10 16 10 6 0 7
-4 4 -10z m-4790 -10 c-3 -5 -15 -10 -26 -10 -10 0 -19 -4 -19 -8 0 -7 -25 -8
-49 -3 -2 1 2 8 9 16 14 17 95 22 85 5z m2404 -4 c21 -25 -9 -31 -32 -7 l-21
21 21 0 c11 0 26 -6 32 -14z m-2794 -6 c3 -5 -3 -10 -14 -10 -12 0 -21 5 -21
10 0 6 6 10 14 10 8 0 18 -4 21 -10z m-940 -10 c-3 -5 -12 -7 -20 -3 -11 4
-13 1 -9 -11 3 -9 10 -16 15 -16 5 0 9 -5 9 -11 0 -8 -4 -8 -13 0 -10 8 -17 7
-25 -1 -9 -9 -12 -7 -12 8 0 11 5 25 12 32 14 14 52 16 43 2z m1180 0 c3 -5 2
-10 -4 -10 -5 0 -13 5 -16 10 -3 6 -2 10 4 10 5 0 13 -4 16 -10z m1700 -19 c0
-18 -7 -26 -27 -32 -32 -8 -36 -2 -10 17 10 8 12 13 5 14 -7 0 -13 7 -13 16 0
10 7 14 23 12 16 -2 22 -10 22 -27z m1012 -8 c-3 -10 -5 -4 -5 12 0 17 2 24 5
18 2 -7 2 -21 0 -30z m2187 22 c-4 -8 -11 -15 -16 -15 -6 0 -5 6 2 15 7 8 14
15 16 15 2 0 1 -7 -2 -15z m-5209 -5 c3 -5 -1 -10 -9 -10 -9 0 -16 5 -16 10 0
6 4 10 9 10 6 0 13 -4 16 -10z m782 -22 c0 -21 -5 -28 -19 -28 -10 0 -21 0
-24 -1 -4 0 -16 13 -27 31 l-20 31 45 -3 c41 -3 45 -5 45 -30z m2009 -14 c-14
-13 -16 -13 -16 -1 0 9 3 23 6 32 6 16 8 16 16 1 6 -11 4 -21 -6 -32z m271 20
c-9 -9 -28 6 -21 18 4 6 10 6 17 -1 6 -6 8 -13 4 -17z m2240 4 c-3 -8 -6 -5
-6 6 -1 11 2 17 5 13 3 -3 4 -12 1 -19z m-31 -3 c-3 -10 1 -15 12 -16 16 -1
16 -2 0 -6 -15 -4 -16 -8 -7 -25 8 -15 7 -24 -4 -36 -8 -9 -17 -25 -20 -34 -7
-19 -37 -25 -37 -8 0 6 5 10 10 10 6 0 10 7 10 16 0 8 -4 12 -10 9 -5 -3 -10
-1 -10 5 0 7 7 9 16 6 26 -10 37 5 14 21 -17 12 -24 13 -37 1 -10 -8 -14 -8
-10 -1 4 6 3 15 -3 18 -16 10 8 35 31 35 11 0 19 5 19 10 0 6 7 10 16 10 10 0
14 -6 10 -15z m-4856 -22 c0 -19 -3 -24 -10 -17 -6 6 -8 18 -4 27 9 24 14 21
14 -10z m2988 -13 c-3 -37 -18 -28 -18 11 0 18 4 28 10 24 6 -4 9 -19 8 -35z
m142 30 c0 -5 -10 -10 -22 -9 -22 0 -22 1 -3 9 11 5 21 9 23 9 1 1 2 -3 2 -9z
m-3225 -10 c3 -5 1 -10 -4 -10 -6 0 -11 5 -11 10 0 6 2 10 4 10 3 0 8 -4 11
-10z m530 0 c4 -6 -6 -10 -22 -9 -25 0 -26 1 -8 9 11 5 21 9 22 9 1 1 5 -3 8
-9z m1245 -1 c0 -5 -8 -13 -17 -16 -10 -4 -21 -11 -25 -17 -10 -15 -32 9 -25
27 6 16 67 21 67 6z m-2750 -9 c0 -5 -5 -10 -11 -10 -5 0 -7 5 -4 10 3 6 8 10
11 10 2 0 4 -4 4 -10z m50 1 c0 -12 -20 -25 -27 -18 -7 7 6 27 18 27 5 0 9 -4
9 -9z m1490 -1 c0 -5 -2 -10 -4 -10 -3 0 -8 5 -11 10 -3 6 -1 10 4 10 6 0 11
-4 11 -10z m1757 4 c-3 -3 -12 -4 -19 -1 -8 3 -5 6 6 6 11 1 17 -2 13 -5z
m643 -4 c0 -5 -4 -10 -10 -10 -5 0 -10 5 -10 10 0 6 5 10 10 10 6 0 10 -4 10
-10z m253 -6 c-7 -3 -9 -13 -6 -21 5 -13 2 -15 -11 -10 -14 6 -16 3 -11 -16 7
-22 7 -22 -9 -2 -20 26 -21 49 0 41 8 -3 12 -2 9 4 -3 6 4 10 17 9 13 0 18 -3
11 -5z m-3523 -45 c0 -11 7 -22 16 -26 15 -5 15 -7 0 -15 -11 -6 -14 -17 -10
-36 l5 -27 -20 23 c-17 20 -23 21 -40 10 -14 -8 -24 -9 -30 -3 -16 16 -2 53
22 59 20 5 20 6 3 25 -17 18 -17 19 1 23 27 6 53 -10 53 -33z m826 -6 c-7 -53
-36 -96 -36 -53 0 13 7 32 16 42 13 13 14 21 5 31 -11 14 -5 27 12 27 6 0 7
-19 3 -47z m268 12 c-7 -17 -30 -20 -39 -6 -4 8 9 15 37 20 4 0 5 -6 2 -14z
m146 -26 c0 -18 4 -28 10 -24 12 7 12 -2 0 -30 -8 -19 -9 -19 -9 3 -1 12 -5
22 -11 22 -5 0 -10 6 -10 14 0 8 -5 16 -12 18 -9 3 -8 9 2 20 20 21 30 13 30
-23z m2570 16 c0 -7 -7 -16 -16 -19 -9 -4 -14 -13 -10 -21 3 -8 1 -15 -5 -15
-6 0 -9 -6 -6 -13 3 -8 1 -20 -4 -28 -7 -11 -11 -11 -17 -1 -5 7 -16 10 -25 6
-21 -8 -22 9 -2 26 10 9 15 9 15 1 0 -6 5 -11 11 -11 7 0 5 10 -5 25 -11 16
-12 23 -3 20 7 -3 21 8 30 25 18 30 37 32 37 5z m-4160 -1 c0 -8 -4 -12 -10
-9 -5 3 -10 10 -10 16 0 5 5 9 10 9 6 0 10 -7 10 -16z m2992 4 c-9 -9 -15 -9
-24 0 -9 9 -7 12 12 12 19 0 21 -3 12 -12z m427 -9 c-7 -4 -17 -5 -22 -2 -5 3
-3 9 4 14 7 4 17 5 22 2 5 -3 3 -9 -4 -14z m581 11 c0 -5 -4 -10 -10 -10 -5 0
-10 5 -10 10 0 6 5 10 10 10 6 0 10 -4 10 -10z m-4303 -6 c-3 -3 -12 -4 -19
-1 -8 3 -5 6 6 6 11 1 17 -2 13 -5z m1288 -4 c-3 -5 -11 -10 -16 -10 -6 0 -7
5 -4 10 3 6 11 10 16 10 6 0 7 -4 4 -10z m2325 -5 c0 -8 -4 -15 -10 -15 -5 0
-10 7 -10 15 0 8 5 15 10 15 6 0 10 -7 10 -15z m-3510 -21 c14 -15 13 -15 -9
-4 -19 10 -25 9 -32 -1 -5 -8 -3 -17 4 -22 8 -6 5 -7 -7 -3 -14 5 -26 -1 -42
-21 -32 -40 -37 -26 -11 30 21 45 24 48 52 42 16 -3 37 -13 45 -21z m1830 16
c0 -5 -2 -10 -4 -10 -3 0 -8 5 -11 10 -3 6 -1 10 4 10 6 0 11 -4 11 -10z
m1736 -5 c18 -14 18 -14 -8 -15 -18 0 -28 5 -28 15 0 19 11 19 36 0z m864 5
c0 -5 -7 -10 -15 -10 -8 0 -15 5 -15 10 0 6 7 10 15 10 8 0 15 -4 15 -10z
m-2738 -15 c0 -5 -5 -11 -11 -13 -6 -2 -11 4 -11 13 0 9 5 15 11 13 6 -2 11
-8 11 -13z m1665 -31 c-10 -10 -37 16 -37 34 0 13 4 12 22 -5 12 -13 19 -25
15 -29z m553 36 c0 -5 -5 -10 -11 -10 -5 0 -7 5 -4 10 3 6 8 10 11 10 2 0 4
-4 4 -10z m195 0 c3 -5 1 -10 -4 -10 -6 0 -11 5 -11 10 0 6 2 10 4 10 3 0 8
-4 11 -10z m-4037 -37 c-15 -18 -21 -9 -13 18 6 16 9 18 16 8 4 -8 3 -19 -3
-26z m3161 16 c4 -12 2 -12 -12 0 -14 11 -17 11 -17 1 0 -8 -3 -11 -6 -7 -9 9
6 29 19 24 6 -2 13 -10 16 -18z m851 7 c0 -8 -4 -18 -10 -21 -5 -3 -10 3 -10
14 0 12 5 21 10 21 6 0 10 -6 10 -14z m-2917 -5 c5 -1 6 -5 3 -10 -4 -5 -2
-11 3 -13 5 -1 11 -19 13 -38 2 -26 -1 -35 -12 -35 -8 0 -14 7 -13 15 2 8 -17
28 -42 43 -25 16 -45 33 -45 38 0 7 35 7 93 0z m3227 5 c0 -2 -7 -9 -15 -16
-13 -11 -14 -10 -9 4 5 14 24 23 24 12z m-480 -10 c0 -2 -7 -6 -15 -10 -8 -3
-15 -1 -15 4 0 6 7 10 15 10 8 0 15 -2 15 -4z m1789 -5 c8 -5 9 -11 3 -15 -5
-3 -15 1 -22 9 -14 16 -3 20 19 6z m-5349 -5 c0 -2 -9 -6 -20 -9 -11 -3 -20
-1 -20 4 0 5 9 9 20 9 11 0 20 -2 20 -4z m1545 -16 c-3 -5 -11 -10 -16 -10 -6
0 -7 5 -4 10 3 6 11 10 16 10 6 0 7 -4 4 -10z m2642 4 c-3 -3 -12 -4 -19 -1
-8 3 -5 6 6 6 11 1 17 -2 13 -5z m-397 -36 c0 -24 3 -29 10 -18 11 18 21 9 24
-24 4 -30 4 -30 -34 -11 -26 14 -28 18 -18 35 16 26 9 30 -51 33 -71 3 -64 17
9 17 l60 0 0 -32z m1586 7 c-1 -28 -23 -35 -23 -7 0 13 13 31 23 32 1 0 1 -11
0 -25z m-2146 -5 c0 -23 -10 -26 -28 -8 -18 18 -15 28 8 28 13 0 20 -7 20 -20z
m-2220 -1 c0 -5 4 -8 8 -5 5 3 9 -1 9 -9 0 -10 -5 -11 -19 -4 -19 10 -25 29
-8 29 6 0 10 -5 10 -11z m2918 -18 c3 -8 -1 -12 -9 -9 -7 2 -15 10 -17 17 -3
8 1 12 9 9 7 -2 15 -10 17 -17z m72 9 c0 -5 -2 -10 -4 -10 -3 0 -8 5 -11 10
-3 6 -1 10 4 10 6 0 11 -4 11 -10z m34 1 c3 -5 -1 -14 -8 -20 -12 -10 -14 -9
-11 6 2 10 4 19 4 21 2 5 10 2 15 -7z m1426 -12 c0 -11 -4 -18 -10 -14 -5 3
-7 12 -3 20 7 21 13 19 13 -6z m-4555 1 c3 -5 1 -10 -4 -10 -6 0 -11 5 -11 10
0 6 2 10 4 10 3 0 8 -4 11 -10z m750 0 c-3 -5 -12 -10 -20 -10 -8 0 -17 5 -20
10 -4 6 5 10 20 10 15 0 24 -4 20 -10z m-1680 -10 c-3 -5 -10 -10 -16 -10 -5
0 -9 5 -9 10 0 6 7 10 16 10 8 0 12 -4 9 -10z m695 6 c0 -3 -4 -8 -10 -11 -5
-3 -10 -1 -10 4 0 6 5 11 10 11 6 0 10 -2 10 -4z m65 -6 c3 -5 1 -10 -4 -10
-6 0 -11 5 -11 10 0 6 2 10 4 10 3 0 8 -4 11 -10z m3235 6 c0 -11 -19 -15 -25
-6 -3 5 1 10 9 10 9 0 16 -2 16 -4z m-4042 -29 c3 -13 -4 -17 -25 -17 -25 1
-26 2 -11 14 10 7 14 17 10 21 -4 4 0 6 8 3 8 -3 16 -12 18 -21z m1632 7 c0
-9 -5 -14 -12 -12 -18 6 -21 28 -4 28 9 0 16 -7 16 -16z m-480 -14 c-8 -5 -17
-7 -19 -4 -3 3 1 9 9 14 8 5 17 7 19 4 3 -3 -1 -9 -9 -14z m40 9 c0 -5 5 -7
10 -4 6 3 10 1 10 -4 0 -13 -3 -13 -24 -5 -18 7 -22 24 -6 24 6 0 10 -5 10
-11z m49 -25 c-15 -18 -22 -13 -13 10 3 9 10 13 16 10 5 -3 4 -12 -3 -20z
m341 11 c0 -8 -4 -15 -10 -15 -5 0 -10 7 -10 15 0 8 5 15 10 15 6 0 10 -7 10
-15z m3915 -12 c-2 -16 -4 -31 -4 -35 -1 -5 -5 -8 -11 -8 -14 0 -13 43 2 58
16 16 17 16 13 -15z m-5848 -5 c-3 -8 -6 -5 -6 6 -1 11 2 17 5 13 3 -3 4 -12
1 -19z m5803 0 c0 -16 -3 -19 -11 -11 -6 6 -8 16 -5 22 11 17 16 13 16 -11z
m-4564 -15 c-10 -10 -19 5 -10 18 6 11 8 11 12 0 2 -7 1 -15 -2 -18z m3196 5
c-7 -7 -12 -8 -12 -2 0 6 3 14 7 17 3 4 9 5 12 2 2 -3 -1 -11 -7 -17z m-4542
-9 c0 -6 -4 -7 -10 -4 -5 3 -10 11 -10 16 0 6 5 7 10 4 6 -3 10 -11 10 -16z
m3254 -18 c-1 -1 -12 3 -23 11 -12 8 -18 18 -14 21 6 7 43 -25 37 -32z m2704
-8 c25 23 35 21 29 -5 -4 -13 0 -26 10 -33 9 -7 13 -17 9 -23 -8 -13 -27 -16
-25 -4 4 25 -3 33 -22 27 -13 -4 -28 0 -41 12 -20 18 -20 17 -18 -2 4 -34 0
-46 -10 -40 -6 4 -8 11 -4 16 3 5 0 16 -6 24 -7 8 -10 22 -6 30 5 15 9 14 36
-1 27 -17 30 -17 48 -1z m-2383 -3 c3 -5 1 -10 -4 -10 -6 0 -11 5 -11 10 0 6
2 10 4 10 3 0 8 -4 11 -10z m969 2 c2 -4 -4 -8 -14 -9 -11 -1 -22 2 -25 8 -4
5 3 9 14 9 11 0 22 -4 25 -8z m166 -2 c0 -5 -5 -10 -11 -10 -5 0 -7 5 -4 10 3
6 8 10 11 10 2 0 4 -4 4 -10z m-1570 -15 c0 -8 -7 -15 -15 -15 -16 0 -20 12
-8 23 11 12 23 8 23 -8z m-3160 -15 c-6 -11 -15 -18 -21 -15 -15 10 -11 23 9
28 9 3 18 5 20 6 1 0 -2 -8 -8 -19z m3635 10 c3 -5 1 -10 -4 -10 -6 0 -11 5
-11 10 0 6 2 10 4 10 3 0 8 -4 11 -10z m1062 4 c-3 -3 -12 -4 -19 -1 -8 3 -5
6 6 6 11 1 17 -2 13 -5z m-3302 -24 c3 -5 1 -10 -4 -10 -6 0 -11 5 -11 10 0 6
2 10 4 10 3 0 8 -4 11 -10z m4494 -40 c0 -9 -4 -8 -9 5 -7 15 -9 16 -9 4 -1
-20 -29 -45 -38 -35 -4 4 -1 11 7 16 8 5 15 13 16 17 0 4 5 17 9 27 8 19 9 19
16 0 4 -10 8 -26 8 -34z m-218 24 c-18 -8 -38 -13 -45 -11 -6 3 5 9 24 15 50
15 60 13 21 -4z m-2341 2 c0 -3 -4 -8 -10 -11 -5 -3 -10 -1 -10 4 0 6 5 11 10
11 6 0 10 -2 10 -4z m-1896 -22 c4 -10 1 -14 -6 -12 -15 5 -23 28 -10 28 5 0
13 -7 16 -16z m-28 -15 c7 -13 -22 -46 -32 -36 -4 4 -2 13 4 20 7 8 9 17 5 20
-3 4 -1 7 5 7 6 0 14 -5 18 -11z m4160 4 c-10 -10 -89 -33 -94 -28 -2 2 18 10
44 19 59 18 59 18 50 9z m384 -4 c0 11 4 9 14 -4 8 -11 12 -24 8 -29 -3 -5 -9
-1 -13 10 -5 13 -8 14 -8 4 -1 -13 -2 -13 -11 0 -5 8 -10 20 -10 25 0 6 5 3
10 -5 8 -13 10 -13 10 -1z m-4605 -28 c-3 -12 -10 -21 -15 -21 -4 0 -3 11 3
24 14 29 22 27 12 -3z m2320 19 c3 -5 2 -10 -4 -10 -5 0 -18 -3 -28 -7 -16 -6
-16 -5 -4 10 15 19 27 22 36 7z m-235 -26 c0 -8 -5 -14 -11 -14 -5 0 -7 5 -4
10 3 6 -1 10 -9 10 -9 0 -16 4 -16 9 0 5 9 7 20 4 11 -3 20 -12 20 -19z m-935
-24 c-4 -18 -11 -29 -18 -26 -7 4 -20 9 -29 12 -25 9 -22 23 5 33 14 5 25 4
29 -3 5 -7 8 -4 8 8 0 11 3 17 6 13 3 -3 3 -20 -1 -37z m1180 10 c-3 -5 -11
-10 -16 -10 -6 0 -7 5 -4 10 3 6 11 10 16 10 6 0 7 -4 4 -10z m2270 1 c3 -5 1
-12 -5 -16 -5 -3 -10 1 -10 9 0 18 6 21 15 7z m-2318 -23 c-3 -8 -6 -5 -6 6
-1 11 2 17 5 13 3 -3 4 -12 1 -19z m1760 16 c-3 -3 -12 -4 -19 -1 -8 3 -5 6 6
6 11 1 17 -2 13 -5z m-40 -10 c-3 -3 -12 -4 -19 -1 -8 3 -5 6 6 6 11 1 17 -2
13 -5z m-1882 -14 c3 -5 -1 -10 -10 -10 -9 0 -13 5 -10 10 3 6 8 10 10 10 2 0
7 -4 10 -10z m187 -12 c-7 -7 -12 -8 -12 -2 0 6 3 14 7 17 3 4 9 5 12 2 2 -3
-1 -11 -7 -17z m1848 3 c0 -11 4 -22 9 -25 12 -8 20 -55 11 -61 -4 -3 -11 2
-14 11 -3 8 -10 13 -15 9 -5 -3 -13 0 -17 6 -3 6 0 15 7 20 11 7 11 9 -3 9
-14 0 -14 4 -5 25 14 30 27 32 27 6z m475 -1 c-3 -5 -11 -10 -16 -10 -6 0 -7
5 -4 10 3 6 11 10 16 10 6 0 7 -4 4 -10z m-1100 -11 c10 -15 4 -18 -27 -12
-15 3 -25 9 -22 14 7 12 41 11 49 -2z m-3445 -9 c0 -5 -5 -10 -11 -10 -5 0 -7
5 -4 10 3 6 8 10 11 10 2 0 4 -4 4 -10z m4560 -60 c0 -5 -12 -10 -27 -10 -22
0 -25 2 -13 10 13 8 13 11 1 19 -7 5 -10 14 -6 21 5 8 13 6 26 -9 10 -11 19
-25 19 -31z m-91 -29 c1 -10 -3 -9 -13 4 -8 11 -11 26 -8 34 4 12 7 11 13 -5
4 -10 8 -25 8 -33z m151 8 c0 -11 -4 -17 -10 -14 -5 3 -10 13 -10 21 0 8 5 14
10 14 6 0 10 -9 10 -21z m-1300 -3 c0 -11 -19 -15 -25 -6 -3 5 1 10 9 10 9 0
16 -2 16 -4z m1127 -38 c-3 -7 -5 -2 -5 12 0 14 2 19 5 13 2 -7 2 -19 0 -25z
m83 -30 c0 -23 -3 -29 -9 -19 -8 12 -4 51 5 51 2 0 4 -15 4 -32z m-50 6 c0 -8
-4 -12 -10 -9 -5 3 -10 10 -10 16 0 5 5 9 10 9 6 0 10 -7 10 -16z m110 -19 c0
-8 -7 -15 -15 -15 -8 0 -15 7 -15 15 0 8 7 15 15 15 8 0 15 -7 15 -15z m-425
-252 l0 -222 -22 -4 c-12 -2 -24 -2 -26 0 -2 2 -2 94 0 206 4 166 7 204 20
214 11 8 13 21 9 40 -6 26 -5 26 6 8 10 -15 13 -81 13 -242z m-955 197 c0 -5
-2 -10 -4 -10 -3 0 -8 5 -11 10 -3 6 -1 10 4 10 6 0 11 -4 11 -10z m1365 -10
c-3 -5 -11 -10 -16 -10 -6 0 -7 5 -4 10 3 6 11 10 16 10 6 0 7 -4 4 -10z m14
-72 c1 -17 0 -17 -17 0 -10 9 -14 19 -10 20 4 2 8 11 9 20 0 14 2 13 9 -3 5
-11 9 -28 9 -37z m-878 -211 l-3 -187 28 0 c28 0 178 23 237 36 38 8 34 -11
-5 -22 l-33 -10 -2 -99 c-4 -132 -6 -140 -40 -142 -63 -5 -245 -25 -343 -38
-102 -14 -356 -35 -432 -35 l-38 0 0 94 0 95 58 21 c31 12 81 24 110 27 28 3
53 6 54 7 1 1 4 82 7 181 8 238 25 240 29 3 2 -177 3 -178 25 -177 32 0 296
45 302 50 2 3 7 81 10 175 7 190 11 217 28 211 9 -3 11 -51 8 -190z m879 53
c0 -12 -28 -25 -36 -17 -9 9 6 27 22 27 8 0 14 -5 14 -10z m-5746 -261 c20
-16 26 -29 26 -59 0 -47 -10 -54 -74 -51 -70 4 -86 14 -86 56 0 69 76 99 134
54z m-264 -271 c0 -26 -16 -35 -52 -30 -29 3 -38 9 -38 23 0 16 8 19 45 19 29
0 45 -4 45 -12z m160 -28 c0 -19 -18 -19 -23 -1 -3 14 -1 18 9 14 8 -3 14 -9
14 -13z m-140 -49 l-12 -26 -9 24 c-5 13 -7 26 -4 29 3 3 5 0 5 -6 0 -7 5 -12
10 -12 6 0 8 12 5 28 -6 24 -5 25 5 8 10 -14 9 -24 0 -45z m220 -1 c0 -5 -4
-10 -10 -10 -5 0 -10 5 -10 10 0 6 5 10 10 10 6 0 10 -4 10 -10z m70 -11 c0
-5 -4 -9 -10 -9 -5 0 -10 7 -10 16 0 8 5 12 10 9 6 -3 10 -10 10 -16z m130 -9
c0 -5 -5 -10 -11 -10 -5 0 -7 5 -4 10 3 6 8 10 11 10 2 0 4 -4 4 -10z m2640
-21 c0 -7 -101 -9 -280 -7 -154 1 -280 6 -280 10 0 5 126 8 280 8 177 -1 280
-5 280 -11z m-130 -28 c0 -5 29 -7 64 -5 72 4 94 -8 71 -39 -12 -17 -33 -18
-312 -16 -164 2 -304 0 -310 -4 -23 -15 -14 19 12 43 21 20 31 22 80 17 31 -3
55 -2 55 4 0 5 72 9 170 9 94 0 170 -4 170 -9z m1029 0 c7 -5 13 -22 13 -37 0
-16 5 -37 10 -47 7 -14 3 -25 -21 -49 -17 -18 -32 -30 -34 -27 -1 2 -11 29
-21 60 -17 53 -17 58 -1 83 18 27 31 31 54 17z m-1694 -31 c-3 -5 -11 -10 -16
-10 -6 0 -7 5 -4 10 3 6 11 10 16 10 6 0 7 -4 4 -10z m-1145 -50 c0 -5 -8 -13
-17 -18 -15 -9 -15 -11 0 -26 8 -9 19 -25 22 -36 3 -11 11 -20 16 -20 16 0 10
-26 -12 -46 -12 -10 -27 -31 -35 -46 -12 -23 -18 -26 -53 -21 -27 4 -46 0 -62
-11 -26 -18 -43 -21 -34 -6 6 10 -12 15 -87 25 -34 4 -45 10 -42 20 4 9 -3 13
-20 11 -15 0 -24 -6 -22 -12 3 -8 -4 -10 -21 -5 -32 8 -52 36 -38 50 6 6 79
15 164 21 85 6 158 13 163 16 4 3 8 14 8 26 0 16 -5 19 -20 15 -13 -3 -28 2
-40 15 -29 32 -142 37 -203 10 -26 -12 -47 -19 -47 -17 0 9 85 50 115 56 50
10 265 10 265 -1z m-510 -35 c20 -24 3 -31 -21 -9 -16 14 -23 15 -26 7 -5 -14
-33 -18 -33 -5 0 26 60 31 80 7z m3070 6 c0 -9 -27 -41 -35 -41 -13 0 -13 21
1 34 17 18 34 21 34 7z m315 -84 c-9 -23 -11 -38 -5 -42 6 -3 10 -11 10 -16 0
-15 -26 14 -34 37 -4 13 1 28 15 43 28 30 33 22 14 -22z m-2697 6 c-10 -2 -26
-2 -35 0 -10 3 -2 5 17 5 19 0 27 -2 18 -5z m2427 -53 c3 -5 1 -10 -4 -10 -6
0 -11 5 -11 10 0 6 2 10 4 10 3 0 8 -4 11 -10z m-77 -22 c-4 -17 40 -22 58 -7
8 6 17 9 20 6 9 -9 -28 -24 -73 -30 -46 -5 -56 6 -25 29 21 17 23 17 20 2z
m-568 -44 c5 -36 8 -39 38 -42 44 -4 30 -22 -17 -22 -34 0 -40 4 -57 38 -10
20 -25 41 -32 45 -21 14 -3 27 31 23 29 -3 32 -7 37 -42z m130 -4 c0 -5 -5
-10 -11 -10 -5 0 -7 5 -4 10 3 6 8 10 11 10 2 0 4 -4 4 -10z m-2320 -35 c41
-3 89 -9 105 -14 27 -8 28 -9 10 -16 -11 -4 -32 -11 -47 -17 -16 -6 -61 -7
-113 -3 -75 6 -83 9 -68 21 16 12 15 13 -14 14 -31 0 -41 9 -26 23 3 4 22 5
42 2 20 -2 70 -7 111 -10z m122 -67 c-7 -7 -12 -8 -12 -2 0 6 3 14 7 17 3 4 9
5 12 2 2 -3 -1 -11 -7 -17z m338 7 c0 -19 -40 -35 -88 -35 -44 0 -34 15 24 35
51 18 64 18 64 0z m-346 -50 c9 -14 24 -25 34 -25 13 -1 11 -4 -8 -15 l-25
-14 25 -2 c60 -3 -56 -18 -260 -34 -250 -19 -324 -28 -365 -46 l-30 -12 35 -7
c22 -5 27 -8 13 -9 -32 -2 -103 -31 -103 -42 0 -6 -9 -5 -20 1 -16 9 -20 8
-20 -5 0 -24 -24 -12 -28 13 -2 12 -9 22 -15 23 -7 0 -3 4 8 9 13 6 -4 8 -50
7 -53 -2 -70 1 -70 12 0 43 290 93 623 108 92 4 158 11 165 17 17 17 60 46 68
46 4 0 14 -11 23 -25z m1836 -25 c0 -5 -4 -10 -10 -10 -5 0 -10 5 -10 10 0 6
5 10 10 10 6 0 10 -4 10 -10z m-1790 -90 c0 -5 -6 -10 -12 -11 -7 0 -24 -2
-38 -3 -14 -2 -28 2 -32 8 -6 8 -11 7 -17 -4 -11 -16 -27 -7 -16 9 8 14 115
14 115 1z m2280 6 c0 -11 -19 -15 -25 -6 -3 5 1 10 9 10 9 0 16 -2 16 -4z
m-2412 -18 c-3 -7 -16 -13 -30 -14 -14 -1 -44 -4 -67 -8 -31 -5 -41 -3 -41 7
0 23 11 27 78 27 46 0 63 -3 60 -12z m2271 -103 c0 -5 -6 1 -14 15 -8 14 -14
34 -14 45 0 13 5 8 14 -15 7 -19 14 -39 14 -45z m221 45 c0 -10 -4 -22 -10
-25 -6 -4 -10 7 -10 25 0 18 4 29 10 25 6 -3 10 -15 10 -25z m-3526 -1 c-7
-11 -94 -12 -94 -1 0 15 8 17 54 14 25 -2 43 -8 40 -13z m451 -59 c-3 -5 -11
-10 -16 -10 -6 0 -7 5 -4 10 3 6 11 10 16 10 6 0 7 -4 4 -10z m3015 -10 c0 -5
-2 -10 -4 -10 -3 0 -8 5 -11 10 -3 6 -1 10 4 10 6 0 11 -4 11 -10z m135 -13
c6 -4 -14 -6 -43 -5 -29 1 -56 6 -59 11 -4 6 8 7 30 3 22 -4 38 -2 42 4 4 6
10 8 14 3 3 -4 11 -11 16 -16z m-220 -77 c3 -5 2 -10 -4 -10 -5 0 -13 5 -16
10 -3 6 -2 10 4 10 5 0 13 -4 16 -10z m55 -110 c0 -5 -4 -10 -10 -10 -5 0 -10
5 -10 10 0 6 5 10 10 10 6 0 10 -4 10 -10z m2360 -24 c0 -18 9 -29 32 -40 42
-21 51 -20 38 4 -11 20 -5 60 8 60 12 0 31 -51 25 -66 -4 -11 5 -14 43 -14 34
0 45 -3 37 -11 -15 -15 -228 -30 -503 -33 -135 -2 -403 -7 -596 -11 -381 -9
-425 -6 -417 25 9 33 25 38 91 29 34 -5 86 -5 115 -1 50 8 47 9 -58 16 -125 8
-139 11 -129 27 5 8 48 9 153 4 80 -3 272 -2 426 4 154 6 374 13 490 16 115 4
212 8 214 11 13 13 31 1 31 -20z m-2293 8 c-3 -3 -12 -4 -19 -1 -8 3 -5 6 6 6
11 1 17 -2 13 -5z m-721 -71 c-10 -10 -76 -12 -76 -2 0 5 13 9 29 9 17 0 33 5
37 12 6 9 9 9 12 -1 2 -7 1 -15 -2 -18z m-1909 -57 c-18 -18 -79 -25 -84 -9
-4 12 20 19 70 22 25 1 26 -1 14 -13z m3164 1 c-1 -4 -3 -7 -6 -7 -40 0 -40 0
-25 10 16 10 32 9 31 -3z m-3683 -14 c-10 -2 -28 -2 -40 0 -13 2 -5 4 17 4 22
1 32 -1 23 -4z m1916 -68 c20 -15 20 -15 0 -31 -16 -12 -41 -14 -154 -9 -75 3
-153 12 -175 20 -29 10 -66 12 -130 8 -63 -4 -87 -2 -80 5 15 16 58 19 300 20
179 1 224 -1 239 -13z"/>
<path d="M2050 3440 c0 -5 5 -10 11 -10 5 0 7 5 4 10 -3 6 -8 10 -11 10 -2 0
-4 -4 -4 -10z"/>
<path d="M2586 3461 c-4 -5 -2 -12 3 -15 5 -4 12 -2 15 3 4 5 2 12 -3 15 -5 4
-12 2 -15 -3z"/>
<path d="M2540 3250 c0 -5 5 -10 11 -10 5 0 7 5 4 10 -3 6 -8 10 -11 10 -2 0
-4 -4 -4 -10z"/>
<path d="M4645 3500 c-3 -5 -1 -10 4 -10 6 0 11 5 11 10 0 6 -2 10 -4 10 -3 0
-8 -4 -11 -10z"/>
<path d="M4915 3490 c-3 -5 1 -10 9 -10 8 0 18 5 21 10 3 6 -1 10 -9 10 -8 0
-18 -4 -21 -10z"/>
<path d="M5970 3473 c8 -3 22 -11 30 -17 13 -10 13 -9 1 7 -7 9 -21 17 -30 16
-13 0 -14 -1 -1 -6z"/>
<path d="M6088 3466 c-17 -12 -25 -46 -12 -46 12 0 31 26 31 43 0 9 -1 17 -1
17 -1 0 -9 -7 -18 -14z"/>
<path d="M5051 3454 c0 -11 3 -14 6 -6 3 7 2 16 -1 19 -3 4 -6 -2 -5 -13z"/>
<path d="M5017 3379 c-10 -11 -16 -23 -13 -27 7 -6 46 27 46 40 0 14 -15 9
-33 -13z"/>
<path d="M6000 3249 c0 -5 5 -7 10 -4 6 3 10 8 10 11 0 2 -4 4 -10 4 -5 0 -10
-5 -10 -11z"/>
<path d="M6050 3241 c0 -6 -7 -8 -15 -5 -8 4 -15 1 -15 -5 0 -6 7 -11 15 -11
8 0 15 -5 15 -11 0 -6 7 -8 16 -5 12 5 15 2 10 -11 -5 -15 -4 -15 9 1 17 22
20 40 6 31 -5 -3 -17 2 -25 11 -9 8 -16 11 -16 5z"/>
<path d="M5223 3142 c-28 -9 -68 -59 -51 -64 6 -2 20 4 30 14 10 10 24 18 32
18 7 0 16 9 19 20 5 21 4 22 -30 12z"/>
<path d="M5285 3010 c-16 -11 -25 -20 -19 -20 11 0 64 39 54 40 -3 0 -18 -9
-35 -20z"/>
<path d="M370 3340 c-8 -5 -11 -12 -8 -16 4 -3 14 1 23 10 18 17 9 21 -15 6z"/>
<path d="M4190 1700 c0 -5 5 -10 11 -10 5 0 7 5 4 10 -3 6 -8 10 -11 10 -2 0
-4 -4 -4 -10z"/>
<path d="M3400 3419 c0 -5 5 -7 10 -4 6 3 10 8 10 11 0 2 -4 4 -10 4 -5 0 -10
-5 -10 -11z"/>
<path d="M3426 3403 c-6 -14 -5 -15 5 -6 7 7 10 15 7 18 -3 3 -9 -2 -12 -12z"/>
<path d="M3450 3362 c0 -5 7 -13 16 -16 10 -4 14 -1 12 6 -5 15 -28 23 -28 10z"/>
<path d="M3500 3345 c0 -16 16 -20 24 -6 3 5 -1 11 -9 15 -9 3 -15 0 -15 -9z"/>
<path d="M3487 3256 c-3 -8 -3 -17 0 -20 7 -7 33 13 33 25 0 15 -27 10 -33 -5z"/>
<path d="M3288 3113 c7 -3 16 -2 19 1 4 3 -2 6 -13 5 -11 0 -14 -3 -6 -6z"/>
<path d="M3368 3053 c7 -3 16 -2 19 1 4 3 -2 6 -13 5 -11 0 -14 -3 -6 -6z"/>
<path d="M3288 2863 c7 -3 16 -2 19 1 4 3 -2 6 -13 5 -11 0 -14 -3 -6 -6z"/>
<path d="M50 2125 l-25 -14 23 -1 c13 0 30 7 38 15 20 20 -1 20 -36 0z"/>
<path d="M5800 1855 c-10 -13 -9 -15 9 -15 11 0 21 4 21 9 0 18 -18 21 -30 6z"/>
<path d="M5926 1863 c-11 -11 -6 -23 8 -23 7 0 18 6 24 13 8 10 6 13 -8 14
-10 1 -21 -1 -24 -4z"/>
<path d="M5985 1860 c-11 -18 -3 -20 50 -11 38 7 43 9 18 10 -17 0 -38 4 -46
7 -8 3 -18 0 -22 -6z"/>
<path d="M5580 1850 c0 -5 18 -10 40 -10 22 0 40 5 40 10 0 6 -18 10 -40 10
-22 0 -40 -4 -40 -10z"/>
<path d="M6145 1832 l-60 -3 -2 -234 c-2 -199 0 -235 13 -235 12 0 14 31 14
190 l0 190 95 0 95 0 0 44 0 44 -47 4 c-27 1 -75 2 -108 0z"/>
<path d="M5290 1760 c-199 -13 -204 -14 -346 -128 -128 -102 -136 -112 -142
-170 -7 -74 1 -77 166 -66 115 9 146 14 192 37 54 26 62 26 368 39 274 10 317
14 344 31 29 17 30 21 24 65 -10 75 -37 159 -58 181 -18 20 -28 21 -226 19
-114 0 -259 -4 -322 -8z m-280 -169 c0 -17 -4 -19 -32 -10 -18 5 -34 9 -36 9
-2 0 0 5 3 10 3 6 19 10 36 10 22 0 29 -5 29 -19z m31 -91 c10 0 19 -4 19 -9
0 -12 -63 -21 -74 -11 -12 12 4 32 21 26 8 -3 23 -6 34 -6z"/>
<path d="M2291 1692 c-9 -17 -15 -18 -51 -9 -29 8 -48 8 -73 -1 -18 -7 -49
-12 -68 -13 l-34 -1 35 -15 c44 -19 174 -23 191 -5 8 7 38 12 72 12 36 0 56 4
52 10 -3 6 -15 10 -25 10 -10 0 -20 4 -22 9 -1 5 -17 12 -35 15 -25 6 -34 3
-42 -12z"/>
<path d="M5984 1645 c4 -22 9 -55 13 -72 4 -29 2 -33 -16 -33 -23 0 -25 -9
-12 -60 6 -19 11 -53 13 -75 4 -39 5 -40 47 -43 l43 -3 -7 68 c-4 37 -13 79
-20 93 -7 14 -20 52 -30 85 -22 73 -40 97 -31 40z"/>
<path d="M4430 1530 c0 -5 10 -10 23 -10 12 0 33 -3 47 -6 24 -5 24 -5 6 10
-22 18 -76 22 -76 6z"/>
<path d="M4368 1513 c7 -3 16 -2 19 1 4 3 -2 6 -13 5 -11 0 -14 -3 -6 -6z"/>
<path d="M4599 1467 c-35 -26 -52 -30 -152 -38 -207 -17 -348 -39 -373 -57
-30 -22 -30 -28 0 -36 13 -3 26 -15 29 -26 5 -19 12 -19 223 -14 121 2 274 7
341 10 l121 6 4 26 c1 15 2 39 0 55 -3 23 -8 27 -35 28 l-32 1 30 7 c25 5 31
12 33 38 l3 32 -77 -2 c-66 -2 -82 -6 -115 -30z m97 -46 c-3 -5 -15 -7 -26 -4
-28 7 -25 13 6 13 14 0 23 -4 20 -9z"/>
<path d="M2860 1395 c0 -8 9 -15 20 -15 11 0 20 7 20 15 0 8 -9 15 -20 15 -11
0 -20 -7 -20 -15z"/>
<path d="M5880 1401 c-37 -5 -46 -10 -48 -29 -3 -22 -1 -23 60 -20 52 2 63 6
66 22 4 16 -14 38 -28 34 -3 0 -25 -4 -50 -7z"/>
<path d="M5312 1378 c-6 -6 -12 -20 -12 -30 0 -16 9 -18 66 -18 l65 0 -3 28
c-3 25 -7 27 -53 30 -30 2 -55 -2 -63 -10z"/>
<path d="M4857 1373 c-4 -3 -7 -17 -7 -30 0 -21 4 -24 28 -21 21 2 28 9 30 31
3 23 0 27 -21 27 -13 0 -27 -3 -30 -7z"/>
<path d="M4930 1360 c-6 -11 -8 -24 -5 -29 6 -10 115 -12 115 -2 -1 43 -40 73
-40 31 0 -11 -4 -20 -9 -20 -5 0 -11 9 -14 20 -7 26 -33 26 -47 0z"/>
<path d="M5057 1358 c-8 -27 -10 -26 38 -28 70 -3 75 -2 75 25 0 31 -34 35
-50 5 -6 -11 -15 -20 -19 -20 -5 0 -11 9 -14 20 -7 27 -23 25 -30 -2z"/>
<path d="M5190 1355 c0 -23 4 -26 28 -23 19 2 27 9 27 23 0 14 -8 21 -27 23
-24 3 -28 0 -28 -23z"/>
<path d="M3664 1337 c-12 -37 10 -43 148 -45 73 -2 128 1 122 5 -7 5 -13 17
-15 28 -4 18 -14 20 -127 25 -111 5 -123 3 -128 -13z"/>
<path d="M3970 1326 c0 -24 16 -43 27 -32 8 8 -6 56 -17 56 -6 0 -10 -11 -10
-24z"/>
<path d="M2633 1313 c-51 -10 -18 -23 58 -23 60 0 80 3 77 13 -5 12 -91 19
-135 10z"/>
<path d="M5410 1289 c0 -5 5 -7 10 -4 6 3 10 8 10 11 0 2 -4 4 -10 4 -5 0 -10
-5 -10 -11z"/>
<path d="M5545 1280 c-3 -5 -16 -10 -28 -10 -18 0 -25 -10 -38 -55 l-16 -55
33 0 c40 0 41 2 52 73 9 57 8 66 -3 47z"/>
<path d="M5639 1273 c-39 -4 -59 -31 -59 -77 0 -27 17 -36 65 -36 60 0 93 64
38 73 -26 4 -26 4 5 6 25 1 32 5 32 21 0 21 -2 21 -81 13z"/>
<path d="M5774 1272 c-15 -10 -35 -95 -24 -106 12 -12 100 3 105 17 2 7 6 30
9 53 l6 41 -43 1 c-23 1 -47 -2 -53 -6z"/>
<path d="M4860 1250 c0 -24 8 -25 32 -3 17 15 18 15 18 0 0 -10 7 -17 15 -17
8 0 15 9 15 20 0 17 -7 20 -40 20 -33 0 -40 -3 -40 -20z"/>
<path d="M5183 1231 c-8 -18 -13 -43 -11 -55 3 -18 11 -21 54 -24 60 -3 71 6
80 71 l7 47 -58 -3 c-55 -2 -59 -3 -72 -36z"/>
<path d="M5344 1215 c-10 -30 -15 -58 -11 -61 3 -4 27 -3 52 0 35 6 45 11 45
26 0 10 -5 22 -11 25 -6 4 -7 19 -4 36 6 27 5 29 -24 29 -28 0 -31 -4 -47 -55z"/>
<path d="M1769 1258 c-10 -37 -7 -48 14 -48 28 0 47 18 40 36 -4 11 -51 21
-54 12z"/>
<path d="M1900 1250 c-11 -7 -12 -12 -4 -20 15 -15 156 0 162 18 5 15 -134 17
-158 2z"/>
<path d="M5022 1252 c-13 -9 -32 -64 -32 -94 0 -11 8 -18 19 -18 30 0 51 11
51 26 0 9 11 14 29 14 34 0 36 2 46 48 l7 32 -54 0 c-29 0 -59 -4 -66 -8z"/>
<path d="M4846 1212 c-9 -15 4 -65 22 -78 11 -8 70 -8 72 0 8 29 9 76 2 76 -6
0 -12 -7 -14 -16 -2 -10 -15 -18 -31 -20 -15 -1 -25 1 -23 5 3 5 -1 16 -8 26
-9 12 -15 14 -20 7z"/>
<path d="M1500 1180 c0 -5 5 -10 10 -10 6 0 10 5 10 10 0 6 -4 10 -10 10 -5 0
-10 -4 -10 -10z"/>
<path d="M2526 1182 c-3 -5 -23 -7 -45 -6 -37 2 -42 -1 -47 -25 -3 -14 -9 -43
-14 -64 l-8 -38 61 3 c61 3 62 3 64 33 1 17 5 47 9 68 4 24 3 37 -4 37 -6 0
-13 -4 -16 -8z"/>
<path d="M2270 1155 c-6 -8 -12 -36 -13 -62 l-2 -48 51 -3 c61 -4 70 5 80 76
l7 52 -55 0 c-36 0 -60 -5 -68 -15z"/>
<path d="M2168 1148 c-17 -14 -34 -113 -20 -122 5 -3 18 -2 30 1 23 6 42 54
42 106 0 30 -24 37 -52 15z"/>
<path d="M2028 1143 c-10 -2 -18 -13 -18 -22 0 -10 -3 -39 -6 -65 l-7 -48 48
4 c36 4 49 9 51 22 1 9 -4 20 -12 23 -11 4 -13 16 -8 49 7 46 2 50 -48 37z"/>
<path d="M1478 1125 c-52 -29 -46 -158 9 -171 44 -11 77 7 91 51 10 29 10 45
3 57 -6 10 -11 24 -11 32 0 11 -55 49 -64 46 -1 -1 -13 -7 -28 -15z"/>
<path d="M1885 1130 c-48 -5 -50 -7 -59 -41 -5 -20 -6 -48 -2 -63 6 -24 11
-26 55 -26 53 0 81 17 81 49 0 10 3 32 6 48 7 36 -5 41 -81 33z"/>
<path d="M1660 1104 c-8 -9 -17 -40 -20 -70 l-6 -54 33 0 c22 0 36 6 43 20 6
11 19 20 30 20 25 0 53 42 48 72 -3 20 -9 23 -59 26 -42 2 -59 -1 -69 -14z"/>
<path d="M4827 1093 c-19 -18 1 -22 96 -17 126 7 155 24 40 24 -56 0 -83 -4
-86 -12 -4 -10 -6 -10 -6 0 -1 13 -33 17 -44 5z"/>
<path d="M5714 1065 c-3 -8 -3 -19 0 -24 10 -16 36 -1 36 20 0 22 -28 26 -36
4z"/>
<path d="M5767 1073 c-4 -3 -7 -12 -7 -20 0 -16 82 -13 87 4 6 16 -18 28 -27
13 -5 -9 -9 -9 -14 -1 -8 12 -29 15 -39 4z"/>
<path d="M5108 1059 c-10 -6 -18 -16 -18 -24 0 -20 33 -23 47 -5 8 10 12 11
13 3 0 -7 9 -13 20 -13 14 0 20 7 20 21 0 18 -4 21 -29 16 -16 -4 -31 -2 -33
3 -2 5 -11 5 -20 -1z"/>
<path d="M5257 1062 c-12 -2 -16 -9 -13 -19 3 -8 6 -17 6 -19 0 -2 9 -4 20 -4
11 0 20 4 20 8 0 5 14 7 30 4 22 -3 30 0 30 11 0 19 -29 30 -45 17 -6 -5 -16
-6 -21 -1 -5 4 -17 6 -27 3z"/>
<path d="M5385 1060 c-11 -18 14 -37 43 -33 15 3 40 5 57 6 18 1 31 8 33 18 2
13 -6 16 -38 16 -34 0 -40 -3 -41 -21 0 -20 0 -20 -9 2 -10 23 -34 30 -45 12z"/>
<path d="M5536 1063 c-3 -4 -6 -12 -6 -20 0 -20 84 -12 88 9 2 12 -6 16 -36
16 -22 0 -43 -2 -46 -5z"/>
<path d="M5662 1058 c3 -7 13 -15 22 -16 12 -3 17 1 14 10 -3 7 -13 15 -22 16
-12 3 -17 -1 -14 -10z"/>
<path d="M4995 1050 c-8 -14 13 -40 32 -40 20 0 12 44 -9 48 -9 2 -19 -2 -23
-8z"/>
<path d="M5050 1034 c0 -31 23 -28 28 4 2 15 -2 22 -12 22 -11 0 -16 -9 -16
-26z"/>
<path d="M5210 1039 c0 -11 5 -17 10 -14 6 3 10 13 10 21 0 8 -4 14 -10 14 -5
0 -10 -9 -10 -21z"/>
<path d="M2401 981 c-16 -10 -6 -31 15 -31 8 0 14 9 14 20 0 22 -7 25 -29 11z"/>
<path d="M2452 973 c5 -26 38 -29 38 -4 0 15 -6 21 -21 21 -14 0 -19 -5 -17
-17z"/>
<path d="M2510 974 c0 -17 22 -14 28 4 2 7 -3 12 -12 12 -9 0 -16 -7 -16 -16z"/>
<path d="M2350 971 c0 -5 7 -14 15 -21 13 -10 15 -9 15 9 0 12 -6 21 -15 21
-8 0 -15 -4 -15 -9z"/>
<path d="M2195 960 c-9 -15 4 -30 26 -30 12 0 19 7 19 20 0 21 -33 29 -45 10z"/>
<path d="M2260 950 c0 -13 5 -18 15 -14 8 4 15 12 15 20 0 8 -7 14 -15 14 -8
0 -15 -9 -15 -20z"/>
<path d="M2033 944 c-7 -18 14 -35 33 -27 10 4 11 10 3 24 -12 23 -28 24 -36
3z"/>
<path d="M2094 946 c-8 -22 3 -33 18 -18 9 9 9 15 0 24 -9 9 -13 7 -18 -6z"/>
<path d="M2130 944 c0 -10 7 -14 22 -12 32 5 35 28 4 28 -17 0 -26 -5 -26 -16z"/>
<path d="M1940 930 c0 -13 7 -20 20 -20 24 0 27 25 4 34 -23 9 -24 8 -24 -14z"/>
<path d="M1870 925 c0 -9 9 -15 25 -15 16 0 25 6 25 15 0 9 -9 15 -25 15 -16
0 -25 -6 -25 -15z"/>
<path d="M1717 924 c-14 -15 -6 -34 14 -34 14 0 19 5 17 17 -3 18 -20 27 -31
17z"/>
<path d="M1770 921 c0 -13 26 -32 33 -24 14 13 6 33 -13 33 -11 0 -20 -4 -20
-9z"/>
<path d="M1832 919 c2 -6 8 -10 13 -10 5 0 11 4 13 10 2 6 -4 11 -13 11 -9 0
-15 -5 -13 -11z"/>
<path d="M1585 910 c-9 -15 4 -30 27 -30 14 0 18 5 14 16 -3 9 -6 18 -6 20 0
8 -29 4 -35 -6z"/>
<path d="M1650 906 c0 -18 16 -29 30 -21 13 8 1 35 -16 35 -8 0 -14 -6 -14
-14z"/>
</g>
</svg>
